<?xml version="1.0" encoding="UTF-8" standalone="no"?>
<!DOCTYPE svg PUBLIC "-//W3C//DTD SVG 1.1//EN"
 "http://www.w3.org/Graphics/SVG/1.1/DTD/svg11.dtd">
<!-- Generated by graphviz version 2.43.0 (0)
 -->
<!-- Title: bdd Pages: 1 -->
<svg width="296pt" height="548pt"
 viewBox="0.00 0.00 296.00 548.00" xmlns="http://www.w3.org/2000/svg" xmlns:xlink="http://www.w3.org/1999/xlink">
<g id="graph0" class="graph" transform="scale(1 1) rotate(0) translate(4 544)">
<title>bdd</title>
<polygon fill="white" stroke="transparent" points="-4,4 -4,-544 292,-544 292,4 -4,4"/>
<!-- L&#45;1 -->
<g id="node1" class="node">
<title>L&#45;1</title>
<text text-anchor="middle" x="27" y="-518.3" font-family="Times,serif" font-size="14.00">ref</text>
</g>
<!-- L0 -->
<g id="node3" class="node">
<title>L0</title>
<text text-anchor="middle" x="27" y="-446.3" font-family="Times,serif" font-size="14.00">0</text>
</g>
<!-- L&#45;1&#45;&gt;L0 -->
<!-- ref&#45;14 -->
<g id="node2" class="node">
<title>ref&#45;14</title>
<ellipse fill="none" stroke="black" cx="123" cy="-522" rx="34.39" ry="18"/>
<text text-anchor="middle" x="123" y="-518.3" font-family="Times,serif" font-size="14.00">@&#45;14</text>
</g>
<!-- 14 -->
<g id="node4" class="node">
<title>14</title>
<ellipse fill="none" stroke="black" cx="123" cy="-450" rx="30.59" ry="18"/>
<text text-anchor="middle" x="123" y="-446.3" font-family="Times,serif" font-size="14.00">x1 &#60;= x2</text>
</g>
<!-- ref&#45;14&#45;&gt;14 -->
<g id="edge24" class="edge">
<title>ref&#45;14&#45;&gt;14</title>
<path fill="none" stroke="black" stroke-dasharray="5,2" d="M123,-503.7C123,-495.98 123,-486.71 123,-478.11"/>
<polygon fill="black" stroke="black" points="126.5,-478.1 123,-468.1 119.5,-478.1 126.5,-478.1"/>
<text text-anchor="middle" x="116" y="-492.5" font-family="Times,serif" font-size="14.00">&#45;1</text>
</g>
<!-- L1 -->
<g id="node5" class="node">
<title>L1</title>
<text text-anchor="middle" x="27" y="-374.3" font-family="Times,serif" font-size="14.00">1</text>
</g>
<!-- L0&#45;&gt;L1 -->
<!-- 11 -->
<g id="node6" class="node">
<title>11</title>
<ellipse fill="none" stroke="black" cx="113" cy="-378" rx="31.4" ry="18"/>
<text text-anchor="middle" x="113" y="-374.3" font-family="Times,serif" font-size="14.00">x2 &#60;= x1</text>
</g>
<!-- 14&#45;&gt;11 -->
<g id="edge22" class="edge">
<title>14&#45;&gt;11</title>
<path fill="none" stroke="black" stroke-dasharray="5,2" d="M120.58,-432.05C119.48,-424.35 118.15,-415.03 116.91,-406.36"/>
<polygon fill="black" stroke="black" points="120.35,-405.68 115.47,-396.28 113.42,-406.67 120.35,-405.68"/>
<text text-anchor="middle" x="118.08" y="-420.85" font-family="Times,serif" font-size="14.00"> </text>
</g>
<!-- 12 -->
<g id="node7" class="node">
<title>12</title>
<ellipse fill="none" stroke="black" cx="193" cy="-378" rx="31.4" ry="18"/>
<text text-anchor="middle" x="193" y="-374.3" font-family="Times,serif" font-size="14.00">x2 &#60;= x1</text>
</g>
<!-- 14&#45;&gt;12 -->
<g id="edge23" class="edge">
<title>14&#45;&gt;12</title>
<path fill="none" stroke="black" d="M137.85,-434.15C147.28,-424.72 159.67,-412.33 170.31,-401.69"/>
<polygon fill="black" stroke="black" points="173.1,-403.85 177.69,-394.31 168.15,-398.9 173.1,-403.85"/>
</g>
<!-- L2 -->
<g id="node8" class="node">
<title>L2</title>
<text text-anchor="middle" x="27" y="-302.3" font-family="Times,serif" font-size="14.00">2</text>
</g>
<!-- L1&#45;&gt;L2 -->
<!-- 9 -->
<g id="node9" class="node">
<title>9</title>
<ellipse fill="none" stroke="black" cx="176" cy="-306" rx="27" ry="18"/>
<text text-anchor="middle" x="176" y="-302.3" font-family="Times,serif" font-size="14.00">x3 &#60;= x4</text>
</g>
<!-- 11&#45;&gt;9 -->
<g id="edge19" class="edge">
<title>11&#45;&gt;9</title>
<path fill="none" stroke="black" d="M126.67,-361.81C135.09,-352.45 146.05,-340.28 155.49,-329.79"/>
<polygon fill="black" stroke="black" points="158.27,-331.93 162.36,-322.16 153.07,-327.25 158.27,-331.93"/>
</g>
<!-- 1 -->
<g id="node18" class="node">
<title>1</title>
<ellipse fill="none" stroke="black" cx="195" cy="-18" rx="40.89" ry="18"/>
<text text-anchor="middle" x="195" y="-14.3" font-family="Times,serif" font-size="14.00">True&#45;1</text>
</g>
<!-- 11&#45;&gt;1 -->
<g id="edge18" class="edge">
<title>11&#45;&gt;1</title>
<path fill="none" stroke="black" stroke-dasharray="5,2" d="M110.83,-359.98C107.62,-333.37 102,-280.25 102,-235 102,-235 102,-235 102,-161 102,-112.18 140.94,-67.09 168.42,-41.34"/>
<polygon fill="black" stroke="black" points="171.13,-43.61 176.18,-34.29 166.42,-38.42 171.13,-43.61"/>
<text text-anchor="middle" x="108.33" y="-348.78" font-family="Times,serif" font-size="14.00"> </text>
</g>
<!-- 12&#45;&gt;9 -->
<g id="edge20" class="edge">
<title>12&#45;&gt;9</title>
<path fill="none" stroke="black" stroke-dasharray="5,2" d="M188.88,-360.05C186.99,-352.26 184.7,-342.82 182.58,-334.08"/>
<polygon fill="black" stroke="black" points="185.96,-333.17 180.2,-324.28 179.15,-334.82 185.96,-333.17"/>
<text text-anchor="middle" x="186.38" y="-348.85" font-family="Times,serif" font-size="14.00"> </text>
</g>
<!-- 12&#45;&gt;1 -->
<g id="edge21" class="edge">
<title>12&#45;&gt;1</title>
<path fill="none" stroke="black" d="M210.87,-362.95C238.39,-339.59 288,-289.87 288,-235 288,-235 288,-235 288,-161 288,-112.18 249.06,-67.09 221.58,-41.34"/>
<polygon fill="black" stroke="black" points="223.58,-38.42 213.82,-34.29 218.87,-43.61 223.58,-38.42"/>
</g>
<!-- L3 -->
<g id="node10" class="node">
<title>L3</title>
<text text-anchor="middle" x="27" y="-230.3" font-family="Times,serif" font-size="14.00">3</text>
</g>
<!-- L2&#45;&gt;L3 -->
<!-- 6 -->
<g id="node11" class="node">
<title>6</title>
<ellipse fill="none" stroke="black" cx="159" cy="-234" rx="27" ry="18"/>
<text text-anchor="middle" x="159" y="-230.3" font-family="Times,serif" font-size="14.00">x4 &#60;= x3</text>
</g>
<!-- 9&#45;&gt;6 -->
<g id="edge16" class="edge">
<title>9&#45;&gt;6</title>
<path fill="none" stroke="black" stroke-dasharray="5,2" d="M171.88,-288.05C169.99,-280.26 167.7,-270.82 165.58,-262.08"/>
<polygon fill="black" stroke="black" points="168.96,-261.17 163.2,-252.28 162.15,-262.82 168.96,-261.17"/>
<text text-anchor="middle" x="169.38" y="-276.85" font-family="Times,serif" font-size="14.00"> </text>
</g>
<!-- 7 -->
<g id="node12" class="node">
<title>7</title>
<ellipse fill="none" stroke="black" cx="231" cy="-234" rx="27" ry="18"/>
<text text-anchor="middle" x="231" y="-230.3" font-family="Times,serif" font-size="14.00">x4 &#60;= x3</text>
</g>
<!-- 9&#45;&gt;7 -->
<g id="edge17" class="edge">
<title>9&#45;&gt;7</title>
<path fill="none" stroke="black" d="M187.93,-289.81C195.21,-280.55 204.66,-268.52 212.85,-258.09"/>
<polygon fill="black" stroke="black" points="215.66,-260.18 219.09,-250.16 210.16,-255.86 215.66,-260.18"/>
</g>
<!-- L4 -->
<g id="node13" class="node">
<title>L4</title>
<text text-anchor="middle" x="27" y="-158.3" font-family="Times,serif" font-size="14.00">4</text>
</g>
<!-- L3&#45;&gt;L4 -->
<!-- 4 -->
<g id="node14" class="node">
<title>4</title>
<ellipse fill="none" stroke="black" cx="195" cy="-162" rx="27" ry="18"/>
<text text-anchor="middle" x="195" y="-158.3" font-family="Times,serif" font-size="14.00">x1 &#60;= x4</text>
</g>
<!-- 6&#45;&gt;4 -->
<g id="edge13" class="edge">
<title>6&#45;&gt;4</title>
<path fill="none" stroke="black" d="M167.35,-216.76C171.71,-208.28 177.15,-197.71 182.04,-188.2"/>
<polygon fill="black" stroke="black" points="185.23,-189.64 186.7,-179.15 179.01,-186.44 185.23,-189.64"/>
</g>
<!-- 6&#45;&gt;1 -->
<g id="edge12" class="edge">
<title>6&#45;&gt;1</title>
<path fill="none" stroke="black" stroke-dasharray="5,2" d="M155.81,-216.06C150.87,-186.19 143.47,-122.49 159,-72 162.14,-61.79 167.99,-51.79 174.07,-43.27"/>
<polygon fill="black" stroke="black" points="176.87,-45.37 180.14,-35.29 171.3,-41.13 176.87,-45.37"/>
<text text-anchor="middle" x="153.31" y="-204.86" font-family="Times,serif" font-size="14.00"> </text>
</g>
<!-- 7&#45;&gt;4 -->
<g id="edge14" class="edge">
<title>7&#45;&gt;4</title>
<path fill="none" stroke="black" stroke-dasharray="5,2" d="M222.65,-216.76C218.29,-208.28 212.85,-197.71 207.96,-188.2"/>
<polygon fill="black" stroke="black" points="210.99,-186.44 203.3,-179.15 204.77,-189.64 210.99,-186.44"/>
<text text-anchor="middle" x="220.15" y="-205.56" font-family="Times,serif" font-size="14.00"> </text>
</g>
<!-- 7&#45;&gt;1 -->
<g id="edge15" class="edge">
<title>7&#45;&gt;1</title>
<path fill="none" stroke="black" d="M234.19,-216.06C239.13,-186.19 246.53,-122.49 231,-72 227.86,-61.79 222.01,-51.79 215.93,-43.27"/>
<polygon fill="black" stroke="black" points="218.7,-41.13 209.86,-35.29 213.13,-45.37 218.7,-41.13"/>
</g>
<!-- L5 -->
<g id="node15" class="node">
<title>L5</title>
<text text-anchor="middle" x="27" y="-86.3" font-family="Times,serif" font-size="14.00">5</text>
</g>
<!-- L4&#45;&gt;L5 -->
<!-- 2 -->
<g id="node16" class="node">
<title>2</title>
<ellipse fill="none" stroke="black" cx="195" cy="-90" rx="27" ry="18"/>
<text text-anchor="middle" x="195" y="-86.3" font-family="Times,serif" font-size="14.00">x4 &#60;= x1</text>
</g>
<!-- 4&#45;&gt;2 -->
<g id="edge10" class="edge">
<title>4&#45;&gt;2</title>
<path fill="none" stroke="black" stroke-dasharray="5,2" d="M189.16,-144.41C188.3,-136.51 188.05,-126.85 188.41,-117.94"/>
<polygon fill="black" stroke="black" points="191.9,-118.18 189.12,-107.96 184.92,-117.68 191.9,-118.18"/>
<text text-anchor="middle" x="182.16" y="-133.21" font-family="Times,serif" font-size="14.00">&#45;1</text>
</g>
<!-- 4&#45;&gt;2 -->
<g id="edge11" class="edge">
<title>4&#45;&gt;2</title>
<path fill="none" stroke="black" d="M200.84,-144.41C201.7,-136.51 201.95,-126.85 201.59,-117.94"/>
<polygon fill="black" stroke="black" points="205.08,-117.68 200.88,-107.96 198.1,-118.18 205.08,-117.68"/>
</g>
<!-- L6 -->
<g id="node17" class="node">
<title>L6</title>
<text text-anchor="middle" x="27" y="-14.3" font-family="Times,serif" font-size="14.00">6</text>
</g>
<!-- L5&#45;&gt;L6 -->
<!-- 2&#45;&gt;1 -->
<g id="edge8" class="edge">
<title>2&#45;&gt;1</title>
<path fill="none" stroke="black" stroke-dasharray="5,2" d="M189.16,-72.41C188.3,-64.51 188.05,-54.85 188.41,-45.94"/>
<polygon fill="black" stroke="black" points="191.9,-46.18 189.12,-35.96 184.92,-45.68 191.9,-46.18"/>
<text text-anchor="middle" x="182.16" y="-61.21" font-family="Times,serif" font-size="14.00">&#45;1</text>
</g>
<!-- 2&#45;&gt;1 -->
<g id="edge9" class="edge">
<title>2&#45;&gt;1</title>
<path fill="none" stroke="black" d="M200.84,-72.41C201.7,-64.51 201.95,-54.85 201.59,-45.94"/>
<polygon fill="black" stroke="black" points="205.08,-45.68 200.88,-35.96 198.1,-46.18 205.08,-45.68"/>
</g>
</g>
</svg>

