<?xml version="1.0" encoding="UTF-8" standalone="no"?>
<!DOCTYPE svg PUBLIC "-//W3C//DTD SVG 1.1//EN"
 "http://www.w3.org/Graphics/SVG/1.1/DTD/svg11.dtd">
<!-- Generated by graphviz version 2.43.0 (0)
 -->
<!-- Title: bdd Pages: 1 -->
<svg width="356pt" height="620pt"
 viewBox="0.00 0.00 355.55 620.00" xmlns="http://www.w3.org/2000/svg" xmlns:xlink="http://www.w3.org/1999/xlink">
<g id="graph0" class="graph" transform="scale(1 1) rotate(0) translate(4 616)">
<title>bdd</title>
<polygon fill="white" stroke="transparent" points="-4,4 -4,-616 351.55,-616 351.55,4 -4,4"/>
<!-- L&#45;1 -->
<g id="node1" class="node">
<title>L&#45;1</title>
<text text-anchor="middle" x="27" y="-590.3" font-family="Times,serif" font-size="14.00">ref</text>
</g>
<!-- L0 -->
<g id="node3" class="node">
<title>L0</title>
<text text-anchor="middle" x="27" y="-518.3" font-family="Times,serif" font-size="14.00">0</text>
</g>
<!-- L&#45;1&#45;&gt;L0 -->
<!-- ref&#45;14 -->
<g id="node2" class="node">
<title>ref&#45;14</title>
<ellipse fill="none" stroke="black" cx="304" cy="-594" rx="34.39" ry="18"/>
<text text-anchor="middle" x="304" y="-590.3" font-family="Times,serif" font-size="14.00">@&#45;14</text>
</g>
<!-- 14 -->
<g id="node4" class="node">
<title>14</title>
<ellipse fill="none" stroke="black" cx="304" cy="-522" rx="43.59" ry="18"/>
<text text-anchor="middle" x="304" y="-518.3" font-family="Times,serif" font-size="14.00">1 &lt;= a</text>
</g>
<!-- ref&#45;14&#45;&gt;14 -->
<g id="edge23" class="edge">
<title>ref&#45;14&#45;&gt;14</title>
<path fill="none" stroke="black" stroke-dasharray="5,2" d="M304,-575.7C304,-567.98 304,-558.71 304,-550.11"/>
<polygon fill="black" stroke="black" points="307.5,-550.1 304,-540.1 300.5,-550.1 307.5,-550.1"/>
<text text-anchor="middle" x="297" y="-564.5" font-family="Times,serif" font-size="14.00">&#45;1</text>
</g>
<!-- L1 -->
<g id="node5" class="node">
<title>L1</title>
<text text-anchor="middle" x="27" y="-446.3" font-family="Times,serif" font-size="14.00">1</text>
</g>
<!-- L0&#45;&gt;L1 -->
<!-- 12 -->
<g id="node6" class="node">
<title>12</title>
<ellipse fill="none" stroke="black" cx="268" cy="-450" rx="43.59" ry="18"/>
<text text-anchor="middle" x="268" y="-446.3" font-family="Times,serif" font-size="14.00">a &lt;= 8</text>
</g>
<!-- 14&#45;&gt;12 -->
<g id="edge22" class="edge">
<title>14&#45;&gt;12</title>
<path fill="none" stroke="black" d="M295.29,-504.05C291.08,-495.89 285.95,-485.91 281.28,-476.82"/>
<polygon fill="black" stroke="black" points="284.32,-475.08 276.63,-467.79 278.1,-478.28 284.32,-475.08"/>
</g>
<!-- 1 -->
<g id="node18" class="node">
<title>1</title>
<ellipse fill="none" stroke="black" cx="226" cy="-18" rx="40.89" ry="18"/>
<text text-anchor="middle" x="226" y="-14.3" font-family="Times,serif" font-size="14.00">True&#45;1</text>
</g>
<!-- 14&#45;&gt;1 -->
<g id="edge21" class="edge">
<title>14&#45;&gt;1</title>
<path fill="none" stroke="black" stroke-dasharray="5,2" d="M311.29,-503.87C321.8,-477.53 340,-425.29 340,-379 340,-379 340,-379 340,-161 340,-107.81 290.76,-63.2 257.01,-38.87"/>
<polygon fill="black" stroke="black" points="259,-35.99 248.8,-33.13 254.98,-41.73 259,-35.99"/>
<text text-anchor="middle" x="308.79" y="-492.67" font-family="Times,serif" font-size="14.00"> </text>
</g>
<!-- L2 -->
<g id="node7" class="node">
<title>L2</title>
<text text-anchor="middle" x="27" y="-374.3" font-family="Times,serif" font-size="14.00">2</text>
</g>
<!-- L1&#45;&gt;L2 -->
<!-- 10 -->
<g id="node8" class="node">
<title>10</title>
<ellipse fill="none" stroke="black" cx="230" cy="-378" rx="44.39" ry="18"/>
<text text-anchor="middle" x="230" y="-374.3" font-family="Times,serif" font-size="14.00">1 &lt;= b</text>
</g>
<!-- 12&#45;&gt;10 -->
<g id="edge20" class="edge">
<title>12&#45;&gt;10</title>
<path fill="none" stroke="black" d="M258.8,-432.05C254.37,-423.89 248.95,-413.91 244.02,-404.82"/>
<polygon fill="black" stroke="black" points="246.96,-402.91 239.11,-395.79 240.81,-406.25 246.96,-402.91"/>
</g>
<!-- 12&#45;&gt;1 -->
<g id="edge19" class="edge">
<title>12&#45;&gt;1</title>
<path fill="none" stroke="black" stroke-dasharray="5,2" d="M274.88,-431.83C284.82,-405.44 302,-353.14 302,-307 302,-307 302,-307 302,-161 302,-114.88 270.45,-69.24 248.01,-42.61"/>
<polygon fill="black" stroke="black" points="250.58,-40.24 241.38,-34.98 245.29,-44.82 250.58,-40.24"/>
<text text-anchor="middle" x="272.38" y="-420.63" font-family="Times,serif" font-size="14.00"> </text>
</g>
<!-- L3 -->
<g id="node9" class="node">
<title>L3</title>
<text text-anchor="middle" x="27" y="-302.3" font-family="Times,serif" font-size="14.00">3</text>
</g>
<!-- L2&#45;&gt;L3 -->
<!-- 8 -->
<g id="node10" class="node">
<title>8</title>
<ellipse fill="none" stroke="black" cx="192" cy="-306" rx="44.39" ry="18"/>
<text text-anchor="middle" x="192" y="-302.3" font-family="Times,serif" font-size="14.00">b &lt;= 8</text>
</g>
<!-- 10&#45;&gt;8 -->
<g id="edge18" class="edge">
<title>10&#45;&gt;8</title>
<path fill="none" stroke="black" d="M220.8,-360.05C216.37,-351.89 210.95,-341.91 206.02,-332.82"/>
<polygon fill="black" stroke="black" points="208.96,-330.91 201.11,-323.79 202.81,-334.25 208.96,-330.91"/>
</g>
<!-- 10&#45;&gt;1 -->
<g id="edge17" class="edge">
<title>10&#45;&gt;1</title>
<path fill="none" stroke="black" stroke-dasharray="5,2" d="M236.88,-359.83C246.82,-333.44 264,-281.14 264,-235 264,-235 264,-235 264,-161 264,-119.63 248.77,-73.72 237.59,-45.61"/>
<polygon fill="black" stroke="black" points="240.72,-44.02 233.69,-36.09 234.24,-46.67 240.72,-44.02"/>
<text text-anchor="middle" x="234.38" y="-348.63" font-family="Times,serif" font-size="14.00"> </text>
</g>
<!-- L4 -->
<g id="node11" class="node">
<title>L4</title>
<text text-anchor="middle" x="27" y="-230.3" font-family="Times,serif" font-size="14.00">4</text>
</g>
<!-- L3&#45;&gt;L4 -->
<!-- 6 -->
<g id="node12" class="node">
<title>6</title>
<ellipse fill="none" stroke="black" cx="162" cy="-234" rx="36" ry="18"/>
<text text-anchor="middle" x="162" y="-230.3" font-family="Times,serif" font-size="14.00">b = a</text>
</g>
<!-- 8&#45;&gt;6 -->
<g id="edge16" class="edge">
<title>8&#45;&gt;6</title>
<path fill="none" stroke="black" d="M184.74,-288.05C181.27,-279.97 177.05,-270.12 173.19,-261.11"/>
<polygon fill="black" stroke="black" points="176.35,-259.6 169.2,-251.79 169.92,-262.36 176.35,-259.6"/>
</g>
<!-- 8&#45;&gt;1 -->
<g id="edge15" class="edge">
<title>8&#45;&gt;1</title>
<path fill="none" stroke="black" stroke-dasharray="5,2" d="M197.72,-288.01C200.96,-277.71 204.79,-264.23 207,-252 220.29,-178.36 224.29,-89.93 225.49,-46.22"/>
<polygon fill="black" stroke="black" points="228.99,-46.19 225.74,-36.1 222,-46.01 228.99,-46.19"/>
<text text-anchor="middle" x="195.22" y="-276.81" font-family="Times,serif" font-size="14.00"> </text>
</g>
<!-- L5 -->
<g id="node13" class="node">
<title>L5</title>
<text text-anchor="middle" x="27" y="-158.3" font-family="Times,serif" font-size="14.00">5</text>
</g>
<!-- L4&#45;&gt;L5 -->
<!-- 4 -->
<g id="node14" class="node">
<title>4</title>
<ellipse fill="none" stroke="black" cx="116" cy="-162" rx="43.59" ry="18"/>
<text text-anchor="middle" x="116" y="-158.3" font-family="Times,serif" font-size="14.00">a &lt;= b</text>
</g>
<!-- 6&#45;&gt;4 -->
<g id="edge13" class="edge">
<title>6&#45;&gt;4</title>
<path fill="none" stroke="black" stroke-dasharray="5,2" d="M151.33,-216.76C145.72,-208.23 138.73,-197.58 132.44,-188.02"/>
<polygon fill="black" stroke="black" points="135.35,-186.07 126.93,-179.63 129.5,-189.91 135.35,-186.07"/>
<text text-anchor="middle" x="148.83" y="-205.56" font-family="Times,serif" font-size="14.00"> </text>
</g>
<!-- 6&#45;&gt;1 -->
<g id="edge14" class="edge">
<title>6&#45;&gt;1</title>
<path fill="none" stroke="black" d="M167.13,-215.85C178.25,-178.66 204.65,-90.37 217.99,-45.77"/>
<polygon fill="black" stroke="black" points="221.42,-46.52 220.94,-35.94 214.72,-44.51 221.42,-46.52"/>
</g>
<!-- L6 -->
<g id="node15" class="node">
<title>L6</title>
<text text-anchor="middle" x="27" y="-86.3" font-family="Times,serif" font-size="14.00">6</text>
</g>
<!-- L5&#45;&gt;L6 -->
<!-- 2 -->
<g id="node16" class="node">
<title>2</title>
<ellipse fill="none" stroke="black" cx="116" cy="-90" rx="43.59" ry="18"/>
<text text-anchor="middle" x="116" y="-86.3" font-family="Times,serif" font-size="14.00">b &lt;= a</text>
</g>
<!-- 4&#45;&gt;2 -->
<g id="edge11" class="edge">
<title>4&#45;&gt;2</title>
<path fill="none" stroke="black" stroke-dasharray="5,2" d="M110.12,-144.05C109.3,-136.35 109.06,-127.03 109.39,-118.36"/>
<polygon fill="black" stroke="black" points="112.89,-118.49 110.09,-108.28 105.91,-118.01 112.89,-118.49"/>
<text text-anchor="middle" x="103.12" y="-132.85" font-family="Times,serif" font-size="14.00">&#45;1</text>
</g>
<!-- 4&#45;&gt;2 -->
<g id="edge12" class="edge">
<title>4&#45;&gt;2</title>
<path fill="none" stroke="black" d="M121.88,-144.05C122.7,-136.35 122.94,-127.03 122.61,-118.36"/>
<polygon fill="black" stroke="black" points="126.09,-118.01 121.91,-108.28 119.11,-118.49 126.09,-118.01"/>
</g>
<!-- L7 -->
<g id="node17" class="node">
<title>L7</title>
<text text-anchor="middle" x="27" y="-14.3" font-family="Times,serif" font-size="14.00">7</text>
</g>
<!-- L6&#45;&gt;L7 -->
<!-- 2&#45;&gt;1 -->
<g id="edge9" class="edge">
<title>2&#45;&gt;1</title>
<path fill="none" stroke="black" stroke-dasharray="5,2" d="M134.44,-73.64C149.97,-62.94 172.37,-48.62 191.2,-37.32"/>
<polygon fill="black" stroke="black" points="193.01,-40.31 199.83,-32.21 189.44,-34.29 193.01,-40.31"/>
<text text-anchor="middle" x="127.44" y="-62.44" font-family="Times,serif" font-size="14.00">&#45;1</text>
</g>
<!-- 2&#45;&gt;1 -->
<g id="edge10" class="edge">
<title>2&#45;&gt;1</title>
<path fill="none" stroke="black" d="M142.38,-75.67C159.62,-65.6 181.91,-51.59 199.21,-40.02"/>
<polygon fill="black" stroke="black" points="201.44,-42.74 207.75,-34.23 197.51,-36.95 201.44,-42.74"/>
</g>
</g>
</svg>
