<?xml version="1.0" encoding="UTF-8" standalone="no"?>
<!DOCTYPE svg PUBLIC "-//W3C//DTD SVG 1.1//EN"
 "http://www.w3.org/Graphics/SVG/1.1/DTD/svg11.dtd">
<!-- Generated by graphviz version 2.43.0 (0)
 -->
<!-- Title: bdd Pages: 1 -->
<svg width="254pt" height="548pt"
 viewBox="0.00 0.00 254.20 548.00" xmlns="http://www.w3.org/2000/svg" xmlns:xlink="http://www.w3.org/1999/xlink">
<g id="graph0" class="graph" transform="scale(1 1) rotate(0) translate(4 544)">
<title>bdd</title>
<polygon fill="white" stroke="transparent" points="-4,4 -4,-544 250.2,-544 250.2,4 -4,4"/>
<!-- L&#45;1 -->
<g id="node1" class="node">
<title>L&#45;1</title>
<text text-anchor="middle" x="27" y="-518.3" font-family="Times,serif" font-size="14.00">ref</text>
</g>
<!-- L0 -->
<g id="node2" class="node">
<title>L0</title>
<text text-anchor="middle" x="27" y="-446.3" font-family="Times,serif" font-size="14.00">0</text>
</g>
<!-- L&#45;1&#45;&gt;L0 -->
<!-- L1 -->
<g id="node4" class="node">
<title>L1</title>
<text text-anchor="middle" x="27" y="-374.3" font-family="Times,serif" font-size="14.00">1</text>
</g>
<!-- L0&#45;&gt;L1 -->
<!-- 18 -->
<g id="node3" class="node">
<title>18</title>
<ellipse fill="none" stroke="black" cx="185" cy="-450" rx="30.59" ry="18"/>
<text text-anchor="middle" x="185" y="-446.3" font-family="Times,serif" font-size="14.00">a&#45;18</text>
</g>
<!-- 17 -->
<g id="node5" class="node">
<title>17</title>
<ellipse fill="none" stroke="black" cx="215" cy="-378" rx="31.4" ry="18"/>
<text text-anchor="middle" x="215" y="-374.3" font-family="Times,serif" font-size="14.00">b&#45;17</text>
</g>
<!-- 18&#45;&gt;17 -->
<g id="edge18" class="edge">
<title>18&#45;&gt;17</title>
<path fill="none" stroke="black" stroke-dasharray="5,2" d="M192.11,-432.41C195.57,-424.34 199.82,-414.43 203.71,-405.35"/>
<polygon fill="black" stroke="black" points="207.01,-406.53 207.73,-395.96 200.58,-403.77 207.01,-406.53"/>
<text text-anchor="middle" x="189.61" y="-421.21" font-family="Times,serif" font-size="14.00"> </text>
</g>
<!-- 16 -->
<g id="node7" class="node">
<title>16</title>
<ellipse fill="none" stroke="black" cx="156" cy="-306" rx="30.59" ry="18"/>
<text text-anchor="middle" x="156" y="-302.3" font-family="Times,serif" font-size="14.00">c&#45;16</text>
</g>
<!-- 18&#45;&gt;16 -->
<g id="edge19" class="edge">
<title>18&#45;&gt;16</title>
<path fill="none" stroke="black" d="M181.5,-431.87C176.54,-407.56 167.4,-362.82 161.52,-334.01"/>
<polygon fill="black" stroke="black" points="164.94,-333.29 159.51,-324.19 158.08,-334.69 164.94,-333.29"/>
</g>
<!-- L2 -->
<g id="node6" class="node">
<title>L2</title>
<text text-anchor="middle" x="27" y="-302.3" font-family="Times,serif" font-size="14.00">2</text>
</g>
<!-- L1&#45;&gt;L2 -->
<!-- 17&#45;&gt;16 -->
<g id="edge17" class="edge">
<title>17&#45;&gt;16</title>
<path fill="none" stroke="black" d="M201.91,-361.46C194.19,-352.31 184.28,-340.55 175.64,-330.31"/>
<polygon fill="black" stroke="black" points="178.18,-327.88 169.06,-322.49 172.83,-332.39 178.18,-327.88"/>
</g>
<!-- 1 -->
<g id="node15" class="node">
<title>1</title>
<ellipse fill="none" stroke="black" cx="140" cy="-18" rx="40.89" ry="18"/>
<text text-anchor="middle" x="140" y="-14.3" font-family="Times,serif" font-size="14.00">True&#45;1</text>
</g>
<!-- 17&#45;&gt;1 -->
<g id="edge16" class="edge">
<title>17&#45;&gt;1</title>
<path fill="none" stroke="black" stroke-dasharray="5,2" d="M215,-359.95C215,-333.29 215,-280.11 215,-235 215,-235 215,-235 215,-161 215,-115.02 183.87,-69.34 161.72,-42.66"/>
<polygon fill="black" stroke="black" points="164.34,-40.34 155.18,-35.02 159.02,-44.89 164.34,-40.34"/>
<text text-anchor="middle" x="212.5" y="-348.75" font-family="Times,serif" font-size="14.00"> </text>
</g>
<!-- L3 -->
<g id="node8" class="node">
<title>L3</title>
<text text-anchor="middle" x="27" y="-230.3" font-family="Times,serif" font-size="14.00">3</text>
</g>
<!-- L2&#45;&gt;L3 -->
<!-- 15 -->
<g id="node9" class="node">
<title>15</title>
<ellipse fill="none" stroke="black" cx="156" cy="-234" rx="31.4" ry="18"/>
<text text-anchor="middle" x="156" y="-230.3" font-family="Times,serif" font-size="14.00">d&#45;15</text>
</g>
<!-- 16&#45;&gt;15 -->
<g id="edge14" class="edge">
<title>16&#45;&gt;15</title>
<path fill="none" stroke="black" stroke-dasharray="5,2" d="M156,-287.7C156,-279.98 156,-270.71 156,-262.11"/>
<polygon fill="black" stroke="black" points="159.5,-262.1 156,-252.1 152.5,-262.1 159.5,-262.1"/>
<text text-anchor="middle" x="153.5" y="-276.5" font-family="Times,serif" font-size="14.00"> </text>
</g>
<!-- 12 -->
<g id="node11" class="node">
<title>12</title>
<ellipse fill="none" stroke="black" cx="108" cy="-162" rx="30.59" ry="18"/>
<text text-anchor="middle" x="108" y="-158.3" font-family="Times,serif" font-size="14.00">e&#45;12</text>
</g>
<!-- 16&#45;&gt;12 -->
<g id="edge15" class="edge">
<title>16&#45;&gt;12</title>
<path fill="none" stroke="black" d="M141.19,-290.18C132.26,-280.26 121.56,-266.41 116,-252 108.38,-232.25 106.61,-208.27 106.62,-190.18"/>
<polygon fill="black" stroke="black" points="110.12,-190.09 106.81,-180.02 103.12,-189.96 110.12,-190.09"/>
</g>
<!-- L4 -->
<g id="node10" class="node">
<title>L4</title>
<text text-anchor="middle" x="27" y="-158.3" font-family="Times,serif" font-size="14.00">4</text>
</g>
<!-- L3&#45;&gt;L4 -->
<!-- 15&#45;&gt;12 -->
<g id="edge13" class="edge">
<title>15&#45;&gt;12</title>
<path fill="none" stroke="black" d="M145.11,-217.12C139.18,-208.47 131.71,-197.58 125.03,-187.83"/>
<polygon fill="black" stroke="black" points="127.72,-185.57 119.18,-179.31 121.95,-189.53 127.72,-185.57"/>
</g>
<!-- 15&#45;&gt;1 -->
<g id="edge12" class="edge">
<title>15&#45;&gt;1</title>
<path fill="none" stroke="black" stroke-dasharray="5,2" d="M155.21,-215.59C153.8,-186.03 150.57,-124.17 146,-72 145.26,-63.57 144.29,-54.4 143.34,-46.1"/>
<polygon fill="black" stroke="black" points="146.81,-45.69 142.17,-36.16 139.86,-46.5 146.81,-45.69"/>
<text text-anchor="middle" x="152.71" y="-204.39" font-family="Times,serif" font-size="14.00"> </text>
</g>
<!-- L5 -->
<g id="node12" class="node">
<title>L5</title>
<text text-anchor="middle" x="27" y="-86.3" font-family="Times,serif" font-size="14.00">5</text>
</g>
<!-- L4&#45;&gt;L5 -->
<!-- 9 -->
<g id="node13" class="node">
<title>9</title>
<ellipse fill="none" stroke="black" cx="110" cy="-90" rx="27" ry="18"/>
<text text-anchor="middle" x="110" y="-86.3" font-family="Times,serif" font-size="14.00">f&#45;9</text>
</g>
<!-- 12&#45;&gt;9 -->
<g id="edge10" class="edge">
<title>12&#45;&gt;9</title>
<path fill="none" stroke="black" stroke-dasharray="5,2" d="M102.61,-144.05C102,-136.23 102.03,-126.75 102.64,-117.98"/>
<polygon fill="black" stroke="black" points="106.15,-118.09 103.66,-107.79 99.18,-117.39 106.15,-118.09"/>
<text text-anchor="middle" x="95.61" y="-132.85" font-family="Times,serif" font-size="14.00">&#45;1</text>
</g>
<!-- 12&#45;&gt;9 -->
<g id="edge11" class="edge">
<title>12&#45;&gt;9</title>
<path fill="none" stroke="black" d="M114.36,-144.05C115.42,-136.23 115.92,-126.75 115.82,-117.98"/>
<polygon fill="black" stroke="black" points="119.31,-117.63 115.38,-107.79 112.31,-117.93 119.31,-117.63"/>
</g>
<!-- L6 -->
<g id="node14" class="node">
<title>L6</title>
<text text-anchor="middle" x="27" y="-14.3" font-family="Times,serif" font-size="14.00">6</text>
</g>
<!-- L5&#45;&gt;L6 -->
<!-- 9&#45;&gt;1 -->
<g id="edge8" class="edge">
<title>9&#45;&gt;1</title>
<path fill="none" stroke="black" stroke-dasharray="5,2" d="M111.5,-71.7C114.2,-63.4 118.33,-53.31 122.7,-44.19"/>
<polygon fill="black" stroke="black" points="125.88,-45.65 127.29,-35.14 119.64,-42.48 125.88,-45.65"/>
<text text-anchor="middle" x="104.5" y="-60.5" font-family="Times,serif" font-size="14.00">&#45;1</text>
</g>
<!-- 9&#45;&gt;1 -->
<g id="edge9" class="edge">
<title>9&#45;&gt;1</title>
<path fill="none" stroke="black" d="M122.19,-73.81C126.72,-65.57 131.49,-55.15 135.17,-45.62"/>
<polygon fill="black" stroke="black" points="138.49,-46.72 138.56,-36.13 131.9,-44.37 138.49,-46.72"/>
</g>
</g>
</svg>
