<?xml version="1.0" encoding="UTF-8" standalone="no"?>
<!DOCTYPE svg PUBLIC "-//W3C//DTD SVG 1.1//EN"
 "http://www.w3.org/Graphics/SVG/1.1/DTD/svg11.dtd">
<!-- Generated by graphviz version 2.43.0 (0)
 -->
<!-- Title: sdd Pages: 1 -->
<svg width="475pt" height="823pt"
 viewBox="0.00 0.00 474.50 823.35" xmlns="http://www.w3.org/2000/svg" xmlns:xlink="http://www.w3.org/1999/xlink">
<g id="graph0" class="graph" transform="scale(1 1) rotate(0) translate(4 819.35)">
<title>sdd</title>
<polygon fill="white" stroke="transparent" points="-4,4 -4,-819.35 470.5,-819.35 470.5,4 -4,4"/>
<!-- n33 -->
<g id="node1" class="node">
<title>n33</title>
<ellipse fill="#f2f2f2" stroke="black" cx="197.5" cy="-91.75" rx="25" ry="25"/>
<text text-anchor="middle" x="197.5" y="-88.05" font-family="Times,serif" font-size="14.00">11</text>
</g>
<!-- n33e0 -->
<g id="node7" class="node">
<title>n33e0</title>
<polygon fill="white" stroke="black" points="0,-0.5 0,-30.5 189,-30.5 189,-0.5 0,-0.5"/>
<text text-anchor="middle" x="43" y="-10.5" font-family="Times,serif" font-style="italic" font-size="20.00">a &lt;= b</text>
<polyline fill="none" stroke="black" points="86,-0.5 86,-30.5 "/>
<text text-anchor="middle" x="137.5" y="-10.5" font-family="Times,serif" font-style="italic" font-size="20.00">¬b &lt;= a</text>
</g>
<!-- n33&#45;&gt;n33e0 -->
<g id="edge1" class="edge">
<title>n33&#45;&gt;n33e0</title>
<path fill="none" stroke="black" d="M177.64,-76.43C160.72,-64.23 136.36,-46.67 118.37,-33.71"/>
<polygon fill="black" stroke="black" points="119.03,-32.02 113.95,-30.52 116.98,-34.86 119.03,-32.02"/>
</g>
<!-- n33e1 -->
<g id="node8" class="node">
<title>n33e1</title>
<polygon fill="white" stroke="black" points="207,-0.5 207,-30.5 396,-30.5 396,-0.5 207,-0.5"/>
<text text-anchor="middle" x="258.5" y="-10.5" font-family="Times,serif" font-style="italic" font-size="20.00">¬a &lt;= b</text>
<polyline fill="none" stroke="black" points="310,-0.5 310,-30.5 "/>
<text text-anchor="middle" x="353" y="-10.5" font-family="Times,serif" font-style="italic" font-size="20.00">b &lt;= a</text>
</g>
<!-- n33&#45;&gt;n33e1 -->
<g id="edge2" class="edge">
<title>n33&#45;&gt;n33e1</title>
<path fill="none" stroke="black" d="M217.55,-76.43C234.64,-64.23 259.24,-46.67 277.39,-33.71"/>
<polygon fill="black" stroke="black" points="278.81,-34.85 281.86,-30.52 276.78,-32 278.81,-34.85"/>
</g>
<!-- n34 -->
<g id="node2" class="node">
<title>n34</title>
<ellipse fill="#f2f2f2" stroke="black" cx="216.5" cy="-237.88" rx="18.27" ry="18.27"/>
<text text-anchor="middle" x="216.5" y="-234.18" font-family="Times,serif" font-size="14.00">9</text>
</g>
<!-- n34e0 -->
<g id="node9" class="node">
<title>n34e0</title>
<polygon fill="white" stroke="black" points="100,-153 100,-183 209,-183 209,-153 100,-153"/>
<text text-anchor="middle" x="143" y="-163" font-family="Times,serif" font-style="italic" font-size="20.00">¬b = a</text>
<polyline fill="none" stroke="black" points="186,-153 186,-183 "/>
<text text-anchor="middle" x="197.5" y="-163" font-family="Times,serif" font-style="italic" font-size="20.00"> </text>
</g>
<!-- n34&#45;&gt;n34e0 -->
<g id="edge3" class="edge">
<title>n34&#45;&gt;n34e0</title>
<path fill="none" stroke="black" d="M204.55,-223.79C195.06,-213.41 181.69,-198.77 171.16,-187.24"/>
<polygon fill="black" stroke="black" points="172.37,-185.97 167.71,-183.46 169.79,-188.33 172.37,-185.97"/>
</g>
<!-- n34e1 -->
<g id="node10" class="node">
<title>n34e1</title>
<polygon fill="white" stroke="black" points="227,-153 227,-183 332,-183 332,-153 227,-153"/>
<text text-anchor="middle" x="262" y="-163" font-family="Times,serif" font-style="italic" font-size="20.00">b = a</text>
<polyline fill="none" stroke="black" points="297,-153 297,-183 "/>
<text text-anchor="middle" x="314.5" y="-163" font-family="Times,serif" font-style="italic" font-size="20.00">⊥</text>
</g>
<!-- n34&#45;&gt;n34e1 -->
<g id="edge5" class="edge">
<title>n34&#45;&gt;n34e1</title>
<path fill="none" stroke="black" d="M228.65,-223.79C238.28,-213.41 251.87,-198.77 262.57,-187.24"/>
<polygon fill="black" stroke="black" points="263.96,-188.31 266.08,-183.46 261.4,-185.93 263.96,-188.31"/>
</g>
<!-- n35 -->
<g id="node3" class="node">
<title>n35</title>
<ellipse fill="#f2f2f2" stroke="black" cx="243.5" cy="-377.65" rx="18.27" ry="18.27"/>
<text text-anchor="middle" x="243.5" y="-373.95" font-family="Times,serif" font-size="14.00">7</text>
</g>
<!-- n35e0 -->
<g id="node11" class="node">
<title>n35e0</title>
<polygon fill="white" stroke="black" points="117.5,-292.77 117.5,-322.77 227.5,-322.77 227.5,-292.77 117.5,-292.77"/>
<text text-anchor="middle" x="161" y="-302.77" font-family="Times,serif" font-style="italic" font-size="20.00">b &lt;= 8</text>
<polyline fill="none" stroke="black" points="204.5,-292.77 204.5,-322.77 "/>
<text text-anchor="middle" x="216" y="-302.77" font-family="Times,serif" font-style="italic" font-size="20.00"> </text>
</g>
<!-- n35&#45;&gt;n35e0 -->
<g id="edge6" class="edge">
<title>n35&#45;&gt;n35e0</title>
<path fill="none" stroke="black" d="M230.48,-364.2C219.45,-353.66 203.5,-338.41 191.12,-326.57"/>
<polygon fill="black" stroke="black" points="192.23,-325.21 187.41,-323.02 189.81,-327.74 192.23,-325.21"/>
</g>
<!-- n35e1 -->
<g id="node12" class="node">
<title>n35e1</title>
<polygon fill="white" stroke="black" points="246,-292.77 246,-322.77 385,-322.77 385,-292.77 246,-292.77"/>
<text text-anchor="middle" x="298" y="-302.77" font-family="Times,serif" font-style="italic" font-size="20.00">¬b &lt;= 8</text>
<polyline fill="none" stroke="black" points="350,-292.77 350,-322.77 "/>
<text text-anchor="middle" x="367.5" y="-302.77" font-family="Times,serif" font-style="italic" font-size="20.00">⊥</text>
</g>
<!-- n35&#45;&gt;n35e1 -->
<g id="edge8" class="edge">
<title>n35&#45;&gt;n35e1</title>
<path fill="none" stroke="black" d="M256.37,-364.52C267.59,-353.94 284,-338.47 296.69,-326.5"/>
<polygon fill="black" stroke="black" points="298.06,-327.61 300.5,-322.91 295.66,-325.07 298.06,-327.61"/>
</g>
<!-- n36 -->
<g id="node4" class="node">
<title>n36</title>
<ellipse fill="#f2f2f2" stroke="black" cx="270.5" cy="-517.42" rx="18.27" ry="18.27"/>
<text text-anchor="middle" x="270.5" y="-513.72" font-family="Times,serif" font-size="14.00">5</text>
</g>
<!-- n36e0 -->
<g id="node13" class="node">
<title>n36e0</title>
<polygon fill="white" stroke="black" points="144.5,-432.54 144.5,-462.54 254.5,-462.54 254.5,-432.54 144.5,-432.54"/>
<text text-anchor="middle" x="188" y="-442.54" font-family="Times,serif" font-style="italic" font-size="20.00">1 &lt;= b</text>
<polyline fill="none" stroke="black" points="231.5,-432.54 231.5,-462.54 "/>
<text text-anchor="middle" x="243" y="-442.54" font-family="Times,serif" font-style="italic" font-size="20.00"> </text>
</g>
<!-- n36&#45;&gt;n36e0 -->
<g id="edge9" class="edge">
<title>n36&#45;&gt;n36e0</title>
<path fill="none" stroke="black" d="M257.48,-503.97C246.45,-493.42 230.5,-478.18 218.12,-466.34"/>
<polygon fill="black" stroke="black" points="219.23,-464.98 214.41,-462.79 216.81,-467.51 219.23,-464.98"/>
</g>
<!-- n36e1 -->
<g id="node14" class="node">
<title>n36e1</title>
<polygon fill="white" stroke="black" points="273,-432.54 273,-462.54 412,-462.54 412,-432.54 273,-432.54"/>
<text text-anchor="middle" x="325" y="-442.54" font-family="Times,serif" font-style="italic" font-size="20.00">¬1 &lt;= b</text>
<polyline fill="none" stroke="black" points="377,-432.54 377,-462.54 "/>
<text text-anchor="middle" x="394.5" y="-442.54" font-family="Times,serif" font-style="italic" font-size="20.00">⊥</text>
</g>
<!-- n36&#45;&gt;n36e1 -->
<g id="edge11" class="edge">
<title>n36&#45;&gt;n36e1</title>
<path fill="none" stroke="black" d="M283.37,-504.28C294.59,-493.71 311,-478.24 323.69,-466.27"/>
<polygon fill="black" stroke="black" points="325.06,-467.38 327.5,-462.68 322.66,-464.84 325.06,-467.38"/>
</g>
<!-- n37 -->
<g id="node5" class="node">
<title>n37</title>
<ellipse fill="#f2f2f2" stroke="black" cx="298.5" cy="-657.19" rx="18.27" ry="18.27"/>
<text text-anchor="middle" x="298.5" y="-653.49" font-family="Times,serif" font-size="14.00">3</text>
</g>
<!-- n37e0 -->
<g id="node15" class="node">
<title>n37e0</title>
<polygon fill="white" stroke="black" points="173,-572.31 173,-602.31 282,-602.31 282,-572.31 173,-572.31"/>
<text text-anchor="middle" x="216" y="-582.31" font-family="Times,serif" font-style="italic" font-size="20.00">a &lt;= 8</text>
<polyline fill="none" stroke="black" points="259,-572.31 259,-602.31 "/>
<text text-anchor="middle" x="270.5" y="-582.31" font-family="Times,serif" font-style="italic" font-size="20.00"> </text>
</g>
<!-- n37&#45;&gt;n37e0 -->
<g id="edge12" class="edge">
<title>n37&#45;&gt;n37e0</title>
<path fill="none" stroke="black" d="M285.48,-643.74C274.45,-633.19 258.5,-617.95 246.12,-606.11"/>
<polygon fill="black" stroke="black" points="247.23,-604.75 242.41,-602.56 244.81,-607.28 247.23,-604.75"/>
</g>
<!-- n37e1 -->
<g id="node16" class="node">
<title>n37e1</title>
<polygon fill="white" stroke="black" points="300.5,-572.31 300.5,-602.31 438.5,-602.31 438.5,-572.31 300.5,-572.31"/>
<text text-anchor="middle" x="352" y="-582.31" font-family="Times,serif" font-style="italic" font-size="20.00">¬a &lt;= 8</text>
<polyline fill="none" stroke="black" points="403.5,-572.31 403.5,-602.31 "/>
<text text-anchor="middle" x="421" y="-582.31" font-family="Times,serif" font-style="italic" font-size="20.00">⊥</text>
</g>
<!-- n37&#45;&gt;n37e1 -->
<g id="edge14" class="edge">
<title>n37&#45;&gt;n37e1</title>
<path fill="none" stroke="black" d="M311.52,-643.74C322.55,-633.19 338.5,-617.95 350.88,-606.11"/>
<polygon fill="black" stroke="black" points="352.19,-607.28 354.59,-602.56 349.77,-604.75 352.19,-607.28"/>
</g>
<!-- n38 -->
<g id="node6" class="node">
<title>n38</title>
<ellipse fill="#f2f2f2" stroke="black" cx="326.5" cy="-796.96" rx="18.27" ry="18.27"/>
<text text-anchor="middle" x="326.5" y="-793.26" font-family="Times,serif" font-size="14.00">1</text>
</g>
<!-- n38e0 -->
<g id="node17" class="node">
<title>n38e0</title>
<polygon fill="white" stroke="black" points="201,-712.08 201,-742.08 310,-742.08 310,-712.08 201,-712.08"/>
<text text-anchor="middle" x="244" y="-722.08" font-family="Times,serif" font-style="italic" font-size="20.00">1 &lt;= a</text>
<polyline fill="none" stroke="black" points="287,-712.08 287,-742.08 "/>
<text text-anchor="middle" x="298.5" y="-722.08" font-family="Times,serif" font-style="italic" font-size="20.00"> </text>
</g>
<!-- n38&#45;&gt;n38e0 -->
<g id="edge15" class="edge">
<title>n38&#45;&gt;n38e0</title>
<path fill="none" stroke="black" d="M313.48,-783.51C302.45,-772.96 286.5,-757.72 274.12,-745.88"/>
<polygon fill="black" stroke="black" points="275.23,-744.52 270.41,-742.33 272.81,-747.05 275.23,-744.52"/>
</g>
<!-- n38e1 -->
<g id="node18" class="node">
<title>n38e1</title>
<polygon fill="white" stroke="black" points="328.5,-712.08 328.5,-742.08 466.5,-742.08 466.5,-712.08 328.5,-712.08"/>
<text text-anchor="middle" x="380" y="-722.08" font-family="Times,serif" font-style="italic" font-size="20.00">¬1 &lt;= a</text>
<polyline fill="none" stroke="black" points="431.5,-712.08 431.5,-742.08 "/>
<text text-anchor="middle" x="449" y="-722.08" font-family="Times,serif" font-style="italic" font-size="20.00">⊥</text>
</g>
<!-- n38&#45;&gt;n38e1 -->
<g id="edge17" class="edge">
<title>n38&#45;&gt;n38e1</title>
<path fill="none" stroke="black" d="M339.52,-783.51C350.55,-772.96 366.5,-757.72 378.88,-745.88"/>
<polygon fill="black" stroke="black" points="380.19,-747.05 382.59,-742.33 377.77,-744.52 380.19,-747.05"/>
</g>
<!-- n34e0&#45;&gt;n33 -->
<g id="edge4" class="edge">
<title>n34e0:c&#45;&gt;n33</title>
<path fill="none" stroke="black" d="M197.5,-163.9C197.5,-155.95 197.5,-137.84 197.5,-121.87"/>
<ellipse fill="black" stroke="black" cx="197.5" cy="-166" rx="2" ry="2"/>
<polygon fill="black" stroke="black" points="199.25,-121.56 197.5,-116.56 195.75,-121.56 199.25,-121.56"/>
</g>
<!-- n35e0&#45;&gt;n34 -->
<g id="edge7" class="edge">
<title>n35e0:c&#45;&gt;n34</title>
<path fill="none" stroke="black" d="M216.5,-303.51C216.5,-295.37 216.5,-277.06 216.5,-262"/>
<ellipse fill="black" stroke="black" cx="216.5" cy="-305.77" rx="2" ry="2"/>
<polygon fill="black" stroke="black" points="218.25,-261.62 216.5,-256.62 214.75,-261.62 218.25,-261.62"/>
</g>
<!-- n36e0&#45;&gt;n35 -->
<g id="edge10" class="edge">
<title>n36e0:c&#45;&gt;n35</title>
<path fill="none" stroke="black" d="M243.5,-443.28C243.5,-435.14 243.5,-416.83 243.5,-401.77"/>
<ellipse fill="black" stroke="black" cx="243.5" cy="-445.54" rx="2" ry="2"/>
<polygon fill="black" stroke="black" points="245.25,-401.39 243.5,-396.39 241.75,-401.39 245.25,-401.39"/>
</g>
<!-- n37e0&#45;&gt;n36 -->
<g id="edge13" class="edge">
<title>n37e0:c&#45;&gt;n36</title>
<path fill="none" stroke="black" d="M270.5,-583.05C270.5,-574.91 270.5,-556.6 270.5,-541.54"/>
<ellipse fill="black" stroke="black" cx="270.5" cy="-585.31" rx="2" ry="2"/>
<polygon fill="black" stroke="black" points="272.25,-541.16 270.5,-536.16 268.75,-541.16 272.25,-541.16"/>
</g>
<!-- n38e0&#45;&gt;n37 -->
<g id="edge16" class="edge">
<title>n38e0:c&#45;&gt;n37</title>
<path fill="none" stroke="black" d="M298.5,-722.82C298.5,-714.68 298.5,-696.37 298.5,-681.31"/>
<ellipse fill="black" stroke="black" cx="298.5" cy="-725.08" rx="2" ry="2"/>
<polygon fill="black" stroke="black" points="300.25,-680.93 298.5,-675.93 296.75,-680.93 300.25,-680.93"/>
</g>
</g>
</svg>
