<?xml version="1.0" encoding="UTF-8" standalone="no"?>
<!DOCTYPE svg PUBLIC "-//W3C//DTD SVG 1.1//EN"
 "http://www.w3.org/Graphics/SVG/1.1/DTD/svg11.dtd">
<!-- Generated by graphviz version 2.43.0 (0)
 -->
<!-- Title: sdd Pages: 1 -->
<svg width="250pt" height="631pt"
 viewBox="0.00 0.00 250.00 630.85" xmlns="http://www.w3.org/2000/svg" xmlns:xlink="http://www.w3.org/1999/xlink">
<g id="graph0" class="graph" transform="scale(1 1) rotate(0) translate(4 626.85)">
<title>sdd</title>
<polygon fill="white" stroke="transparent" points="-4,4 -4,-626.85 246,-626.85 246,4 -4,4"/>
<!-- n20 -->
<g id="node1" class="node">
<title>n20</title>
<ellipse fill="#f2f2f2" stroke="black" cx="104.5" cy="-77.38" rx="18.27" ry="18.27"/>
<text text-anchor="middle" x="104.5" y="-73.68" font-family="Times,serif" font-size="14.00">9</text>
</g>
<!-- n20e0 -->
<g id="node8" class="node">
<title>n20e0</title>
<polygon fill="white" stroke="black" points="49,-0.5 49,-22.5 96,-22.5 96,-0.5 49,-0.5"/>
<text text-anchor="middle" x="57" y="-6.5" font-family="Times,serif" font-style="italic" font-size="20.00">E</text>
<polyline fill="none" stroke="black" points="65,-0.5 65,-22.5 "/>
<text text-anchor="middle" x="80.5" y="-6.5" font-family="Times,serif" font-style="italic" font-size="20.00">¬F</text>
</g>
<!-- n20&#45;&gt;n20e0 -->
<g id="edge1" class="edge">
<title>n20&#45;&gt;n20e0</title>
<path fill="none" stroke="black" d="M96.59,-60.59C91.5,-50.43 84.93,-37.31 79.93,-27.34"/>
<polygon fill="black" stroke="black" points="81.43,-26.42 77.62,-22.73 78.3,-27.98 81.43,-26.42"/>
</g>
<!-- n20e1 -->
<g id="node9" class="node">
<title>n20e1</title>
<polygon fill="white" stroke="black" points="114,-0.5 114,-22.5 161,-22.5 161,-0.5 114,-0.5"/>
<text text-anchor="middle" x="130" y="-6.5" font-family="Times,serif" font-style="italic" font-size="20.00">¬E</text>
<polyline fill="none" stroke="black" points="146,-0.5 146,-22.5 "/>
<text text-anchor="middle" x="153.5" y="-6.5" font-family="Times,serif" font-style="italic" font-size="20.00">F</text>
</g>
<!-- n20&#45;&gt;n20e1 -->
<g id="edge2" class="edge">
<title>n20&#45;&gt;n20e1</title>
<path fill="none" stroke="black" d="M112.66,-60.59C117.91,-50.43 124.68,-37.31 129.83,-27.34"/>
<polygon fill="black" stroke="black" points="131.48,-27.97 132.22,-22.73 128.37,-26.37 131.48,-27.97"/>
</g>
<!-- n31 -->
<g id="node2" class="node">
<title>n31</title>
<ellipse fill="#f2f2f2" stroke="black" cx="88.5" cy="-209.15" rx="18.27" ry="18.27"/>
<text text-anchor="middle" x="88.5" y="-205.45" font-family="Times,serif" font-size="14.00">7</text>
</g>
<!-- n31e0 -->
<g id="node10" class="node">
<title>n31e0</title>
<polygon fill="white" stroke="black" points="0,-132.27 0,-154.27 47,-154.27 47,-132.27 0,-132.27"/>
<text text-anchor="middle" x="14" y="-138.27" font-family="Times,serif" font-style="italic" font-size="20.00">D</text>
<polyline fill="none" stroke="black" points="28,-132.27 28,-154.27 "/>
<text text-anchor="middle" x="37.5" y="-138.27" font-family="Times,serif" font-style="italic" font-size="20.00"> </text>
</g>
<!-- n31&#45;&gt;n31e0 -->
<g id="edge3" class="edge">
<title>n31&#45;&gt;n31e0</title>
<path fill="none" stroke="black" d="M75.66,-195.53C64.62,-184.69 48.74,-169.08 37.41,-157.94"/>
<polygon fill="black" stroke="black" points="38.55,-156.6 33.75,-154.35 36.09,-159.1 38.55,-156.6"/>
</g>
<!-- n31e1 -->
<g id="node11" class="node">
<title>n31e1</title>
<polygon fill="white" stroke="black" points="65,-132.27 65,-154.27 112,-154.27 112,-132.27 65,-132.27"/>
<text text-anchor="middle" x="80.5" y="-138.27" font-family="Times,serif" font-style="italic" font-size="20.00">¬D</text>
<polyline fill="none" stroke="black" points="96,-132.27 96,-154.27 "/>
<text text-anchor="middle" x="104" y="-138.27" font-family="Times,serif" font-style="italic" font-size="20.00">⊥</text>
</g>
<!-- n31&#45;&gt;n31e1 -->
<g id="edge5" class="edge">
<title>n31&#45;&gt;n31e1</title>
<path fill="none" stroke="black" d="M88.5,-190.7C88.5,-180.94 88.5,-168.89 88.5,-159.51"/>
<polygon fill="black" stroke="black" points="90.25,-159.34 88.5,-154.34 86.75,-159.34 90.25,-159.34"/>
</g>
<!-- n25 -->
<g id="node3" class="node">
<title>n25</title>
<ellipse fill="#f2f2f2" stroke="black" cx="153.5" cy="-209.15" rx="18.27" ry="18.27"/>
<text text-anchor="middle" x="153.5" y="-205.45" font-family="Times,serif" font-size="14.00">7</text>
</g>
<!-- n25e0 -->
<g id="node12" class="node">
<title>n25e0</title>
<polygon fill="white" stroke="black" points="130,-132.27 130,-154.27 177,-154.27 177,-132.27 130,-132.27"/>
<text text-anchor="middle" x="148.5" y="-138.27" font-family="Times,serif" font-style="italic" font-size="20.00">¬D</text>
<polyline fill="none" stroke="black" points="167,-132.27 167,-154.27 "/>
<text text-anchor="middle" x="172" y="-138.27" font-family="Times,serif" font-style="italic" font-size="20.00"> </text>
</g>
<!-- n25&#45;&gt;n25e0 -->
<g id="edge6" class="edge">
<title>n25&#45;&gt;n25e0</title>
<path fill="none" stroke="black" d="M153.5,-190.7C153.5,-180.94 153.5,-168.89 153.5,-159.51"/>
<polygon fill="black" stroke="black" points="155.25,-159.34 153.5,-154.34 151.75,-159.34 155.25,-159.34"/>
</g>
<!-- n25e1 -->
<g id="node13" class="node">
<title>n25e1</title>
<polygon fill="white" stroke="black" points="195,-132.27 195,-154.27 242,-154.27 242,-132.27 195,-132.27"/>
<text text-anchor="middle" x="206" y="-138.27" font-family="Times,serif" font-style="italic" font-size="20.00">D</text>
<polyline fill="none" stroke="black" points="217,-132.27 217,-154.27 "/>
<text text-anchor="middle" x="229.5" y="-138.27" font-family="Times,serif" font-style="italic" font-size="20.00">⊥</text>
</g>
<!-- n25&#45;&gt;n25e1 -->
<g id="edge8" class="edge">
<title>n25&#45;&gt;n25e1</title>
<path fill="none" stroke="black" d="M166.34,-195.53C177.38,-184.69 193.26,-169.08 204.59,-157.94"/>
<polygon fill="black" stroke="black" points="205.91,-159.1 208.25,-154.35 203.45,-156.6 205.91,-159.1"/>
</g>
<!-- n32 -->
<g id="node4" class="node">
<title>n32</title>
<ellipse fill="#f2f2f2" stroke="black" cx="104.5" cy="-340.92" rx="18.27" ry="18.27"/>
<text text-anchor="middle" x="104.5" y="-337.22" font-family="Times,serif" font-size="14.00">5</text>
</g>
<!-- n32e0 -->
<g id="node14" class="node">
<title>n32e0</title>
<polygon fill="white" stroke="black" points="48,-264.04 48,-286.04 95,-286.04 95,-264.04 48,-264.04"/>
<text text-anchor="middle" x="66" y="-270.04" font-family="Times,serif" font-style="italic" font-size="20.00">¬C</text>
<polyline fill="none" stroke="black" points="84,-264.04 84,-286.04 "/>
<text text-anchor="middle" x="89.5" y="-270.04" font-family="Times,serif" font-style="italic" font-size="20.00"> </text>
</g>
<!-- n32&#45;&gt;n32e0 -->
<g id="edge9" class="edge">
<title>n32&#45;&gt;n32e0</title>
<path fill="none" stroke="black" d="M96.34,-324.13C91.09,-313.97 84.32,-300.85 79.17,-290.88"/>
<polygon fill="black" stroke="black" points="80.63,-289.91 76.78,-286.27 77.52,-291.51 80.63,-289.91"/>
</g>
<!-- n32e1 -->
<g id="node15" class="node">
<title>n32e1</title>
<polygon fill="white" stroke="black" points="115,-264.04 115,-286.04 162,-286.04 162,-264.04 115,-264.04"/>
<text text-anchor="middle" x="129" y="-270.04" font-family="Times,serif" font-style="italic" font-size="20.00">C</text>
<polyline fill="none" stroke="black" points="143,-264.04 143,-286.04 "/>
<text text-anchor="middle" x="152.5" y="-270.04" font-family="Times,serif" font-style="italic" font-size="20.00"> </text>
</g>
<!-- n32&#45;&gt;n32e1 -->
<g id="edge11" class="edge">
<title>n32&#45;&gt;n32e1</title>
<path fill="none" stroke="black" d="M112.73,-324.46C118.14,-314.3 125.17,-301.09 130.52,-291.03"/>
<polygon fill="black" stroke="black" points="132.2,-291.61 133,-286.37 129.11,-289.97 132.2,-291.61"/>
</g>
<!-- n34 -->
<g id="node5" class="node">
<title>n34</title>
<ellipse fill="#f2f2f2" stroke="black" cx="86.5" cy="-472.69" rx="18.27" ry="18.27"/>
<text text-anchor="middle" x="86.5" y="-468.99" font-family="Times,serif" font-size="14.00">3</text>
</g>
<!-- n34e0 -->
<g id="node16" class="node">
<title>n34e0</title>
<polygon fill="white" stroke="black" points="0,-395.81 0,-417.81 47,-417.81 47,-395.81 0,-395.81"/>
<text text-anchor="middle" x="18" y="-401.81" font-family="Times,serif" font-style="italic" font-size="20.00">¬B</text>
<polyline fill="none" stroke="black" points="36,-395.81 36,-417.81 "/>
<text text-anchor="middle" x="41.5" y="-401.81" font-family="Times,serif" font-style="italic" font-size="20.00"> </text>
</g>
<!-- n34&#45;&gt;n34e0 -->
<g id="edge13" class="edge">
<title>n34&#45;&gt;n34e0</title>
<path fill="none" stroke="black" d="M74.05,-459.07C63.36,-448.23 47.97,-432.62 36.98,-421.48"/>
<polygon fill="black" stroke="black" points="38.19,-420.22 33.44,-417.89 35.7,-422.67 38.19,-420.22"/>
</g>
<!-- n34e1 -->
<g id="node17" class="node">
<title>n34e1</title>
<polygon fill="white" stroke="black" points="65,-395.81 65,-417.81 112,-417.81 112,-395.81 65,-395.81"/>
<text text-anchor="middle" x="76" y="-401.81" font-family="Times,serif" font-style="italic" font-size="20.00">B</text>
<polyline fill="none" stroke="black" points="87,-395.81 87,-417.81 "/>
<text text-anchor="middle" x="99.5" y="-401.81" font-family="Times,serif" font-style="italic" font-size="20.00">⊥</text>
</g>
<!-- n34&#45;&gt;n34e1 -->
<g id="edge15" class="edge">
<title>n34&#45;&gt;n34e1</title>
<path fill="none" stroke="black" d="M87.05,-454.24C87.35,-444.48 87.73,-432.43 88.02,-423.05"/>
<polygon fill="black" stroke="black" points="89.78,-422.93 88.18,-417.88 86.28,-422.82 89.78,-422.93"/>
</g>
<!-- n33 -->
<g id="node6" class="node">
<title>n33</title>
<ellipse fill="#f2f2f2" stroke="black" cx="155.5" cy="-472.69" rx="18.27" ry="18.27"/>
<text text-anchor="middle" x="155.5" y="-468.99" font-family="Times,serif" font-size="14.00">3</text>
</g>
<!-- n33e0 -->
<g id="node18" class="node">
<title>n33e0</title>
<polygon fill="white" stroke="black" points="130,-395.81 130,-417.81 177,-417.81 177,-395.81 130,-395.81"/>
<text text-anchor="middle" x="144" y="-401.81" font-family="Times,serif" font-style="italic" font-size="20.00">B</text>
<polyline fill="none" stroke="black" points="158,-395.81 158,-417.81 "/>
<text text-anchor="middle" x="167.5" y="-401.81" font-family="Times,serif" font-style="italic" font-size="20.00"> </text>
</g>
<!-- n33&#45;&gt;n33e0 -->
<g id="edge16" class="edge">
<title>n33&#45;&gt;n33e0</title>
<path fill="none" stroke="black" d="M154.95,-454.24C154.65,-444.48 154.27,-432.43 153.98,-423.05"/>
<polygon fill="black" stroke="black" points="155.72,-422.82 153.82,-417.88 152.22,-422.93 155.72,-422.82"/>
</g>
<!-- n33e1 -->
<g id="node19" class="node">
<title>n33e1</title>
<polygon fill="white" stroke="black" points="195,-395.81 195,-417.81 242,-417.81 242,-395.81 195,-395.81"/>
<text text-anchor="middle" x="210" y="-401.81" font-family="Times,serif" font-style="italic" font-size="20.00">¬B</text>
<polyline fill="none" stroke="black" points="225,-395.81 225,-417.81 "/>
<text text-anchor="middle" x="233.5" y="-401.81" font-family="Times,serif" font-style="italic" font-size="20.00">⊥</text>
</g>
<!-- n33&#45;&gt;n33e1 -->
<g id="edge18" class="edge">
<title>n33&#45;&gt;n33e1</title>
<path fill="none" stroke="black" d="M167.95,-459.07C178.64,-448.23 194.03,-432.62 205.02,-421.48"/>
<polygon fill="black" stroke="black" points="206.3,-422.67 208.56,-417.89 203.81,-420.22 206.3,-422.67"/>
</g>
<!-- n35 -->
<g id="node7" class="node">
<title>n35</title>
<ellipse fill="#f2f2f2" stroke="black" cx="104.5" cy="-604.46" rx="18.27" ry="18.27"/>
<text text-anchor="middle" x="104.5" y="-600.76" font-family="Times,serif" font-size="14.00">1</text>
</g>
<!-- n35e0 -->
<g id="node20" class="node">
<title>n35e0</title>
<polygon fill="white" stroke="black" points="49,-527.58 49,-549.58 96,-549.58 96,-527.58 49,-527.58"/>
<text text-anchor="middle" x="63" y="-533.58" font-family="Times,serif" font-style="italic" font-size="20.00">A</text>
<polyline fill="none" stroke="black" points="77,-527.58 77,-549.58 "/>
<text text-anchor="middle" x="86.5" y="-533.58" font-family="Times,serif" font-style="italic" font-size="20.00"> </text>
</g>
<!-- n35&#45;&gt;n35e0 -->
<g id="edge19" class="edge">
<title>n35&#45;&gt;n35e0</title>
<path fill="none" stroke="black" d="M96.59,-587.67C91.5,-577.51 84.93,-564.39 79.93,-554.42"/>
<polygon fill="black" stroke="black" points="81.43,-553.49 77.62,-549.81 78.3,-555.06 81.43,-553.49"/>
</g>
<!-- n35e1 -->
<g id="node21" class="node">
<title>n35e1</title>
<polygon fill="white" stroke="black" points="114,-527.58 114,-549.58 161,-549.58 161,-527.58 114,-527.58"/>
<text text-anchor="middle" x="132" y="-533.58" font-family="Times,serif" font-style="italic" font-size="20.00">¬A</text>
<polyline fill="none" stroke="black" points="150,-527.58 150,-549.58 "/>
<text text-anchor="middle" x="155.5" y="-533.58" font-family="Times,serif" font-style="italic" font-size="20.00"> </text>
</g>
<!-- n35&#45;&gt;n35e1 -->
<g id="edge21" class="edge">
<title>n35&#45;&gt;n35e1</title>
<path fill="none" stroke="black" d="M112.66,-587.67C117.91,-577.51 124.68,-564.39 129.83,-554.42"/>
<polygon fill="black" stroke="black" points="131.48,-555.05 132.22,-549.81 128.37,-553.45 131.48,-555.05"/>
</g>
<!-- n31e0&#45;&gt;n20 -->
<g id="edge4" class="edge">
<title>n31e0:c&#45;&gt;n20</title>
<path fill="none" stroke="black" d="M40.04,-139.73C41.77,-137.39 44.16,-134.3 46.5,-131.77 59.18,-118.04 74.83,-103.76 86.68,-93.44"/>
<ellipse fill="black" stroke="black" cx="38.66" cy="-141.64" rx="2" ry="2"/>
<polygon fill="black" stroke="black" points="87.91,-94.69 90.55,-90.09 85.62,-92.04 87.91,-94.69"/>
</g>
<!-- n25e0&#45;&gt;n20 -->
<g id="edge7" class="edge">
<title>n25e0:c&#45;&gt;n20</title>
<path fill="none" stroke="black" d="M170.84,-139.21C169.79,-136.9 168.29,-134.03 166.5,-131.77 154.13,-116.17 136.72,-101.65 123.5,-91.7"/>
<ellipse fill="black" stroke="black" cx="171.74" cy="-141.42" rx="2" ry="2"/>
<polygon fill="black" stroke="black" points="124.25,-90.08 119.19,-88.51 122.16,-92.89 124.25,-90.08"/>
</g>
<!-- n32e0&#45;&gt;n31 -->
<g id="edge10" class="edge">
<title>n32e0:c&#45;&gt;n31</title>
<path fill="none" stroke="black" d="M89.44,-270.86C89.32,-263.29 89.06,-246.79 88.85,-232.91"/>
<ellipse fill="black" stroke="black" cx="89.47" cy="-273.04" rx="2" ry="2"/>
<polygon fill="black" stroke="black" points="90.59,-232.51 88.77,-227.54 87.1,-232.57 90.59,-232.51"/>
</g>
<!-- n32e1&#45;&gt;n25 -->
<g id="edge12" class="edge">
<title>n32e1:c&#45;&gt;n25</title>
<path fill="none" stroke="black" d="M152.56,-270.86C152.68,-263.29 152.94,-246.79 153.15,-232.91"/>
<ellipse fill="black" stroke="black" cx="152.53" cy="-273.04" rx="2" ry="2"/>
<polygon fill="black" stroke="black" points="154.9,-232.57 153.23,-227.54 151.41,-232.51 154.9,-232.57"/>
</g>
<!-- n34e0&#45;&gt;n32 -->
<g id="edge14" class="edge">
<title>n34e0:c&#45;&gt;n32</title>
<path fill="none" stroke="black" d="M42.79,-402.76C43.63,-400.45 44.88,-397.58 46.5,-395.31 57.48,-379.88 73.53,-365.54 85.97,-355.61"/>
<ellipse fill="black" stroke="black" cx="42.11" cy="-404.9" rx="2" ry="2"/>
<polygon fill="black" stroke="black" points="87.18,-356.88 90.03,-352.42 85.02,-354.13 87.18,-356.88"/>
</g>
<!-- n33e0&#45;&gt;n32 -->
<g id="edge17" class="edge">
<title>n33e0:c&#45;&gt;n32</title>
<path fill="none" stroke="black" d="M164.92,-403.73C162.93,-401.39 160.09,-398.1 157.5,-395.31 145.62,-382.53 131.71,-368.55 121.12,-358.1"/>
<ellipse fill="black" stroke="black" cx="166.22" cy="-405.28" rx="2" ry="2"/>
<polygon fill="black" stroke="black" points="122.17,-356.68 117.38,-354.42 119.71,-359.18 122.17,-356.68"/>
</g>
<!-- n35e0&#45;&gt;n34 -->
<g id="edge20" class="edge">
<title>n35e0:c&#45;&gt;n34</title>
<path fill="none" stroke="black" d="M86.5,-534.4C86.5,-526.83 86.5,-510.33 86.5,-496.45"/>
<ellipse fill="black" stroke="black" cx="86.5" cy="-536.58" rx="2" ry="2"/>
<polygon fill="black" stroke="black" points="88.25,-496.08 86.5,-491.08 84.75,-496.08 88.25,-496.08"/>
</g>
<!-- n35e1&#45;&gt;n33 -->
<g id="edge22" class="edge">
<title>n35e1:c&#45;&gt;n33</title>
<path fill="none" stroke="black" d="M155.5,-534.4C155.5,-526.83 155.5,-510.33 155.5,-496.45"/>
<ellipse fill="black" stroke="black" cx="155.5" cy="-536.58" rx="2" ry="2"/>
<polygon fill="black" stroke="black" points="157.25,-496.08 155.5,-491.08 153.75,-496.08 157.25,-496.08"/>
</g>
</g>
</svg>
