<?xml version="1.0" encoding="UTF-8" standalone="no"?>
<!DOCTYPE svg PUBLIC "-//W3C//DTD SVG 1.1//EN"
 "http://www.w3.org/Graphics/SVG/1.1/DTD/svg11.dtd">
<!-- Generated by graphviz version 2.43.0 (0)
 -->
<!-- Title: sdd Pages: 1 -->
<svg width="160pt" height="631pt"
 viewBox="0.00 0.00 160.00 630.85" xmlns="http://www.w3.org/2000/svg" xmlns:xlink="http://www.w3.org/1999/xlink">
<g id="graph0" class="graph" transform="scale(1 1) rotate(0) translate(4 626.85)">
<title>sdd</title>
<polygon fill="white" stroke="transparent" points="-4,4 -4,-626.85 156,-626.85 156,4 -4,4"/>
<!-- n18 -->
<g id="node1" class="node">
<title>n18</title>
<ellipse fill="#f2f2f2" stroke="black" cx="88.5" cy="-77.38" rx="18.27" ry="18.27"/>
<text text-anchor="middle" x="88.5" y="-73.68" font-family="Times,serif" font-size="14.00">9</text>
</g>
<!-- n18e0 -->
<g id="node6" class="node">
<title>n18e0</title>
<polygon fill="white" stroke="black" points="33,-0.5 33,-22.5 80,-22.5 80,-0.5 33,-0.5"/>
<text text-anchor="middle" x="41" y="-6.5" font-family="Times,serif" font-style="italic" font-size="20.00">E</text>
<polyline fill="none" stroke="black" points="49,-0.5 49,-22.5 "/>
<text text-anchor="middle" x="64.5" y="-6.5" font-family="Times,serif" font-style="italic" font-size="20.00">¬F</text>
</g>
<!-- n18&#45;&gt;n18e0 -->
<g id="edge1" class="edge">
<title>n18&#45;&gt;n18e0</title>
<path fill="none" stroke="black" d="M80.59,-60.59C75.5,-50.43 68.93,-37.31 63.93,-27.34"/>
<polygon fill="black" stroke="black" points="65.43,-26.42 61.62,-22.73 62.3,-27.98 65.43,-26.42"/>
</g>
<!-- n18e1 -->
<g id="node7" class="node">
<title>n18e1</title>
<polygon fill="white" stroke="black" points="98,-0.5 98,-22.5 145,-22.5 145,-0.5 98,-0.5"/>
<text text-anchor="middle" x="114" y="-6.5" font-family="Times,serif" font-style="italic" font-size="20.00">¬E</text>
<polyline fill="none" stroke="black" points="130,-0.5 130,-22.5 "/>
<text text-anchor="middle" x="137.5" y="-6.5" font-family="Times,serif" font-style="italic" font-size="20.00">F</text>
</g>
<!-- n18&#45;&gt;n18e1 -->
<g id="edge2" class="edge">
<title>n18&#45;&gt;n18e1</title>
<path fill="none" stroke="black" d="M96.66,-60.59C101.91,-50.43 108.68,-37.31 113.83,-27.34"/>
<polygon fill="black" stroke="black" points="115.48,-27.97 116.22,-22.73 112.37,-26.37 115.48,-27.97"/>
</g>
<!-- n23 -->
<g id="node2" class="node">
<title>n23</title>
<ellipse fill="#f2f2f2" stroke="black" cx="66.5" cy="-209.15" rx="18.27" ry="18.27"/>
<text text-anchor="middle" x="66.5" y="-205.45" font-family="Times,serif" font-size="14.00">7</text>
</g>
<!-- n23e0 -->
<g id="node8" class="node">
<title>n23e0</title>
<polygon fill="white" stroke="black" points="0,-132.27 0,-154.27 47,-154.27 47,-132.27 0,-132.27"/>
<text text-anchor="middle" x="14" y="-138.27" font-family="Times,serif" font-style="italic" font-size="20.00">D</text>
<polyline fill="none" stroke="black" points="28,-132.27 28,-154.27 "/>
<text text-anchor="middle" x="37.5" y="-138.27" font-family="Times,serif" font-style="italic" font-size="20.00"> </text>
</g>
<!-- n23&#45;&gt;n23e0 -->
<g id="edge3" class="edge">
<title>n23&#45;&gt;n23e0</title>
<path fill="none" stroke="black" d="M56.53,-193.34C49.49,-182.89 40.12,-168.97 33.16,-158.62"/>
<polygon fill="black" stroke="black" points="34.58,-157.6 30.34,-154.43 31.68,-159.55 34.58,-157.6"/>
</g>
<!-- n23e1 -->
<g id="node9" class="node">
<title>n23e1</title>
<polygon fill="white" stroke="black" points="65,-132.27 65,-154.27 112,-154.27 112,-132.27 65,-132.27"/>
<text text-anchor="middle" x="80.5" y="-138.27" font-family="Times,serif" font-style="italic" font-size="20.00">¬D</text>
<polyline fill="none" stroke="black" points="96,-132.27 96,-154.27 "/>
<text text-anchor="middle" x="104" y="-138.27" font-family="Times,serif" font-style="italic" font-size="20.00">⊥</text>
</g>
<!-- n23&#45;&gt;n23e1 -->
<g id="edge5" class="edge">
<title>n23&#45;&gt;n23e1</title>
<path fill="none" stroke="black" d="M72.28,-191.37C75.71,-181.42 80.01,-168.92 83.33,-159.3"/>
<polygon fill="black" stroke="black" points="84.98,-159.85 84.96,-154.56 81.67,-158.71 84.98,-159.85"/>
</g>
<!-- n24 -->
<g id="node3" class="node">
<title>n24</title>
<ellipse fill="#f2f2f2" stroke="black" cx="90.5" cy="-340.92" rx="18.27" ry="18.27"/>
<text text-anchor="middle" x="90.5" y="-337.22" font-family="Times,serif" font-size="14.00">5</text>
</g>
<!-- n24e0 -->
<g id="node10" class="node">
<title>n24e0</title>
<polygon fill="white" stroke="black" points="38,-264.04 38,-286.04 85,-286.04 85,-264.04 38,-264.04"/>
<text text-anchor="middle" x="56" y="-270.04" font-family="Times,serif" font-style="italic" font-size="20.00">¬C</text>
<polyline fill="none" stroke="black" points="74,-264.04 74,-286.04 "/>
<text text-anchor="middle" x="79.5" y="-270.04" font-family="Times,serif" font-style="italic" font-size="20.00"> </text>
</g>
<!-- n24&#45;&gt;n24e0 -->
<g id="edge6" class="edge">
<title>n24&#45;&gt;n24e0</title>
<path fill="none" stroke="black" d="M83.18,-323.8C78.57,-313.64 72.66,-300.61 68.17,-290.73"/>
<polygon fill="black" stroke="black" points="69.76,-289.99 66.1,-286.16 66.57,-291.44 69.76,-289.99"/>
</g>
<!-- n24e1 -->
<g id="node11" class="node">
<title>n24e1</title>
<polygon fill="white" stroke="black" points="103,-198.15 103,-220.15 150,-220.15 150,-198.15 103,-198.15"/>
<text text-anchor="middle" x="117" y="-204.15" font-family="Times,serif" font-style="italic" font-size="20.00">C</text>
<polyline fill="none" stroke="black" points="131,-198.15 131,-220.15 "/>
<text text-anchor="middle" x="140.5" y="-204.15" font-family="Times,serif" font-style="italic" font-size="20.00"> </text>
</g>
<!-- n24&#45;&gt;n24e1 -->
<g id="edge8" class="edge">
<title>n24&#45;&gt;n24e1</title>
<path fill="none" stroke="black" d="M95.21,-322.96C102.29,-297.43 115.57,-249.54 122.33,-225.2"/>
<polygon fill="black" stroke="black" points="124.01,-225.66 123.66,-220.37 120.64,-224.72 124.01,-225.66"/>
</g>
<!-- n25 -->
<g id="node4" class="node">
<title>n25</title>
<ellipse fill="#f2f2f2" stroke="black" cx="68.5" cy="-472.69" rx="18.27" ry="18.27"/>
<text text-anchor="middle" x="68.5" y="-468.99" font-family="Times,serif" font-size="14.00">3</text>
</g>
<!-- n25e0 -->
<g id="node12" class="node">
<title>n25e0</title>
<polygon fill="white" stroke="black" points="2,-395.81 2,-417.81 49,-417.81 49,-395.81 2,-395.81"/>
<text text-anchor="middle" x="16" y="-401.81" font-family="Times,serif" font-style="italic" font-size="20.00">B</text>
<polyline fill="none" stroke="black" points="30,-395.81 30,-417.81 "/>
<text text-anchor="middle" x="39.5" y="-401.81" font-family="Times,serif" font-style="italic" font-size="20.00"> </text>
</g>
<!-- n25&#45;&gt;n25e0 -->
<g id="edge10" class="edge">
<title>n25&#45;&gt;n25e0</title>
<path fill="none" stroke="black" d="M58.53,-456.88C51.49,-446.43 42.12,-432.51 35.16,-422.16"/>
<polygon fill="black" stroke="black" points="36.58,-421.14 32.34,-417.97 33.68,-423.09 36.58,-421.14"/>
</g>
<!-- n25e1 -->
<g id="node13" class="node">
<title>n25e1</title>
<polygon fill="white" stroke="black" points="67,-395.81 67,-417.81 114,-417.81 114,-395.81 67,-395.81"/>
<text text-anchor="middle" x="82" y="-401.81" font-family="Times,serif" font-style="italic" font-size="20.00">¬B</text>
<polyline fill="none" stroke="black" points="97,-395.81 97,-417.81 "/>
<text text-anchor="middle" x="105.5" y="-401.81" font-family="Times,serif" font-style="italic" font-size="20.00">⊥</text>
</g>
<!-- n25&#45;&gt;n25e1 -->
<g id="edge12" class="edge">
<title>n25&#45;&gt;n25e1</title>
<path fill="none" stroke="black" d="M74.28,-454.91C77.71,-444.96 82.01,-432.46 85.33,-422.84"/>
<polygon fill="black" stroke="black" points="86.98,-423.39 86.96,-418.1 83.67,-422.25 86.98,-423.39"/>
</g>
<!-- n26 -->
<g id="node5" class="node">
<title>n26</title>
<ellipse fill="#f2f2f2" stroke="black" cx="89.5" cy="-604.46" rx="18.27" ry="18.27"/>
<text text-anchor="middle" x="89.5" y="-600.76" font-family="Times,serif" font-size="14.00">1</text>
</g>
<!-- n26e0 -->
<g id="node14" class="node">
<title>n26e0</title>
<polygon fill="white" stroke="black" points="40,-527.58 40,-549.58 87,-549.58 87,-527.58 40,-527.58"/>
<text text-anchor="middle" x="58" y="-533.58" font-family="Times,serif" font-style="italic" font-size="20.00">¬A</text>
<polyline fill="none" stroke="black" points="76,-527.58 76,-549.58 "/>
<text text-anchor="middle" x="81.5" y="-533.58" font-family="Times,serif" font-style="italic" font-size="20.00"> </text>
</g>
<!-- n26&#45;&gt;n26e0 -->
<g id="edge13" class="edge">
<title>n26&#45;&gt;n26e0</title>
<path fill="none" stroke="black" d="M82.8,-587.01C78.7,-576.94 73.5,-564.15 69.53,-554.39"/>
<polygon fill="black" stroke="black" points="71.08,-553.57 67.58,-549.6 67.84,-554.89 71.08,-553.57"/>
</g>
<!-- n26e1 -->
<g id="node15" class="node">
<title>n26e1</title>
<polygon fill="white" stroke="black" points="105,-461.69 105,-483.69 152,-483.69 152,-461.69 105,-461.69"/>
<text text-anchor="middle" x="119" y="-467.69" font-family="Times,serif" font-style="italic" font-size="20.00">A</text>
<polyline fill="none" stroke="black" points="133,-461.69 133,-483.69 "/>
<text text-anchor="middle" x="142.5" y="-467.69" font-family="Times,serif" font-style="italic" font-size="20.00"> </text>
</g>
<!-- n26&#45;&gt;n26e1 -->
<g id="edge15" class="edge">
<title>n26&#45;&gt;n26e1</title>
<path fill="none" stroke="black" d="M94.52,-586.76C102.16,-561.33 116.61,-513.26 123.96,-488.81"/>
<polygon fill="black" stroke="black" points="125.65,-489.25 125.41,-483.96 122.3,-488.25 125.65,-489.25"/>
</g>
<!-- n23e0&#45;&gt;n18 -->
<g id="edge4" class="edge">
<title>n23e0:c&#45;&gt;n18</title>
<path fill="none" stroke="black" d="M40.18,-139.85C41.96,-137.56 44.37,-134.48 46.5,-131.77 55.75,-119.98 66.17,-106.73 74.32,-96.38"/>
<ellipse fill="black" stroke="black" cx="38.73" cy="-141.69" rx="2" ry="2"/>
<polygon fill="black" stroke="black" points="75.72,-97.44 77.44,-92.43 72.97,-95.27 75.72,-97.44"/>
</g>
<!-- n24e0&#45;&gt;n23 -->
<g id="edge7" class="edge">
<title>n24e0:c&#45;&gt;n23</title>
<path fill="none" stroke="black" d="M78.66,-270.86C77.13,-263.22 73.78,-246.5 70.98,-232.54"/>
<ellipse fill="black" stroke="black" cx="79.11" cy="-273.08" rx="2" ry="2"/>
<polygon fill="black" stroke="black" points="72.68,-232.1 69.98,-227.54 69.25,-232.79 72.68,-232.1"/>
</g>
<!-- n24e1&#45;&gt;n18 -->
<g id="edge9" class="edge">
<title>n24e1:c&#45;&gt;n18</title>
<path fill="none" stroke="black" d="M139.88,-205.16C138,-193.5 131.75,-158.65 120.5,-131.77 115.43,-119.67 107.98,-107.04 101.53,-97.1"/>
<ellipse fill="black" stroke="black" cx="140.2" cy="-207.18" rx="2" ry="2"/>
<polygon fill="black" stroke="black" points="102.87,-95.95 98.66,-92.74 99.95,-97.88 102.87,-95.95"/>
</g>
<!-- n25e0&#45;&gt;n24 -->
<g id="edge11" class="edge">
<title>n25e0:c&#45;&gt;n24</title>
<path fill="none" stroke="black" d="M42.18,-403.39C43.96,-401.1 46.37,-398.02 48.5,-395.31 57.75,-383.51 68.17,-370.27 76.32,-359.92"/>
<ellipse fill="black" stroke="black" cx="40.73" cy="-405.23" rx="2" ry="2"/>
<polygon fill="black" stroke="black" points="77.72,-360.98 79.44,-355.97 74.97,-358.81 77.72,-360.98"/>
</g>
<!-- n26e0&#45;&gt;n25 -->
<g id="edge14" class="edge">
<title>n26e0:c&#45;&gt;n25</title>
<path fill="none" stroke="black" d="M80.66,-534.4C79.13,-526.76 75.78,-510.04 72.98,-496.08"/>
<ellipse fill="black" stroke="black" cx="81.11" cy="-536.62" rx="2" ry="2"/>
<polygon fill="black" stroke="black" points="74.68,-495.64 71.98,-491.08 71.25,-496.33 74.68,-495.64"/>
</g>
<!-- n26e1&#45;&gt;n24 -->
<g id="edge16" class="edge">
<title>n26e1:c&#45;&gt;n24</title>
<path fill="none" stroke="black" d="M141.88,-468.7C140,-457.04 133.75,-422.19 122.5,-395.31 117.43,-383.21 109.98,-370.58 103.53,-360.64"/>
<ellipse fill="black" stroke="black" cx="142.2" cy="-470.72" rx="2" ry="2"/>
<polygon fill="black" stroke="black" points="104.87,-359.49 100.66,-356.28 101.95,-361.42 104.87,-359.49"/>
</g>
</g>
</svg>
