<?xml version="1.0" encoding="UTF-8" standalone="no"?>
<!DOCTYPE svg PUBLIC "-//W3C//DTD SVG 1.1//EN"
 "http://www.w3.org/Graphics/SVG/1.1/DTD/svg11.dtd">
<!-- Generated by graphviz version 2.43.0 (0)
 -->
<!-- Title: sdd Pages: 1 -->
<svg width="1432pt" height="252pt"
 viewBox="0.00 0.00 1431.50 251.54" xmlns="http://www.w3.org/2000/svg" xmlns:xlink="http://www.w3.org/1999/xlink">
<g id="graph0" class="graph" transform="scale(1 1) rotate(0) translate(4 247.54)">
<title>sdd</title>
<polygon fill="white" stroke="transparent" points="-4,4 -4,-247.54 1427.5,-247.54 1427.5,4 -4,4"/>
<!-- n17 -->
<g id="node1" class="node">
<title>n17</title>
<ellipse fill="#f2f2f2" stroke="black" cx="426.5" cy="-85.38" rx="18.27" ry="18.27"/>
<text text-anchor="middle" x="426.5" y="-81.68" font-family="Times,serif" font-size="14.00">5</text>
</g>
<!-- n17e0 -->
<g id="node7" class="node">
<title>n17e0</title>
<polygon fill="white" stroke="black" points="290.5,-0.5 290.5,-30.5 438.5,-30.5 438.5,-0.5 290.5,-0.5"/>
<text text-anchor="middle" x="312.5" y="-10.5" font-family="Times,serif" font-style="italic" font-size="20.00">¬y</text>
<polyline fill="none" stroke="black" points="334.5,-0.5 334.5,-30.5 "/>
<text text-anchor="middle" x="386.5" y="-10.5" font-family="Times,serif" font-style="italic" font-size="20.00">¬p &lt;= q</text>
</g>
<!-- n17&#45;&gt;n17e0 -->
<g id="edge1" class="edge">
<title>n17&#45;&gt;n17e0</title>
<path fill="none" stroke="black" d="M414.55,-71.3C405.06,-60.91 391.69,-46.27 381.16,-34.74"/>
<polygon fill="black" stroke="black" points="382.37,-33.47 377.71,-30.96 379.79,-35.83 382.37,-33.47"/>
</g>
<!-- n17e1 -->
<g id="node8" class="node">
<title>n17e1</title>
<polygon fill="white" stroke="black" points="457,-0.5 457,-30.5 520,-30.5 520,-0.5 457,-0.5"/>
<text text-anchor="middle" x="471" y="-10.5" font-family="Times,serif" font-style="italic" font-size="20.00">y</text>
<polyline fill="none" stroke="black" points="485,-0.5 485,-30.5 "/>
<text text-anchor="middle" x="502.5" y="-10.5" font-family="Times,serif" font-style="italic" font-size="20.00">⊥</text>
</g>
<!-- n17&#45;&gt;n17e1 -->
<g id="edge2" class="edge">
<title>n17&#45;&gt;n17e1</title>
<path fill="none" stroke="black" d="M438.45,-71.3C447.94,-60.91 461.31,-46.27 471.84,-34.74"/>
<polygon fill="black" stroke="black" points="473.21,-35.83 475.29,-30.96 470.63,-33.47 473.21,-35.83"/>
</g>
<!-- n18 -->
<g id="node2" class="node">
<title>n18</title>
<ellipse fill="#f2f2f2" stroke="black" cx="858.5" cy="-225.15" rx="18.27" ry="18.27"/>
<text text-anchor="middle" x="858.5" y="-221.45" font-family="Times,serif" font-size="14.00">3</text>
</g>
<!-- n18e0 -->
<g id="node9" class="node">
<title>n18e0</title>
<polygon fill="white" stroke="black" points="391,-140.27 391,-170.27 438,-170.27 438,-140.27 391,-140.27"/>
<text text-anchor="middle" x="402.5" y="-150.27" font-family="Times,serif" font-style="italic" font-size="20.00"> </text>
<polyline fill="none" stroke="black" points="414,-140.27 414,-170.27 "/>
<text text-anchor="middle" x="426" y="-150.27" font-family="Times,serif" font-style="italic" font-size="20.00"> </text>
</g>
<!-- n18&#45;&gt;n18e0 -->
<g id="edge3" class="edge">
<title>n18&#45;&gt;n18e0</title>
<path fill="none" stroke="black" d="M840.27,-221.37C771.46,-210.85 527.2,-173.5 443.16,-160.65"/>
<polygon fill="black" stroke="black" points="443.3,-158.9 438.09,-159.88 442.77,-162.36 443.3,-158.9"/>
</g>
<!-- n18e1 -->
<g id="node10" class="node">
<title>n18e1</title>
<polygon fill="white" stroke="black" points="738,-140.27 738,-170.27 865,-170.27 865,-140.27 738,-140.27"/>
<text text-anchor="middle" x="749.5" y="-150.27" font-family="Times,serif" font-style="italic" font-size="20.00"> </text>
<polyline fill="none" stroke="black" points="761,-140.27 761,-170.27 "/>
<text text-anchor="middle" x="813" y="-150.27" font-family="Times,serif" font-style="italic" font-size="20.00">¬p &lt;= q</text>
</g>
<!-- n18&#45;&gt;n18e1 -->
<g id="edge6" class="edge">
<title>n18&#45;&gt;n18e1</title>
<path fill="none" stroke="black" d="M846.97,-210.42C838.27,-200.07 826.27,-185.77 816.78,-174.47"/>
<polygon fill="black" stroke="black" points="817.97,-173.16 813.41,-170.45 815.29,-175.41 817.97,-173.16"/>
</g>
<!-- n18e2 -->
<g id="node11" class="node">
<title>n18e2</title>
<polygon fill="white" stroke="black" points="883,-140.27 883,-170.27 950,-170.27 950,-140.27 883,-140.27"/>
<text text-anchor="middle" x="894.5" y="-150.27" font-family="Times,serif" font-style="italic" font-size="20.00"> </text>
<polyline fill="none" stroke="black" points="906,-140.27 906,-170.27 "/>
<text text-anchor="middle" x="928" y="-150.27" font-family="Times,serif" font-style="italic" font-size="20.00">¬y</text>
</g>
<!-- n18&#45;&gt;n18e2 -->
<g id="edge8" class="edge">
<title>n18&#45;&gt;n18e2</title>
<path fill="none" stroke="black" d="M869.96,-210.74C878.78,-200.42 891.07,-186.04 900.8,-174.64"/>
<polygon fill="black" stroke="black" points="902.35,-175.53 904.26,-170.59 899.69,-173.26 902.35,-175.53"/>
</g>
<!-- n18e3 -->
<g id="node12" class="node">
<title>n18e3</title>
<polygon fill="white" stroke="black" points="1083.5,-140.27 1083.5,-170.27 1141.5,-170.27 1141.5,-140.27 1083.5,-140.27"/>
<text text-anchor="middle" x="1095" y="-150.27" font-family="Times,serif" font-style="italic" font-size="20.00"> </text>
<polyline fill="none" stroke="black" points="1106.5,-140.27 1106.5,-170.27 "/>
<text text-anchor="middle" x="1124" y="-150.27" font-family="Times,serif" font-style="italic" font-size="20.00">⊤</text>
</g>
<!-- n18&#45;&gt;n18e3 -->
<g id="edge10" class="edge">
<title>n18&#45;&gt;n18e3</title>
<path fill="none" stroke="black" d="M876.36,-219.38C918.26,-208.18 1023.44,-180.07 1078.18,-165.44"/>
<polygon fill="black" stroke="black" points="1078.94,-167.05 1083.32,-164.07 1078.04,-163.67 1078.94,-167.05"/>
</g>
<!-- n16 -->
<g id="node3" class="node">
<title>n16</title>
<ellipse fill="#f2f2f2" stroke="black" cx="202.5" cy="-85.38" rx="18.27" ry="18.27"/>
<text text-anchor="middle" x="202.5" y="-81.68" font-family="Times,serif" font-size="14.00">1</text>
</g>
<!-- n16e0 -->
<g id="node13" class="node">
<title>n16e0</title>
<polygon fill="white" stroke="black" points="0,-0.5 0,-30.5 115,-30.5 115,-0.5 0,-0.5"/>
<text text-anchor="middle" x="43.5" y="-10.5" font-family="Times,serif" font-style="italic" font-size="20.00">q &lt;= p</text>
<polyline fill="none" stroke="black" points="87,-0.5 87,-30.5 "/>
<text text-anchor="middle" x="101" y="-10.5" font-family="Times,serif" font-style="italic" font-size="20.00">x</text>
</g>
<!-- n16&#45;&gt;n16e0 -->
<g id="edge12" class="edge">
<title>n16&#45;&gt;n16e0</title>
<path fill="none" stroke="black" d="M186.15,-76.73C163.51,-66.13 122.05,-46.72 92.31,-32.8"/>
<polygon fill="black" stroke="black" points="92.92,-31.15 87.65,-30.61 91.43,-34.32 92.92,-31.15"/>
</g>
<!-- n16e1 -->
<g id="node14" class="node">
<title>n16e1</title>
<polygon fill="white" stroke="black" points="133,-0.5 133,-30.5 272,-30.5 272,-0.5 133,-0.5"/>
<text text-anchor="middle" x="185" y="-10.5" font-family="Times,serif" font-style="italic" font-size="20.00">¬q &lt;= p</text>
<polyline fill="none" stroke="black" points="237,-0.5 237,-30.5 "/>
<text text-anchor="middle" x="254.5" y="-10.5" font-family="Times,serif" font-style="italic" font-size="20.00">⊥</text>
</g>
<!-- n16&#45;&gt;n16e1 -->
<g id="edge13" class="edge">
<title>n16&#45;&gt;n16e1</title>
<path fill="none" stroke="black" d="M202.5,-66.9C202.5,-57.36 202.5,-45.52 202.5,-35.71"/>
<polygon fill="black" stroke="black" points="204.25,-35.5 202.5,-30.5 200.75,-35.5 204.25,-35.5"/>
</g>
<!-- n15 -->
<g id="node4" class="node">
<title>n15</title>
<ellipse fill="#f2f2f2" stroke="black" cx="749.5" cy="-85.38" rx="18.27" ry="18.27"/>
<text text-anchor="middle" x="749.5" y="-81.68" font-family="Times,serif" font-size="14.00">1</text>
</g>
<!-- n15e0 -->
<g id="node15" class="node">
<title>n15e0</title>
<polygon fill="white" stroke="black" points="538.5,-0.5 538.5,-30.5 670.5,-30.5 670.5,-0.5 538.5,-0.5"/>
<text text-anchor="middle" x="590.5" y="-10.5" font-family="Times,serif" font-style="italic" font-size="20.00">¬q &lt;= p</text>
<polyline fill="none" stroke="black" points="642.5,-0.5 642.5,-30.5 "/>
<text text-anchor="middle" x="656.5" y="-10.5" font-family="Times,serif" font-style="italic" font-size="20.00">x</text>
</g>
<!-- n15&#45;&gt;n15e0 -->
<g id="edge14" class="edge">
<title>n15&#45;&gt;n15e0</title>
<path fill="none" stroke="black" d="M733.15,-76.73C710.51,-66.13 669.05,-46.72 639.31,-32.8"/>
<polygon fill="black" stroke="black" points="639.92,-31.15 634.65,-30.61 638.43,-34.32 639.92,-31.15"/>
</g>
<!-- n15e1 -->
<g id="node16" class="node">
<title>n15e1</title>
<polygon fill="white" stroke="black" points="688.5,-0.5 688.5,-30.5 810.5,-30.5 810.5,-0.5 688.5,-0.5"/>
<text text-anchor="middle" x="732" y="-10.5" font-family="Times,serif" font-style="italic" font-size="20.00">q &lt;= p</text>
<polyline fill="none" stroke="black" points="775.5,-0.5 775.5,-30.5 "/>
<text text-anchor="middle" x="793" y="-10.5" font-family="Times,serif" font-style="italic" font-size="20.00">⊥</text>
</g>
<!-- n15&#45;&gt;n15e1 -->
<g id="edge15" class="edge">
<title>n15&#45;&gt;n15e1</title>
<path fill="none" stroke="black" d="M749.5,-66.9C749.5,-57.36 749.5,-45.52 749.5,-35.71"/>
<polygon fill="black" stroke="black" points="751.25,-35.5 749.5,-30.5 747.75,-35.5 751.25,-35.5"/>
</g>
<!-- n14 -->
<g id="node5" class="node">
<title>n14</title>
<ellipse fill="#f2f2f2" stroke="black" cx="894.5" cy="-85.38" rx="18.27" ry="18.27"/>
<text text-anchor="middle" x="894.5" y="-81.68" font-family="Times,serif" font-size="14.00">1</text>
</g>
<!-- n14e0 -->
<g id="node17" class="node">
<title>n14e0</title>
<polygon fill="white" stroke="black" points="829,-0.5 829,-30.5 960,-30.5 960,-0.5 829,-0.5"/>
<text text-anchor="middle" x="872.5" y="-10.5" font-family="Times,serif" font-style="italic" font-size="20.00">q &lt;= p</text>
<polyline fill="none" stroke="black" points="916,-0.5 916,-30.5 "/>
<text text-anchor="middle" x="938" y="-10.5" font-family="Times,serif" font-style="italic" font-size="20.00">¬x</text>
</g>
<!-- n14&#45;&gt;n14e0 -->
<g id="edge16" class="edge">
<title>n14&#45;&gt;n14e0</title>
<path fill="none" stroke="black" d="M894.5,-66.9C894.5,-57.36 894.5,-45.52 894.5,-35.71"/>
<polygon fill="black" stroke="black" points="896.25,-35.5 894.5,-30.5 892.75,-35.5 896.25,-35.5"/>
</g>
<!-- n14e1 -->
<g id="node18" class="node">
<title>n14e1</title>
<polygon fill="white" stroke="black" points="978,-0.5 978,-30.5 1117,-30.5 1117,-0.5 978,-0.5"/>
<text text-anchor="middle" x="1030" y="-10.5" font-family="Times,serif" font-style="italic" font-size="20.00">¬q &lt;= p</text>
<polyline fill="none" stroke="black" points="1082,-0.5 1082,-30.5 "/>
<text text-anchor="middle" x="1099.5" y="-10.5" font-family="Times,serif" font-style="italic" font-size="20.00">⊥</text>
</g>
<!-- n14&#45;&gt;n14e1 -->
<g id="edge17" class="edge">
<title>n14&#45;&gt;n14e1</title>
<path fill="none" stroke="black" d="M911.16,-76.99C935.01,-66.41 979.47,-46.68 1011.13,-32.64"/>
<polygon fill="black" stroke="black" points="1011.85,-34.23 1015.71,-30.61 1010.43,-31.03 1011.85,-34.23"/>
</g>
<!-- n13 -->
<g id="node6" class="node">
<title>n13</title>
<ellipse fill="#f2f2f2" stroke="black" cx="1209.5" cy="-85.38" rx="18.27" ry="18.27"/>
<text text-anchor="middle" x="1209.5" y="-81.68" font-family="Times,serif" font-size="14.00">1</text>
</g>
<!-- n13e0 -->
<g id="node19" class="node">
<title>n13e0</title>
<polygon fill="white" stroke="black" points="1135.5,-0.5 1135.5,-30.5 1283.5,-30.5 1283.5,-0.5 1135.5,-0.5"/>
<text text-anchor="middle" x="1187.5" y="-10.5" font-family="Times,serif" font-style="italic" font-size="20.00">¬q &lt;= p</text>
<polyline fill="none" stroke="black" points="1239.5,-0.5 1239.5,-30.5 "/>
<text text-anchor="middle" x="1261.5" y="-10.5" font-family="Times,serif" font-style="italic" font-size="20.00">¬x</text>
</g>
<!-- n13&#45;&gt;n13e0 -->
<g id="edge18" class="edge">
<title>n13&#45;&gt;n13e0</title>
<path fill="none" stroke="black" d="M1209.5,-66.9C1209.5,-57.36 1209.5,-45.52 1209.5,-35.71"/>
<polygon fill="black" stroke="black" points="1211.25,-35.5 1209.5,-30.5 1207.75,-35.5 1211.25,-35.5"/>
</g>
<!-- n13e1 -->
<g id="node20" class="node">
<title>n13e1</title>
<polygon fill="white" stroke="black" points="1301.5,-0.5 1301.5,-30.5 1423.5,-30.5 1423.5,-0.5 1301.5,-0.5"/>
<text text-anchor="middle" x="1345" y="-10.5" font-family="Times,serif" font-style="italic" font-size="20.00">q &lt;= p</text>
<polyline fill="none" stroke="black" points="1388.5,-0.5 1388.5,-30.5 "/>
<text text-anchor="middle" x="1406" y="-10.5" font-family="Times,serif" font-style="italic" font-size="20.00">⊥</text>
</g>
<!-- n13&#45;&gt;n13e1 -->
<g id="edge19" class="edge">
<title>n13&#45;&gt;n13e1</title>
<path fill="none" stroke="black" d="M1226.16,-76.99C1250.01,-66.41 1294.47,-46.68 1326.13,-32.64"/>
<polygon fill="black" stroke="black" points="1326.85,-34.23 1330.71,-30.61 1325.43,-31.03 1326.85,-34.23"/>
</g>
<!-- n18e0&#45;&gt;n17 -->
<g id="edge5" class="edge">
<title>n18e0:c&#45;&gt;n17</title>
<path fill="none" stroke="black" d="M426.5,-151.01C426.5,-142.87 426.5,-124.56 426.5,-109.5"/>
<ellipse fill="black" stroke="black" cx="426.5" cy="-153.27" rx="2" ry="2"/>
<polygon fill="black" stroke="black" points="428.25,-109.12 426.5,-104.12 424.75,-109.12 428.25,-109.12"/>
</g>
<!-- n18e0&#45;&gt;n16 -->
<g id="edge4" class="edge">
<title>n18e0:c&#45;&gt;n16</title>
<path fill="none" stroke="black" d="M400.7,-151.38C398.87,-147.84 395.71,-142.74 391.5,-139.77 339.99,-103.42 264.29,-91.73 226.21,-88.04"/>
<ellipse fill="black" stroke="black" cx="401.66" cy="-153.45" rx="2" ry="2"/>
<polygon fill="black" stroke="black" points="226.02,-86.26 220.88,-87.55 225.7,-89.75 226.02,-86.26"/>
</g>
<!-- n18e1&#45;&gt;n15 -->
<g id="edge7" class="edge">
<title>n18e1:c&#45;&gt;n15</title>
<path fill="none" stroke="black" d="M749.5,-151.01C749.5,-142.87 749.5,-124.56 749.5,-109.5"/>
<ellipse fill="black" stroke="black" cx="749.5" cy="-153.27" rx="2" ry="2"/>
<polygon fill="black" stroke="black" points="751.25,-109.12 749.5,-104.12 747.75,-109.12 751.25,-109.12"/>
</g>
<!-- n18e2&#45;&gt;n14 -->
<g id="edge9" class="edge">
<title>n18e2:c&#45;&gt;n14</title>
<path fill="none" stroke="black" d="M894.5,-151.01C894.5,-142.87 894.5,-124.56 894.5,-109.5"/>
<ellipse fill="black" stroke="black" cx="894.5" cy="-153.27" rx="2" ry="2"/>
<polygon fill="black" stroke="black" points="896.25,-109.12 894.5,-104.12 892.75,-109.12 896.25,-109.12"/>
</g>
<!-- n18e3&#45;&gt;n13 -->
<g id="edge11" class="edge">
<title>n18e3:c&#45;&gt;n13</title>
<path fill="none" stroke="black" d="M1096.7,-151.58C1098.86,-148.18 1102.42,-143.17 1106.5,-139.77 1131.38,-119.02 1165.65,-103.27 1187.7,-94.43"/>
<ellipse fill="black" stroke="black" cx="1095.52" cy="-153.55" rx="2" ry="2"/>
<polygon fill="black" stroke="black" points="1188.47,-96.01 1192.48,-92.54 1187.18,-92.75 1188.47,-96.01"/>
</g>
</g>
</svg>
