<?xml version="1.0" encoding="UTF-8" standalone="no"?>
<!DOCTYPE svg PUBLIC "-//W3C//DTD SVG 1.1//EN"
 "http://www.w3.org/Graphics/SVG/1.1/DTD/svg11.dtd">
<!-- Generated by graphviz version 2.43.0 (0)
 -->
<!-- Title: sdd Pages: 1 -->
<svg width="572pt" height="112pt"
 viewBox="0.00 0.00 572.00 111.77" xmlns="http://www.w3.org/2000/svg" xmlns:xlink="http://www.w3.org/1999/xlink">
<g id="graph0" class="graph" transform="scale(1 1) rotate(0) translate(4 107.77)">
<title>sdd</title>
<polygon fill="white" stroke="transparent" points="-4,4 -4,-107.77 568,-107.77 568,4 -4,4"/>
<!-- n7 -->
<g id="node1" class="node">
<title>n7</title>
<ellipse fill="#f2f2f2" stroke="black" cx="294" cy="-85.38" rx="18.27" ry="18.27"/>
<text text-anchor="middle" x="294" y="-81.68" font-family="Times,serif" font-size="14.00">1</text>
</g>
<!-- n7e0 -->
<g id="node2" class="node">
<title>n7e0</title>
<polygon fill="white" stroke="black" points="0,-0.5 0,-30.5 298,-30.5 298,-0.5 0,-0.5"/>
<text text-anchor="middle" x="98.5" y="-10.5" font-family="Times,serif" font-style="italic" font-size="20.00">(y + (&#45;1 * x)) &lt;= 1</text>
<polyline fill="none" stroke="black" points="197,-0.5 197,-30.5 "/>
<text text-anchor="middle" x="247.5" y="-10.5" font-family="Times,serif" font-style="italic" font-size="20.00">¬x &lt;= y</text>
</g>
<!-- n7&#45;&gt;n7e0 -->
<g id="edge1" class="edge">
<title>n7&#45;&gt;n7e0</title>
<path fill="none" stroke="black" d="M277.65,-76.73C255.01,-66.13 213.55,-46.72 183.81,-32.8"/>
<polygon fill="black" stroke="black" points="184.42,-31.15 179.15,-30.61 182.93,-34.32 184.42,-31.15"/>
</g>
<!-- n7e1 -->
<g id="node3" class="node">
<title>n7e1</title>
<polygon fill="white" stroke="black" points="316,-0.5 316,-30.5 564,-30.5 564,-0.5 316,-0.5"/>
<text text-anchor="middle" x="422.5" y="-10.5" font-family="Times,serif" font-style="italic" font-size="20.00">¬(y + (&#45;1 * x)) &lt;= 1</text>
<polyline fill="none" stroke="black" points="529,-0.5 529,-30.5 "/>
<text text-anchor="middle" x="546.5" y="-10.5" font-family="Times,serif" font-style="italic" font-size="20.00">⊤</text>
</g>
<!-- n7&#45;&gt;n7e1 -->
<g id="edge2" class="edge">
<title>n7&#45;&gt;n7e1</title>
<path fill="none" stroke="black" d="M310.46,-76.73C333.26,-66.13 375,-46.72 404.94,-32.8"/>
<polygon fill="black" stroke="black" points="405.85,-34.31 409.64,-30.61 404.37,-31.14 405.85,-34.31"/>
</g>
</g>
</svg>
