<?xml version="1.0" encoding="UTF-8" standalone="no"?>
<!DOCTYPE svg PUBLIC "-//W3C//DTD SVG 1.1//EN"
 "http://www.w3.org/Graphics/SVG/1.1/DTD/svg11.dtd">
<!-- Generated by graphviz version 2.43.0 (0)
 -->
<!-- Title: sdd Pages: 1 -->
<svg width="965pt" height="775pt"
 viewBox="0.00 0.00 965.00 775.35" xmlns="http://www.w3.org/2000/svg" xmlns:xlink="http://www.w3.org/1999/xlink">
<g id="graph0" class="graph" transform="scale(1 1) rotate(0) translate(4 771.35)">
<title>sdd</title>
<polygon fill="white" stroke="transparent" points="-4,4 -4,-771.35 961,-771.35 961,4 -4,4"/>
<!-- n22 -->
<g id="node1" class="node">
<title>n22</title>
<ellipse fill="#f2f2f2" stroke="black" cx="459" cy="-83.75" rx="25" ry="25"/>
<text text-anchor="middle" x="459" y="-80.05" font-family="Times,serif" font-size="14.00">11</text>
</g>
<!-- n22e0 -->
<g id="node9" class="node">
<title>n22e0</title>
<polygon fill="white" stroke="black" points="234,-0.5 234,-22.5 450,-22.5 450,-0.5 234,-0.5"/>
<text text-anchor="middle" x="284" y="-6.5" font-family="Times,serif" font-style="italic" font-size="20.00">x1 &lt;= x4</text>
<polyline fill="none" stroke="black" points="334,-0.5 334,-22.5 "/>
<text text-anchor="middle" x="392" y="-6.5" font-family="Times,serif" font-style="italic" font-size="20.00">¬x4 &lt;= x1</text>
</g>
<!-- n22&#45;&gt;n22e0 -->
<g id="edge1" class="edge">
<title>n22&#45;&gt;n22e0</title>
<path fill="none" stroke="black" d="M438.08,-70.19C416.97,-57.52 384.54,-38.04 363.3,-25.29"/>
<polygon fill="black" stroke="black" points="364.13,-23.75 358.94,-22.67 362.33,-26.75 364.13,-23.75"/>
</g>
<!-- n22e1 -->
<g id="node10" class="node">
<title>n22e1</title>
<polygon fill="white" stroke="black" points="468,-0.5 468,-22.5 684,-22.5 684,-0.5 468,-0.5"/>
<text text-anchor="middle" x="526" y="-6.5" font-family="Times,serif" font-style="italic" font-size="20.00">¬x1 &lt;= x4</text>
<polyline fill="none" stroke="black" points="584,-0.5 584,-22.5 "/>
<text text-anchor="middle" x="634" y="-6.5" font-family="Times,serif" font-style="italic" font-size="20.00">x4 &lt;= x1</text>
</g>
<!-- n22&#45;&gt;n22e1 -->
<g id="edge2" class="edge">
<title>n22&#45;&gt;n22e1</title>
<path fill="none" stroke="black" d="M479.92,-70.19C501.03,-57.52 533.46,-38.04 554.7,-25.29"/>
<polygon fill="black" stroke="black" points="555.67,-26.75 559.06,-22.67 553.87,-23.75 555.67,-26.75"/>
</g>
<!-- n35 -->
<g id="node2" class="node">
<title>n35</title>
<ellipse fill="#f2f2f2" stroke="black" cx="381" cy="-221.88" rx="18.27" ry="18.27"/>
<text text-anchor="middle" x="381" y="-218.18" font-family="Times,serif" font-size="14.00">9</text>
</g>
<!-- n35e0 -->
<g id="node11" class="node">
<title>n35e0</title>
<polygon fill="white" stroke="black" points="39,-145 39,-167 255,-167 255,-145 39,-145"/>
<text text-anchor="middle" x="114.5" y="-151" font-family="Times,serif" font-style="italic" font-size="20.00">x4 &lt;= x3</text>
<polyline fill="none" stroke="black" points="190,-145 190,-167 "/>
<text text-anchor="middle" x="222.5" y="-151" font-family="Times,serif" font-style="italic" font-size="20.00"> </text>
</g>
<!-- n35&#45;&gt;n35e0 -->
<g id="edge3" class="edge">
<title>n35&#45;&gt;n35e0</title>
<path fill="none" stroke="black" d="M363.41,-216.08C326.55,-206.02 240.33,-182.48 188.53,-168.34"/>
<polygon fill="black" stroke="black" points="188.92,-166.63 183.63,-167 187.99,-170 188.92,-166.63"/>
</g>
<!-- n35e1 -->
<g id="node12" class="node">
<title>n35e1</title>
<polygon fill="white" stroke="black" points="273,-145 273,-167 489,-167 489,-145 273,-145"/>
<text text-anchor="middle" x="349.5" y="-151" font-family="Times,serif" font-style="italic" font-size="20.00">¬x4 &lt;= x3</text>
<polyline fill="none" stroke="black" points="426,-145 426,-167 "/>
<text text-anchor="middle" x="457.5" y="-151" font-family="Times,serif" font-style="italic" font-size="20.00">⊥</text>
</g>
<!-- n35&#45;&gt;n35e1 -->
<g id="edge5" class="edge">
<title>n35&#45;&gt;n35e1</title>
<path fill="none" stroke="black" d="M381,-203.43C381,-193.67 381,-181.62 381,-172.24"/>
<polygon fill="black" stroke="black" points="382.75,-172.07 381,-167.07 379.25,-172.07 382.75,-172.07"/>
</g>
<!-- n27 -->
<g id="node3" class="node">
<title>n27</title>
<ellipse fill="#f2f2f2" stroke="black" cx="615" cy="-221.88" rx="18.27" ry="18.27"/>
<text text-anchor="middle" x="615" y="-218.18" font-family="Times,serif" font-size="14.00">9</text>
</g>
<!-- n27e0 -->
<g id="node13" class="node">
<title>n27e0</title>
<polygon fill="white" stroke="black" points="507,-145 507,-167 723,-167 723,-145 507,-145"/>
<text text-anchor="middle" x="586.5" y="-151" font-family="Times,serif" font-style="italic" font-size="20.00">¬x4 &lt;= x3</text>
<polyline fill="none" stroke="black" points="666,-145 666,-167 "/>
<text text-anchor="middle" x="694.5" y="-151" font-family="Times,serif" font-style="italic" font-size="20.00"> </text>
</g>
<!-- n27&#45;&gt;n27e0 -->
<g id="edge6" class="edge">
<title>n27&#45;&gt;n27e0</title>
<path fill="none" stroke="black" d="M615,-203.43C615,-193.67 615,-181.62 615,-172.24"/>
<polygon fill="black" stroke="black" points="616.75,-172.07 615,-167.07 613.25,-172.07 616.75,-172.07"/>
</g>
<!-- n27e1 -->
<g id="node14" class="node">
<title>n27e1</title>
<polygon fill="white" stroke="black" points="741,-145 741,-167 957,-167 957,-145 741,-145"/>
<text text-anchor="middle" x="813.5" y="-151" font-family="Times,serif" font-style="italic" font-size="20.00">x4 &lt;= x3</text>
<polyline fill="none" stroke="black" points="886,-145 886,-167 "/>
<text text-anchor="middle" x="921.5" y="-151" font-family="Times,serif" font-style="italic" font-size="20.00">⊥</text>
</g>
<!-- n27&#45;&gt;n27e1 -->
<g id="edge8" class="edge">
<title>n27&#45;&gt;n27e1</title>
<path fill="none" stroke="black" d="M632.59,-216.08C669.45,-206.02 755.67,-182.48 807.47,-168.34"/>
<polygon fill="black" stroke="black" points="808.01,-170 812.37,-167 807.08,-166.63 808.01,-170"/>
</g>
<!-- n36 -->
<g id="node4" class="node">
<title>n36</title>
<ellipse fill="#f2f2f2" stroke="black" cx="420" cy="-353.65" rx="18.27" ry="18.27"/>
<text text-anchor="middle" x="420" y="-349.95" font-family="Times,serif" font-size="14.00">7</text>
</g>
<!-- n36e0 -->
<g id="node15" class="node">
<title>n36e0</title>
<polygon fill="white" stroke="black" points="194,-276.77 194,-298.77 410,-298.77 410,-276.77 194,-276.77"/>
<text text-anchor="middle" x="273.5" y="-282.77" font-family="Times,serif" font-style="italic" font-size="20.00">¬x3 &lt;= x4</text>
<polyline fill="none" stroke="black" points="353,-276.77 353,-298.77 "/>
<text text-anchor="middle" x="381.5" y="-282.77" font-family="Times,serif" font-style="italic" font-size="20.00"> </text>
</g>
<!-- n36&#45;&gt;n36e0 -->
<g id="edge9" class="edge">
<title>n36&#45;&gt;n36e0</title>
<path fill="none" stroke="black" d="M404.09,-344.04C383.8,-333.05 348.57,-313.98 325.26,-301.36"/>
<polygon fill="black" stroke="black" points="326,-299.77 320.77,-298.93 324.33,-302.85 326,-299.77"/>
</g>
<!-- n36e1 -->
<g id="node16" class="node">
<title>n36e1</title>
<polygon fill="white" stroke="black" points="430,-276.77 430,-298.77 646,-298.77 646,-276.77 430,-276.77"/>
<text text-anchor="middle" x="505.5" y="-282.77" font-family="Times,serif" font-style="italic" font-size="20.00">x3 &lt;= x4</text>
<polyline fill="none" stroke="black" points="581,-276.77 581,-298.77 "/>
<text text-anchor="middle" x="613.5" y="-282.77" font-family="Times,serif" font-style="italic" font-size="20.00"> </text>
</g>
<!-- n36&#45;&gt;n36e1 -->
<g id="edge11" class="edge">
<title>n36&#45;&gt;n36e1</title>
<path fill="none" stroke="black" d="M435.91,-344.04C456.2,-333.05 491.43,-313.98 514.74,-301.36"/>
<polygon fill="black" stroke="black" points="515.67,-302.85 519.23,-298.93 514,-299.77 515.67,-302.85"/>
</g>
<!-- n38 -->
<g id="node5" class="node">
<title>n38</title>
<ellipse fill="#f2f2f2" stroke="black" cx="340" cy="-485.42" rx="18.27" ry="18.27"/>
<text text-anchor="middle" x="340" y="-481.72" font-family="Times,serif" font-size="14.00">5</text>
</g>
<!-- n38e0 -->
<g id="node17" class="node">
<title>n38e0</title>
<polygon fill="white" stroke="black" points="0,-408.54 0,-430.54 216,-430.54 216,-408.54 0,-408.54"/>
<text text-anchor="middle" x="79.5" y="-414.54" font-family="Times,serif" font-style="italic" font-size="20.00">¬x2 &lt;= x1</text>
<polyline fill="none" stroke="black" points="159,-408.54 159,-430.54 "/>
<text text-anchor="middle" x="187.5" y="-414.54" font-family="Times,serif" font-style="italic" font-size="20.00"> </text>
</g>
<!-- n38&#45;&gt;n38e0 -->
<g id="edge13" class="edge">
<title>n38&#45;&gt;n38e0</title>
<path fill="none" stroke="black" d="M322.18,-479.51C285.48,-469.41 200.64,-446.05 149.44,-431.95"/>
<polygon fill="black" stroke="black" points="149.87,-430.25 144.59,-430.61 148.94,-433.63 149.87,-430.25"/>
</g>
<!-- n38e1 -->
<g id="node18" class="node">
<title>n38e1</title>
<polygon fill="white" stroke="black" points="234,-408.54 234,-430.54 450,-430.54 450,-408.54 234,-408.54"/>
<text text-anchor="middle" x="306.5" y="-414.54" font-family="Times,serif" font-style="italic" font-size="20.00">x2 &lt;= x1</text>
<polyline fill="none" stroke="black" points="379,-408.54 379,-430.54 "/>
<text text-anchor="middle" x="414.5" y="-414.54" font-family="Times,serif" font-style="italic" font-size="20.00">⊥</text>
</g>
<!-- n38&#45;&gt;n38e1 -->
<g id="edge15" class="edge">
<title>n38&#45;&gt;n38e1</title>
<path fill="none" stroke="black" d="M340.55,-466.96C340.85,-457.21 341.23,-445.16 341.52,-435.78"/>
<polygon fill="black" stroke="black" points="343.28,-435.66 341.68,-430.61 339.78,-435.55 343.28,-435.66"/>
</g>
<!-- n37 -->
<g id="node6" class="node">
<title>n37</title>
<ellipse fill="#f2f2f2" stroke="black" cx="578" cy="-485.42" rx="18.27" ry="18.27"/>
<text text-anchor="middle" x="578" y="-481.72" font-family="Times,serif" font-size="14.00">5</text>
</g>
<!-- n37e0 -->
<g id="node19" class="node">
<title>n37e0</title>
<polygon fill="white" stroke="black" points="468,-408.54 468,-430.54 684,-430.54 684,-408.54 468,-408.54"/>
<text text-anchor="middle" x="543.5" y="-414.54" font-family="Times,serif" font-style="italic" font-size="20.00">x2 &lt;= x1</text>
<polyline fill="none" stroke="black" points="619,-408.54 619,-430.54 "/>
<text text-anchor="middle" x="651.5" y="-414.54" font-family="Times,serif" font-style="italic" font-size="20.00"> </text>
</g>
<!-- n37&#45;&gt;n37e0 -->
<g id="edge16" class="edge">
<title>n37&#45;&gt;n37e0</title>
<path fill="none" stroke="black" d="M577.45,-466.96C577.15,-457.21 576.77,-445.16 576.48,-435.78"/>
<polygon fill="black" stroke="black" points="578.22,-435.55 576.32,-430.61 574.72,-435.66 578.22,-435.55"/>
</g>
<!-- n37e1 -->
<g id="node20" class="node">
<title>n37e1</title>
<polygon fill="white" stroke="black" points="702,-408.54 702,-430.54 918,-430.54 918,-408.54 702,-408.54"/>
<text text-anchor="middle" x="778.5" y="-414.54" font-family="Times,serif" font-style="italic" font-size="20.00">¬x2 &lt;= x1</text>
<polyline fill="none" stroke="black" points="855,-408.54 855,-430.54 "/>
<text text-anchor="middle" x="886.5" y="-414.54" font-family="Times,serif" font-style="italic" font-size="20.00">⊥</text>
</g>
<!-- n37&#45;&gt;n37e1 -->
<g id="edge18" class="edge">
<title>n37&#45;&gt;n37e1</title>
<path fill="none" stroke="black" d="M595.82,-479.51C632.52,-469.41 717.36,-446.05 768.56,-431.95"/>
<polygon fill="black" stroke="black" points="769.06,-433.63 773.41,-430.61 768.13,-430.25 769.06,-433.63"/>
</g>
<!-- n39 -->
<g id="node7" class="node">
<title>n39</title>
<ellipse fill="#f2f2f2" stroke="black" cx="381" cy="-617.19" rx="18.27" ry="18.27"/>
<text text-anchor="middle" x="381" y="-613.49" font-family="Times,serif" font-size="14.00">3</text>
</g>
<!-- n39e0 -->
<g id="node21" class="node">
<title>n39e0</title>
<polygon fill="white" stroke="black" points="156,-540.31 156,-562.31 372,-562.31 372,-540.31 156,-540.31"/>
<text text-anchor="middle" x="231.5" y="-546.31" font-family="Times,serif" font-style="italic" font-size="20.00">x1 &lt;= x2</text>
<polyline fill="none" stroke="black" points="307,-540.31 307,-562.31 "/>
<text text-anchor="middle" x="339.5" y="-546.31" font-family="Times,serif" font-style="italic" font-size="20.00"> </text>
</g>
<!-- n39&#45;&gt;n39e0 -->
<g id="edge19" class="edge">
<title>n39&#45;&gt;n39e0</title>
<path fill="none" stroke="black" d="M365.22,-607.58C345.1,-596.59 310.17,-577.52 287.07,-564.9"/>
<polygon fill="black" stroke="black" points="287.84,-563.33 282.61,-562.47 286.16,-566.4 287.84,-563.33"/>
</g>
<!-- n39e1 -->
<g id="node22" class="node">
<title>n39e1</title>
<polygon fill="white" stroke="black" points="390,-540.31 390,-562.31 606,-562.31 606,-540.31 390,-540.31"/>
<text text-anchor="middle" x="469.5" y="-546.31" font-family="Times,serif" font-style="italic" font-size="20.00">¬x1 &lt;= x2</text>
<polyline fill="none" stroke="black" points="549,-540.31 549,-562.31 "/>
<text text-anchor="middle" x="577.5" y="-546.31" font-family="Times,serif" font-style="italic" font-size="20.00"> </text>
</g>
<!-- n39&#45;&gt;n39e1 -->
<g id="edge21" class="edge">
<title>n39&#45;&gt;n39e1</title>
<path fill="none" stroke="black" d="M396.78,-607.58C416.9,-596.59 451.83,-577.52 474.93,-564.9"/>
<polygon fill="black" stroke="black" points="475.84,-566.4 479.39,-562.47 474.16,-563.33 475.84,-566.4"/>
</g>
<!-- n40 -->
<g id="node8" class="node">
<title>n40</title>
<ellipse fill="#f2f2f2" stroke="black" cx="442" cy="-748.96" rx="18.27" ry="18.27"/>
<text text-anchor="middle" x="442" y="-745.26" font-family="Times,serif" font-size="14.00">1</text>
</g>
<!-- n40e0 -->
<g id="node23" class="node">
<title>n40e0</title>
<polygon fill="white" stroke="black" points="217,-672.08 217,-694.08 433,-694.08 433,-672.08 217,-672.08"/>
<text text-anchor="middle" x="272.5" y="-678.08" font-family="Times,serif" font-style="italic" font-size="20.00">a</text>
<polyline fill="none" stroke="black" points="328,-672.08 328,-694.08 "/>
<text text-anchor="middle" x="380.5" y="-678.08" font-family="Times,serif" font-style="italic" font-size="20.00"> </text>
</g>
<!-- n40&#45;&gt;n40e0 -->
<g id="edge23" class="edge">
<title>n40&#45;&gt;n40e0</title>
<path fill="none" stroke="black" d="M426.22,-739.34C406.1,-728.36 371.17,-709.29 348.07,-696.67"/>
<polygon fill="black" stroke="black" points="348.84,-695.1 343.61,-694.24 347.16,-698.17 348.84,-695.1"/>
</g>
<!-- n40e1 -->
<g id="node24" class="node">
<title>n40e1</title>
<polygon fill="white" stroke="black" points="451,-672.08 451,-694.08 667,-694.08 667,-672.08 451,-672.08"/>
<text text-anchor="middle" x="507.5" y="-678.08" font-family="Times,serif" font-style="italic" font-size="20.00">¬a</text>
<polyline fill="none" stroke="black" points="564,-672.08 564,-694.08 "/>
<text text-anchor="middle" x="615.5" y="-678.08" font-family="Times,serif" font-style="italic" font-size="20.00">⊥</text>
</g>
<!-- n40&#45;&gt;n40e1 -->
<g id="edge25" class="edge">
<title>n40&#45;&gt;n40e1</title>
<path fill="none" stroke="black" d="M457.78,-739.34C477.9,-728.36 512.83,-709.29 535.93,-696.67"/>
<polygon fill="black" stroke="black" points="536.84,-698.17 540.39,-694.24 535.16,-695.1 536.84,-698.17"/>
</g>
<!-- n35e0&#45;&gt;n22 -->
<g id="edge4" class="edge">
<title>n35e0:c&#45;&gt;n22</title>
<path fill="none" stroke="black" d="M227.11,-154.43C233.18,-152.14 244.9,-147.79 255,-144.5 316.96,-124.31 390.5,-103.55 430.17,-92.61"/>
<ellipse fill="black" stroke="black" cx="224.87" cy="-155.29" rx="2" ry="2"/>
<polygon fill="black" stroke="black" points="430.94,-94.21 435.3,-91.19 430.01,-90.83 430.94,-94.21"/>
</g>
<!-- n27e0&#45;&gt;n22 -->
<g id="edge7" class="edge">
<title>n27e0:c&#45;&gt;n22</title>
<path fill="none" stroke="black" d="M691.29,-154.39C685.81,-152.05 675.23,-147.65 666,-144.5 603.33,-123.08 528.34,-102.71 488.04,-92.18"/>
<ellipse fill="black" stroke="black" cx="693.16" cy="-155.2" rx="2" ry="2"/>
<polygon fill="black" stroke="black" points="488.1,-90.39 482.82,-90.82 487.22,-93.78 488.1,-90.39"/>
</g>
<!-- n36e0&#45;&gt;n35 -->
<g id="edge10" class="edge">
<title>n36e0:c&#45;&gt;n35</title>
<path fill="none" stroke="black" d="M381.94,-283.59C381.82,-276.01 381.56,-259.52 381.35,-245.64"/>
<ellipse fill="black" stroke="black" cx="381.97" cy="-285.77" rx="2" ry="2"/>
<polygon fill="black" stroke="black" points="383.09,-245.24 381.27,-240.27 379.6,-245.3 383.09,-245.24"/>
</g>
<!-- n36e1&#45;&gt;n27 -->
<g id="edge12" class="edge">
<title>n36e1:c&#45;&gt;n27</title>
<path fill="none" stroke="black" d="M614.06,-283.59C614.18,-276.01 614.44,-259.52 614.65,-245.64"/>
<ellipse fill="black" stroke="black" cx="614.03" cy="-285.77" rx="2" ry="2"/>
<polygon fill="black" stroke="black" points="616.4,-245.3 614.73,-240.27 612.91,-245.24 616.4,-245.3"/>
</g>
<!-- n38e0&#45;&gt;n36 -->
<g id="edge14" class="edge">
<title>n38e0:c&#45;&gt;n36</title>
<path fill="none" stroke="black" d="M191.92,-417.73C197.28,-415.31 207.23,-410.97 216,-408.04 280.36,-386.51 358.48,-368.16 396.69,-359.68"/>
<ellipse fill="black" stroke="black" cx="189.82" cy="-418.7" rx="2" ry="2"/>
<polygon fill="black" stroke="black" points="397.52,-361.29 402.03,-358.5 396.77,-357.87 397.52,-361.29"/>
</g>
<!-- n37e0&#45;&gt;n36 -->
<g id="edge17" class="edge">
<title>n37e0:c&#45;&gt;n36</title>
<path fill="none" stroke="black" d="M648.17,-418.1C642.05,-415.83 629.67,-411.32 619,-408.04 555.79,-388.57 480.07,-369.37 442.89,-360.21"/>
<ellipse fill="black" stroke="black" cx="650.13" cy="-418.83" rx="2" ry="2"/>
<polygon fill="black" stroke="black" points="442.97,-358.43 437.69,-358.94 442.13,-361.83 442.97,-358.43"/>
</g>
<!-- n39e0&#45;&gt;n38 -->
<g id="edge20" class="edge">
<title>n39e0:c&#45;&gt;n38</title>
<path fill="none" stroke="black" d="M340,-547.13C340,-539.55 340,-523.06 340,-509.17"/>
<ellipse fill="black" stroke="black" cx="340" cy="-549.31" rx="2" ry="2"/>
<polygon fill="black" stroke="black" points="341.75,-508.81 340,-503.81 338.25,-508.81 341.75,-508.81"/>
</g>
<!-- n39e1&#45;&gt;n37 -->
<g id="edge22" class="edge">
<title>n39e1:c&#45;&gt;n37</title>
<path fill="none" stroke="black" d="M578,-547.13C578,-539.55 578,-523.06 578,-509.17"/>
<ellipse fill="black" stroke="black" cx="578" cy="-549.31" rx="2" ry="2"/>
<polygon fill="black" stroke="black" points="579.75,-508.81 578,-503.81 576.25,-508.81 579.75,-508.81"/>
</g>
<!-- n40e0&#45;&gt;n39 -->
<g id="edge24" class="edge">
<title>n40e0:c&#45;&gt;n39</title>
<path fill="none" stroke="black" d="M381,-678.9C381,-671.32 381,-654.83 381,-640.94"/>
<ellipse fill="black" stroke="black" cx="381" cy="-681.08" rx="2" ry="2"/>
<polygon fill="black" stroke="black" points="382.75,-640.58 381,-635.58 379.25,-640.58 382.75,-640.58"/>
</g>
</g>
</svg>
