<?xml version="1.0" encoding="UTF-8" standalone="no"?>
<!DOCTYPE svg PUBLIC "-//W3C//DTD SVG 1.1//EN"
 "http://www.w3.org/Graphics/SVG/1.1/DTD/svg11.dtd">
<!-- Generated by graphviz version 2.43.0 (0)
 -->
<!-- Title: G Pages: 1 -->
<svg width="1451pt" height="332pt"
 viewBox="0.00 0.00 1450.50 332.00" xmlns="http://www.w3.org/2000/svg" xmlns:xlink="http://www.w3.org/1999/xlink">
<g id="graph0" class="graph" transform="scale(1 1) rotate(0) translate(4 328)">
<title>G</title>
<polygon fill="white" stroke="transparent" points="-4,4 -4,-328 1446.5,-328 1446.5,4 -4,4"/>
<!-- 5 -->
<g id="node1" class="node">
<title>5</title>
<ellipse fill="none" stroke="black" cx="290.5" cy="-90" rx="32.49" ry="18"/>
<text text-anchor="middle" x="290.5" y="-86.3" font-family="Times,serif" font-size="14.00">AND</text>
</g>
<!-- 1 -->
<g id="node8" class="node">
<title>1</title>
<polygon fill="none" stroke="black" points="592,-36 299,-36 299,0 592,0 592,-36"/>
<text text-anchor="middle" x="445.5" y="-14.3" font-family="Times,serif" font-size="14.00">[6] ~((x_xsdd + (y_xsdd * &#45;1.0)) &lt; &#45;1.0)</text>
</g>
<!-- 5&#45;&gt;1 -->
<g id="edge16" class="edge">
<title>5&#45;&gt;1</title>
<path fill="none" stroke="black" d="M315.06,-77.91C337.36,-67.84 370.85,-52.71 398.32,-40.31"/>
<polygon fill="black" stroke="black" points="400.08,-43.35 407.75,-36.05 397.2,-36.97 400.08,-43.35"/>
</g>
<!-- 2 -->
<g id="node10" class="node">
<title>2</title>
<polygon fill="none" stroke="black" points="281,-36 0,-36 0,0 281,0 281,-36"/>
<text text-anchor="middle" x="140.5" y="-14.3" font-family="Times,serif" font-size="14.00">[7] (((x_xsdd * &#45;1.0) + y_xsdd) &lt; &#45;1.0)</text>
</g>
<!-- 5&#45;&gt;2 -->
<g id="edge18" class="edge">
<title>5&#45;&gt;2</title>
<path fill="none" stroke="black" d="M266.4,-77.75C244.84,-67.69 212.66,-52.68 186.23,-40.34"/>
<polygon fill="black" stroke="black" points="187.69,-37.16 177.15,-36.1 184.73,-43.5 187.69,-37.16"/>
</g>
<!-- 9 -->
<g id="node2" class="node">
<title>9</title>
<ellipse fill="none" stroke="black" cx="1022.5" cy="-18" rx="30.59" ry="18"/>
<text text-anchor="middle" x="1022.5" y="-14.3" font-family="Times,serif" font-size="14.00">true</text>
</g>
<!-- 15 -->
<g id="node3" class="node">
<title>15</title>
<ellipse fill="none" stroke="black" cx="752.5" cy="-306" rx="46.29" ry="18"/>
<text text-anchor="middle" x="752.5" y="-302.3" font-family="Times,serif" font-size="14.00">[12] OR</text>
</g>
<!-- 13 -->
<g id="node7" class="node">
<title>13</title>
<ellipse fill="none" stroke="black" cx="600.5" cy="-234" rx="32.49" ry="18"/>
<text text-anchor="middle" x="600.5" y="-230.3" font-family="Times,serif" font-size="14.00">AND</text>
</g>
<!-- 15&#45;&gt;13 -->
<g id="edge12" class="edge">
<title>15&#45;&gt;13</title>
<path fill="none" stroke="black" d="M723.91,-291.83C698.48,-280.12 661.26,-262.98 634.35,-250.59"/>
<polygon fill="black" stroke="black" points="635.49,-247.26 624.95,-246.26 632.57,-253.62 635.49,-247.26"/>
</g>
<!-- 14 -->
<g id="node16" class="node">
<title>14</title>
<ellipse fill="none" stroke="black" cx="904.5" cy="-234" rx="32.49" ry="18"/>
<text text-anchor="middle" x="904.5" y="-230.3" font-family="Times,serif" font-size="14.00">AND</text>
</g>
<!-- 15&#45;&gt;14 -->
<g id="edge10" class="edge">
<title>15&#45;&gt;14</title>
<path fill="none" stroke="black" d="M781.09,-291.83C806.52,-280.12 843.74,-262.98 870.65,-250.59"/>
<polygon fill="black" stroke="black" points="872.43,-253.62 880.05,-246.26 869.51,-247.26 872.43,-253.62"/>
</g>
<!-- 3 -->
<g id="node4" class="node">
<title>3</title>
<polygon fill="none" stroke="black" points="974,-36 693,-36 693,0 974,0 974,-36"/>
<text text-anchor="middle" x="833.5" y="-14.3" font-family="Times,serif" font-size="14.00">[5] ((x_xsdd + (y_xsdd * &#45;1.0)) &lt; &#45;1.0)</text>
</g>
<!-- 11 -->
<g id="node5" class="node">
<title>11</title>
<ellipse fill="none" stroke="black" cx="904.5" cy="-90" rx="32.49" ry="18"/>
<text text-anchor="middle" x="904.5" y="-86.3" font-family="Times,serif" font-size="14.00">AND</text>
</g>
<!-- 11&#45;&gt;9 -->
<g id="edge14" class="edge">
<title>11&#45;&gt;9</title>
<path fill="none" stroke="black" d="M925.87,-76.32C944.61,-65.2 972.06,-48.92 992.91,-36.55"/>
<polygon fill="black" stroke="black" points="994.87,-39.46 1001.69,-31.35 991.3,-33.44 994.87,-39.46"/>
</g>
<!-- 11&#45;&gt;3 -->
<g id="edge15" class="edge">
<title>11&#45;&gt;3</title>
<path fill="none" stroke="black" d="M889.09,-73.81C880.04,-64.88 868.38,-53.38 858.07,-43.23"/>
<polygon fill="black" stroke="black" points="860.45,-40.66 850.87,-36.13 855.54,-45.64 860.45,-40.66"/>
</g>
<!-- 6 -->
<g id="node6" class="node">
<title>6</title>
<ellipse fill="none" stroke="black" cx="642.5" cy="-90" rx="32.49" ry="18"/>
<text text-anchor="middle" x="642.5" y="-86.3" font-family="Times,serif" font-size="14.00">AND</text>
</g>
<!-- 6&#45;&gt;3 -->
<g id="edge13" class="edge">
<title>6&#45;&gt;3</title>
<path fill="none" stroke="black" d="M669.06,-79.27C696.88,-69.07 741.43,-52.74 777.15,-39.65"/>
<polygon fill="black" stroke="black" points="778.78,-42.78 786.97,-36.05 776.37,-36.21 778.78,-42.78"/>
</g>
<!-- 4 -->
<g id="node12" class="node">
<title>4</title>
<ellipse fill="none" stroke="black" cx="642.5" cy="-18" rx="32.49" ry="18"/>
<text text-anchor="middle" x="642.5" y="-14.3" font-family="Times,serif" font-size="14.00">false</text>
</g>
<!-- 6&#45;&gt;4 -->
<g id="edge6" class="edge">
<title>6&#45;&gt;4</title>
<path fill="none" stroke="black" d="M642.5,-71.7C642.5,-63.98 642.5,-54.71 642.5,-46.11"/>
<polygon fill="black" stroke="black" points="646,-46.1 642.5,-36.1 639,-46.1 646,-46.1"/>
</g>
<!-- 7 -->
<g id="node9" class="node">
<title>7</title>
<ellipse fill="none" stroke="black" cx="290.5" cy="-162" rx="46.29" ry="18"/>
<text text-anchor="middle" x="290.5" y="-158.3" font-family="Times,serif" font-size="14.00">[11] OR</text>
</g>
<!-- 13&#45;&gt;7 -->
<g id="edge2" class="edge">
<title>13&#45;&gt;7</title>
<path fill="none" stroke="black" d="M570.06,-227.64C522.03,-218.97 425.85,-200.72 345.5,-180 341.9,-179.07 338.19,-178.05 334.47,-176.99"/>
<polygon fill="black" stroke="black" points="335.26,-173.58 324.68,-174.12 333.29,-180.3 335.26,-173.58"/>
</g>
<!-- 0 -->
<g id="node13" class="node">
<title>0</title>
<polygon fill="none" stroke="black" points="846.5,-180 354.5,-180 354.5,-144 846.5,-144 846.5,-180"/>
<text text-anchor="middle" x="600.5" y="-158.3" font-family="Times,serif" font-size="14.00">[4] ~((x_xsdd * &#45;3602879701896397/72057594037927936) &lt; &#45;1.0)</text>
</g>
<!-- 13&#45;&gt;0 -->
<g id="edge3" class="edge">
<title>13&#45;&gt;0</title>
<path fill="none" stroke="black" d="M600.5,-215.7C600.5,-207.98 600.5,-198.71 600.5,-190.11"/>
<polygon fill="black" stroke="black" points="604,-190.1 600.5,-180.1 597,-190.1 604,-190.1"/>
</g>
<!-- 7&#45;&gt;5 -->
<g id="edge17" class="edge">
<title>7&#45;&gt;5</title>
<path fill="none" stroke="black" d="M290.5,-143.7C290.5,-135.98 290.5,-126.71 290.5,-118.11"/>
<polygon fill="black" stroke="black" points="294,-118.1 290.5,-108.1 287,-118.1 294,-118.1"/>
</g>
<!-- 7&#45;&gt;6 -->
<g id="edge9" class="edge">
<title>7&#45;&gt;6</title>
<path fill="none" stroke="black" d="M324.65,-149.73C331.51,-147.67 338.7,-145.65 345.5,-144 435.58,-122.13 543.06,-105.17 600.83,-96.78"/>
<polygon fill="black" stroke="black" points="601.62,-100.2 611.02,-95.31 600.62,-93.27 601.62,-100.2"/>
</g>
<!-- 12 -->
<g id="node11" class="node">
<title>12</title>
<ellipse fill="none" stroke="black" cx="904.5" cy="-162" rx="40.09" ry="18"/>
<text text-anchor="middle" x="904.5" y="-158.3" font-family="Times,serif" font-size="14.00">[9] OR</text>
</g>
<!-- 12&#45;&gt;11 -->
<g id="edge8" class="edge">
<title>12&#45;&gt;11</title>
<path fill="none" stroke="black" d="M904.5,-143.7C904.5,-135.98 904.5,-126.71 904.5,-118.11"/>
<polygon fill="black" stroke="black" points="908,-118.1 904.5,-108.1 901,-118.1 908,-118.1"/>
</g>
<!-- 10 -->
<g id="node14" class="node">
<title>10</title>
<ellipse fill="none" stroke="black" cx="445.5" cy="-90" rx="32.49" ry="18"/>
<text text-anchor="middle" x="445.5" y="-86.3" font-family="Times,serif" font-size="14.00">AND</text>
</g>
<!-- 12&#45;&gt;10 -->
<g id="edge11" class="edge">
<title>12&#45;&gt;10</title>
<path fill="none" stroke="black" d="M874.99,-149.67C868.63,-147.54 861.9,-145.51 855.5,-144 820.11,-135.67 583.9,-107.32 486.93,-95.87"/>
<polygon fill="black" stroke="black" points="487.24,-92.38 476.9,-94.68 486.42,-99.33 487.24,-92.38"/>
</g>
<!-- 10&#45;&gt;1 -->
<g id="edge7" class="edge">
<title>10&#45;&gt;1</title>
<path fill="none" stroke="black" d="M445.5,-71.7C445.5,-63.98 445.5,-54.71 445.5,-46.11"/>
<polygon fill="black" stroke="black" points="449,-46.1 445.5,-36.1 442,-46.1 449,-46.1"/>
</g>
<!-- 10&#45;&gt;2 -->
<g id="edge4" class="edge">
<title>10&#45;&gt;2</title>
<path fill="none" stroke="black" d="M415.98,-82.22C372.2,-72.18 288.39,-52.94 224.65,-38.31"/>
<polygon fill="black" stroke="black" points="225.13,-34.83 214.6,-36.01 223.57,-41.66 225.13,-34.83"/>
</g>
<!-- 8 -->
<g id="node15" class="node">
<title>8</title>
<polygon fill="none" stroke="black" points="1442.5,-180 962.5,-180 962.5,-144 1442.5,-144 1442.5,-180"/>
<text text-anchor="middle" x="1202.5" y="-158.3" font-family="Times,serif" font-size="14.00">[3] ((x_xsdd * &#45;3602879701896397/72057594037927936) &lt; &#45;1.0)</text>
</g>
<!-- 14&#45;&gt;12 -->
<g id="edge5" class="edge">
<title>14&#45;&gt;12</title>
<path fill="none" stroke="black" d="M904.5,-215.7C904.5,-207.98 904.5,-198.71 904.5,-190.11"/>
<polygon fill="black" stroke="black" points="908,-190.1 904.5,-180.1 901,-190.1 908,-190.1"/>
</g>
<!-- 14&#45;&gt;8 -->
<g id="edge1" class="edge">
<title>14&#45;&gt;8</title>
<path fill="none" stroke="black" d="M933.89,-226.1C976.82,-216.01 1058.3,-196.87 1120.32,-182.31"/>
<polygon fill="black" stroke="black" points="1121.16,-185.7 1130.09,-180.01 1119.56,-178.89 1121.16,-185.7"/>
</g>
</g>
</svg>
