<?xml version="1.0" encoding="UTF-8" standalone="no"?>
<!DOCTYPE svg PUBLIC "-//W3C//DTD SVG 1.1//EN"
 "http://www.w3.org/Graphics/SVG/1.1/DTD/svg11.dtd">
<!-- Generated by graphviz version 2.43.0 (0)
 -->
<!-- Title: sdd Pages: 1 -->
<svg width="691pt" height="367pt"
 viewBox="0.00 0.00 691.00 367.31" xmlns="http://www.w3.org/2000/svg" xmlns:xlink="http://www.w3.org/1999/xlink">
<g id="graph0" class="graph" transform="scale(1 1) rotate(0) translate(4 363.31)">
<title>sdd</title>
<polygon fill="white" stroke="transparent" points="-4,4 -4,-363.31 687,-363.31 687,4 -4,4"/>
<!-- n20 -->
<g id="node1" class="node">
<title>n20</title>
<ellipse fill="#f2f2f2" stroke="black" cx="448.5" cy="-77.38" rx="18.27" ry="18.27"/>
<text text-anchor="middle" x="448.5" y="-73.68" font-family="Times,serif" font-size="14.00">9</text>
</g>
<!-- n20e0 -->
<g id="node12" class="node">
<title>n20e0</title>
<polygon fill="white" stroke="black" points="393,-0.5 393,-22.5 440,-22.5 440,-0.5 393,-0.5"/>
<text text-anchor="middle" x="401" y="-6.5" font-family="Times,serif" font-style="italic" font-size="20.00">E</text>
<polyline fill="none" stroke="black" points="409,-0.5 409,-22.5 "/>
<text text-anchor="middle" x="424.5" y="-6.5" font-family="Times,serif" font-style="italic" font-size="20.00">¬F</text>
</g>
<!-- n20&#45;&gt;n20e0 -->
<g id="edge1" class="edge">
<title>n20&#45;&gt;n20e0</title>
<path fill="none" stroke="black" d="M440.59,-60.59C435.5,-50.43 428.93,-37.31 423.93,-27.34"/>
<polygon fill="black" stroke="black" points="425.43,-26.42 421.62,-22.73 422.3,-27.98 425.43,-26.42"/>
</g>
<!-- n20e1 -->
<g id="node13" class="node">
<title>n20e1</title>
<polygon fill="white" stroke="black" points="458,-0.5 458,-22.5 505,-22.5 505,-0.5 458,-0.5"/>
<text text-anchor="middle" x="474" y="-6.5" font-family="Times,serif" font-style="italic" font-size="20.00">¬E</text>
<polyline fill="none" stroke="black" points="490,-0.5 490,-22.5 "/>
<text text-anchor="middle" x="497.5" y="-6.5" font-family="Times,serif" font-style="italic" font-size="20.00">F</text>
</g>
<!-- n20&#45;&gt;n20e1 -->
<g id="edge2" class="edge">
<title>n20&#45;&gt;n20e1</title>
<path fill="none" stroke="black" d="M456.66,-60.59C461.91,-50.43 468.68,-37.31 473.83,-27.34"/>
<polygon fill="black" stroke="black" points="475.48,-27.97 476.22,-22.73 472.37,-26.37 475.48,-27.97"/>
</g>
<!-- n40 -->
<g id="node2" class="node">
<title>n40</title>
<ellipse fill="#f2f2f2" stroke="black" cx="237.5" cy="-209.15" rx="18.27" ry="18.27"/>
<text text-anchor="middle" x="237.5" y="-205.45" font-family="Times,serif" font-size="14.00">7</text>
</g>
<!-- n40e0 -->
<g id="node14" class="node">
<title>n40e0</title>
<polygon fill="white" stroke="black" points="246,-132.27 246,-154.27 293,-154.27 293,-132.27 246,-132.27"/>
<text text-anchor="middle" x="260" y="-138.27" font-family="Times,serif" font-style="italic" font-size="20.00">D</text>
<polyline fill="none" stroke="black" points="274,-132.27 274,-154.27 "/>
<text text-anchor="middle" x="283.5" y="-138.27" font-family="Times,serif" font-style="italic" font-size="20.00"> </text>
</g>
<!-- n40&#45;&gt;n40e0 -->
<g id="edge3" class="edge">
<title>n40&#45;&gt;n40e0</title>
<path fill="none" stroke="black" d="M245.41,-192.36C250.5,-182.2 257.07,-169.08 262.07,-159.11"/>
<polygon fill="black" stroke="black" points="263.7,-159.75 264.38,-154.5 260.57,-158.19 263.7,-159.75"/>
</g>
<!-- n40e1 -->
<g id="node15" class="node">
<title>n40e1</title>
<polygon fill="white" stroke="black" points="181,-132.27 181,-154.27 228,-154.27 228,-132.27 181,-132.27"/>
<text text-anchor="middle" x="196.5" y="-138.27" font-family="Times,serif" font-style="italic" font-size="20.00">¬D</text>
<polyline fill="none" stroke="black" points="212,-132.27 212,-154.27 "/>
<text text-anchor="middle" x="220" y="-138.27" font-family="Times,serif" font-style="italic" font-size="20.00">⊥</text>
</g>
<!-- n40&#45;&gt;n40e1 -->
<g id="edge5" class="edge">
<title>n40&#45;&gt;n40e1</title>
<path fill="none" stroke="black" d="M229.34,-192.36C224.09,-182.2 217.32,-169.08 212.17,-159.11"/>
<polygon fill="black" stroke="black" points="213.63,-158.14 209.78,-154.5 210.52,-159.74 213.63,-158.14"/>
</g>
<!-- n29 -->
<g id="node3" class="node">
<title>n29</title>
<ellipse fill="#f2f2f2" stroke="black" cx="464.5" cy="-209.15" rx="18.27" ry="18.27"/>
<text text-anchor="middle" x="464.5" y="-205.45" font-family="Times,serif" font-size="14.00">7</text>
</g>
<!-- n29e0 -->
<g id="node16" class="node">
<title>n29e0</title>
<polygon fill="white" stroke="black" points="441,-132.27 441,-154.27 488,-154.27 488,-132.27 441,-132.27"/>
<text text-anchor="middle" x="459.5" y="-138.27" font-family="Times,serif" font-style="italic" font-size="20.00">¬D</text>
<polyline fill="none" stroke="black" points="478,-132.27 478,-154.27 "/>
<text text-anchor="middle" x="483" y="-138.27" font-family="Times,serif" font-style="italic" font-size="20.00"> </text>
</g>
<!-- n29&#45;&gt;n29e0 -->
<g id="edge6" class="edge">
<title>n29&#45;&gt;n29e0</title>
<path fill="none" stroke="black" d="M464.5,-190.7C464.5,-180.94 464.5,-168.89 464.5,-159.51"/>
<polygon fill="black" stroke="black" points="466.25,-159.34 464.5,-154.34 462.75,-159.34 466.25,-159.34"/>
</g>
<!-- n29e1 -->
<g id="node17" class="node">
<title>n29e1</title>
<polygon fill="white" stroke="black" points="506,-132.27 506,-154.27 553,-154.27 553,-132.27 506,-132.27"/>
<text text-anchor="middle" x="517" y="-138.27" font-family="Times,serif" font-style="italic" font-size="20.00">D</text>
<polyline fill="none" stroke="black" points="528,-132.27 528,-154.27 "/>
<text text-anchor="middle" x="540.5" y="-138.27" font-family="Times,serif" font-style="italic" font-size="20.00">⊥</text>
</g>
<!-- n29&#45;&gt;n29e1 -->
<g id="edge8" class="edge">
<title>n29&#45;&gt;n29e1</title>
<path fill="none" stroke="black" d="M477.34,-195.53C488.38,-184.69 504.26,-169.08 515.59,-157.94"/>
<polygon fill="black" stroke="black" points="516.91,-159.1 519.25,-154.35 514.45,-156.6 516.91,-159.1"/>
</g>
<!-- n41 -->
<g id="node4" class="node">
<title>n41</title>
<ellipse fill="#f2f2f2" stroke="black" cx="431.5" cy="-340.92" rx="18.27" ry="18.27"/>
<text text-anchor="middle" x="431.5" y="-337.22" font-family="Times,serif" font-size="14.00">5</text>
</g>
<!-- n41e0 -->
<g id="node18" class="node">
<title>n41e0</title>
<polygon fill="white" stroke="black" points="202,-264.04 202,-286.04 249,-286.04 249,-264.04 202,-264.04"/>
<text text-anchor="middle" x="213.5" y="-270.04" font-family="Times,serif" font-style="italic" font-size="20.00"> </text>
<polyline fill="none" stroke="black" points="225,-264.04 225,-286.04 "/>
<text text-anchor="middle" x="237" y="-270.04" font-family="Times,serif" font-style="italic" font-size="20.00"> </text>
</g>
<!-- n41&#45;&gt;n41e0 -->
<g id="edge9" class="edge">
<title>n41&#45;&gt;n41e0</title>
<path fill="none" stroke="black" d="M413.94,-334.48C378.34,-323.44 297.38,-298.33 254.08,-284.9"/>
<polygon fill="black" stroke="black" points="254.54,-283.21 249.24,-283.4 253.5,-286.56 254.54,-283.21"/>
</g>
<!-- n41e1 -->
<g id="node19" class="node">
<title>n41e1</title>
<polygon fill="white" stroke="black" points="408,-264.04 408,-286.04 455,-286.04 455,-264.04 408,-264.04"/>
<text text-anchor="middle" x="419.5" y="-270.04" font-family="Times,serif" font-style="italic" font-size="20.00"> </text>
<polyline fill="none" stroke="black" points="431,-264.04 431,-286.04 "/>
<text text-anchor="middle" x="443" y="-270.04" font-family="Times,serif" font-style="italic" font-size="20.00"> </text>
</g>
<!-- n41&#45;&gt;n41e1 -->
<g id="edge12" class="edge">
<title>n41&#45;&gt;n41e1</title>
<path fill="none" stroke="black" d="M431.5,-322.47C431.5,-312.71 431.5,-300.66 431.5,-291.28"/>
<polygon fill="black" stroke="black" points="433.25,-291.11 431.5,-286.11 429.75,-291.11 433.25,-291.11"/>
</g>
<!-- n41e2 -->
<g id="node20" class="node">
<title>n41e2</title>
<polygon fill="white" stroke="black" points="539,-264.04 539,-286.04 586,-286.04 586,-264.04 539,-264.04"/>
<text text-anchor="middle" x="548" y="-270.04" font-family="Times,serif" font-style="italic" font-size="20.00"> </text>
<polyline fill="none" stroke="black" points="557,-264.04 557,-286.04 "/>
<text text-anchor="middle" x="571.5" y="-270.04" font-family="Times,serif" font-style="italic" font-size="20.00">⊥</text>
</g>
<!-- n41&#45;&gt;n41e2 -->
<g id="edge15" class="edge">
<title>n41&#45;&gt;n41e2</title>
<path fill="none" stroke="black" d="M447.83,-331.96C470.17,-321.07 510.49,-301.4 536.88,-288.53"/>
<polygon fill="black" stroke="black" points="537.91,-289.98 541.64,-286.21 536.38,-286.83 537.91,-289.98"/>
</g>
<!-- n34 -->
<g id="node5" class="node">
<title>n34</title>
<ellipse fill="#f2f2f2" stroke="black" cx="157.5" cy="-77.38" rx="18.27" ry="18.27"/>
<text text-anchor="middle" x="157.5" y="-73.68" font-family="Times,serif" font-size="14.00">3</text>
</g>
<!-- n34e0 -->
<g id="node21" class="node">
<title>n34e0</title>
<polygon fill="white" stroke="black" points="132,-0.5 132,-22.5 179,-22.5 179,-0.5 132,-0.5"/>
<text text-anchor="middle" x="140" y="-6.5" font-family="Times,serif" font-style="italic" font-size="20.00">B</text>
<polyline fill="none" stroke="black" points="148,-0.5 148,-22.5 "/>
<text text-anchor="middle" x="163.5" y="-6.5" font-family="Times,serif" font-style="italic" font-size="20.00">¬C</text>
</g>
<!-- n34&#45;&gt;n34e0 -->
<g id="edge17" class="edge">
<title>n34&#45;&gt;n34e0</title>
<path fill="none" stroke="black" d="M156.95,-58.93C156.65,-49.17 156.27,-37.12 155.98,-27.74"/>
<polygon fill="black" stroke="black" points="157.72,-27.51 155.82,-22.57 154.22,-27.62 157.72,-27.51"/>
</g>
<!-- n34e1 -->
<g id="node22" class="node">
<title>n34e1</title>
<polygon fill="white" stroke="black" points="197,-0.5 197,-22.5 244,-22.5 244,-0.5 197,-0.5"/>
<text text-anchor="middle" x="212" y="-6.5" font-family="Times,serif" font-style="italic" font-size="20.00">¬B</text>
<polyline fill="none" stroke="black" points="227,-0.5 227,-22.5 "/>
<text text-anchor="middle" x="235.5" y="-6.5" font-family="Times,serif" font-style="italic" font-size="20.00">⊥</text>
</g>
<!-- n34&#45;&gt;n34e1 -->
<g id="edge18" class="edge">
<title>n34&#45;&gt;n34e1</title>
<path fill="none" stroke="black" d="M169.95,-63.76C180.64,-52.92 196.03,-37.31 207.02,-26.17"/>
<polygon fill="black" stroke="black" points="208.3,-27.37 210.56,-22.58 205.81,-24.91 208.3,-27.37"/>
</g>
<!-- n26 -->
<g id="node6" class="node">
<title>n26</title>
<ellipse fill="#f2f2f2" stroke="black" cx="88.5" cy="-77.38" rx="18.27" ry="18.27"/>
<text text-anchor="middle" x="88.5" y="-73.68" font-family="Times,serif" font-size="14.00">3</text>
</g>
<!-- n26e0 -->
<g id="node23" class="node">
<title>n26e0</title>
<polygon fill="white" stroke="black" points="0,-0.5 0,-22.5 47,-22.5 47,-0.5 0,-0.5"/>
<text text-anchor="middle" x="12" y="-6.5" font-family="Times,serif" font-style="italic" font-size="20.00">¬B</text>
<polyline fill="none" stroke="black" points="24,-0.5 24,-22.5 "/>
<text text-anchor="middle" x="35.5" y="-6.5" font-family="Times,serif" font-style="italic" font-size="20.00">¬C</text>
</g>
<!-- n26&#45;&gt;n26e0 -->
<g id="edge19" class="edge">
<title>n26&#45;&gt;n26e0</title>
<path fill="none" stroke="black" d="M75.66,-63.76C64.62,-52.92 48.74,-37.31 37.41,-26.17"/>
<polygon fill="black" stroke="black" points="38.55,-24.83 33.75,-22.58 36.09,-27.33 38.55,-24.83"/>
</g>
<!-- n26e1 -->
<g id="node24" class="node">
<title>n26e1</title>
<polygon fill="white" stroke="black" points="65,-0.5 65,-22.5 112,-22.5 112,-0.5 65,-0.5"/>
<text text-anchor="middle" x="76" y="-6.5" font-family="Times,serif" font-style="italic" font-size="20.00">B</text>
<polyline fill="none" stroke="black" points="87,-0.5 87,-22.5 "/>
<text text-anchor="middle" x="99.5" y="-6.5" font-family="Times,serif" font-style="italic" font-size="20.00">⊥</text>
</g>
<!-- n26&#45;&gt;n26e1 -->
<g id="edge20" class="edge">
<title>n26&#45;&gt;n26e1</title>
<path fill="none" stroke="black" d="M88.5,-58.93C88.5,-49.17 88.5,-37.12 88.5,-27.74"/>
<polygon fill="black" stroke="black" points="90.25,-27.57 88.5,-22.57 86.75,-27.57 90.25,-27.57"/>
</g>
<!-- n32 -->
<g id="node7" class="node">
<title>n32</title>
<ellipse fill="#f2f2f2" stroke="black" cx="351.5" cy="-77.38" rx="18.27" ry="18.27"/>
<text text-anchor="middle" x="351.5" y="-73.68" font-family="Times,serif" font-size="14.00">3</text>
</g>
<!-- n32e0 -->
<g id="node25" class="node">
<title>n32e0</title>
<polygon fill="white" stroke="black" points="263,-0.5 263,-22.5 310,-22.5 310,-0.5 263,-0.5"/>
<text text-anchor="middle" x="275" y="-6.5" font-family="Times,serif" font-style="italic" font-size="20.00">B</text>
<polyline fill="none" stroke="black" points="287,-0.5 287,-22.5 "/>
<text text-anchor="middle" x="298.5" y="-6.5" font-family="Times,serif" font-style="italic" font-size="20.00">C</text>
</g>
<!-- n32&#45;&gt;n32e0 -->
<g id="edge21" class="edge">
<title>n32&#45;&gt;n32e0</title>
<path fill="none" stroke="black" d="M338.66,-63.76C327.62,-52.92 311.74,-37.31 300.41,-26.17"/>
<polygon fill="black" stroke="black" points="301.55,-24.83 296.75,-22.58 299.09,-27.33 301.55,-24.83"/>
</g>
<!-- n32e1 -->
<g id="node26" class="node">
<title>n32e1</title>
<polygon fill="white" stroke="black" points="328,-0.5 328,-22.5 375,-22.5 375,-0.5 328,-0.5"/>
<text text-anchor="middle" x="343" y="-6.5" font-family="Times,serif" font-style="italic" font-size="20.00">¬B</text>
<polyline fill="none" stroke="black" points="358,-0.5 358,-22.5 "/>
<text text-anchor="middle" x="366.5" y="-6.5" font-family="Times,serif" font-style="italic" font-size="20.00">⊥</text>
</g>
<!-- n32&#45;&gt;n32e1 -->
<g id="edge22" class="edge">
<title>n32&#45;&gt;n32e1</title>
<path fill="none" stroke="black" d="M351.5,-58.93C351.5,-49.17 351.5,-37.12 351.5,-27.74"/>
<polygon fill="black" stroke="black" points="353.25,-27.57 351.5,-22.57 349.75,-27.57 353.25,-27.57"/>
</g>
<!-- n24 -->
<g id="node8" class="node">
<title>n24</title>
<ellipse fill="#f2f2f2" stroke="black" cx="546.5" cy="-77.38" rx="18.27" ry="18.27"/>
<text text-anchor="middle" x="546.5" y="-73.68" font-family="Times,serif" font-size="14.00">3</text>
</g>
<!-- n24e0 -->
<g id="node27" class="node">
<title>n24e0</title>
<polygon fill="white" stroke="black" points="523,-0.5 523,-22.5 570,-22.5 570,-0.5 523,-0.5"/>
<text text-anchor="middle" x="539" y="-6.5" font-family="Times,serif" font-style="italic" font-size="20.00">¬B</text>
<polyline fill="none" stroke="black" points="555,-0.5 555,-22.5 "/>
<text text-anchor="middle" x="562.5" y="-6.5" font-family="Times,serif" font-style="italic" font-size="20.00">C</text>
</g>
<!-- n24&#45;&gt;n24e0 -->
<g id="edge23" class="edge">
<title>n24&#45;&gt;n24e0</title>
<path fill="none" stroke="black" d="M546.5,-58.93C546.5,-49.17 546.5,-37.12 546.5,-27.74"/>
<polygon fill="black" stroke="black" points="548.25,-27.57 546.5,-22.57 544.75,-27.57 548.25,-27.57"/>
</g>
<!-- n24e1 -->
<g id="node28" class="node">
<title>n24e1</title>
<polygon fill="white" stroke="black" points="588,-0.5 588,-22.5 635,-22.5 635,-0.5 588,-0.5"/>
<text text-anchor="middle" x="599" y="-6.5" font-family="Times,serif" font-style="italic" font-size="20.00">B</text>
<polyline fill="none" stroke="black" points="610,-0.5 610,-22.5 "/>
<text text-anchor="middle" x="622.5" y="-6.5" font-family="Times,serif" font-style="italic" font-size="20.00">⊥</text>
</g>
<!-- n24&#45;&gt;n24e1 -->
<g id="edge24" class="edge">
<title>n24&#45;&gt;n24e1</title>
<path fill="none" stroke="black" d="M559.34,-63.76C570.38,-52.92 586.26,-37.31 597.59,-26.17"/>
<polygon fill="black" stroke="black" points="598.91,-27.33 601.25,-22.58 596.45,-24.83 598.91,-27.33"/>
</g>
<!-- n35 -->
<g id="node9" class="node">
<title>n35</title>
<ellipse fill="#f2f2f2" stroke="black" cx="139.5" cy="-209.15" rx="18.27" ry="18.27"/>
<text text-anchor="middle" x="139.5" y="-205.45" font-family="Times,serif" font-size="14.00">1</text>
</g>
<!-- n35e0 -->
<g id="node29" class="node">
<title>n35e0</title>
<polygon fill="white" stroke="black" points="116,-132.27 116,-154.27 163,-154.27 163,-132.27 116,-132.27"/>
<text text-anchor="middle" x="134" y="-138.27" font-family="Times,serif" font-style="italic" font-size="20.00">¬A</text>
<polyline fill="none" stroke="black" points="152,-132.27 152,-154.27 "/>
<text text-anchor="middle" x="157.5" y="-138.27" font-family="Times,serif" font-style="italic" font-size="20.00"> </text>
</g>
<!-- n35&#45;&gt;n35e0 -->
<g id="edge25" class="edge">
<title>n35&#45;&gt;n35e0</title>
<path fill="none" stroke="black" d="M139.5,-190.7C139.5,-180.94 139.5,-168.89 139.5,-159.51"/>
<polygon fill="black" stroke="black" points="141.25,-159.34 139.5,-154.34 137.75,-159.34 141.25,-159.34"/>
</g>
<!-- n35e1 -->
<g id="node30" class="node">
<title>n35e1</title>
<polygon fill="white" stroke="black" points="51,-132.27 51,-154.27 98,-154.27 98,-132.27 51,-132.27"/>
<text text-anchor="middle" x="65" y="-138.27" font-family="Times,serif" font-style="italic" font-size="20.00">A</text>
<polyline fill="none" stroke="black" points="79,-132.27 79,-154.27 "/>
<text text-anchor="middle" x="88.5" y="-138.27" font-family="Times,serif" font-style="italic" font-size="20.00"> </text>
</g>
<!-- n35&#45;&gt;n35e1 -->
<g id="edge27" class="edge">
<title>n35&#45;&gt;n35e1</title>
<path fill="none" stroke="black" d="M126.66,-195.53C115.62,-184.69 99.74,-169.08 88.41,-157.94"/>
<polygon fill="black" stroke="black" points="89.55,-156.6 84.75,-154.35 87.09,-159.1 89.55,-156.6"/>
</g>
<!-- n33 -->
<g id="node10" class="node">
<title>n33</title>
<ellipse fill="#f2f2f2" stroke="black" cx="399.5" cy="-209.15" rx="18.27" ry="18.27"/>
<text text-anchor="middle" x="399.5" y="-205.45" font-family="Times,serif" font-size="14.00">1</text>
</g>
<!-- n33e0 -->
<g id="node31" class="node">
<title>n33e0</title>
<polygon fill="white" stroke="black" points="311,-132.27 311,-154.27 358,-154.27 358,-132.27 311,-132.27"/>
<text text-anchor="middle" x="329" y="-138.27" font-family="Times,serif" font-style="italic" font-size="20.00">¬A</text>
<polyline fill="none" stroke="black" points="347,-132.27 347,-154.27 "/>
<text text-anchor="middle" x="352.5" y="-138.27" font-family="Times,serif" font-style="italic" font-size="20.00"> </text>
</g>
<!-- n33&#45;&gt;n33e0 -->
<g id="edge29" class="edge">
<title>n33&#45;&gt;n33e0</title>
<path fill="none" stroke="black" d="M386.66,-195.53C375.62,-184.69 359.74,-169.08 348.41,-157.94"/>
<polygon fill="black" stroke="black" points="349.55,-156.6 344.75,-154.35 347.09,-159.1 349.55,-156.6"/>
</g>
<!-- n33e1 -->
<g id="node32" class="node">
<title>n33e1</title>
<polygon fill="white" stroke="black" points="376,-132.27 376,-154.27 423,-154.27 423,-132.27 376,-132.27"/>
<text text-anchor="middle" x="390" y="-138.27" font-family="Times,serif" font-style="italic" font-size="20.00">A</text>
<polyline fill="none" stroke="black" points="404,-132.27 404,-154.27 "/>
<text text-anchor="middle" x="413.5" y="-138.27" font-family="Times,serif" font-style="italic" font-size="20.00"> </text>
</g>
<!-- n33&#45;&gt;n33e1 -->
<g id="edge31" class="edge">
<title>n33&#45;&gt;n33e1</title>
<path fill="none" stroke="black" d="M399.5,-190.7C399.5,-180.94 399.5,-168.89 399.5,-159.51"/>
<polygon fill="black" stroke="black" points="401.25,-159.34 399.5,-154.34 397.75,-159.34 401.25,-159.34"/>
</g>
<!-- n36 -->
<g id="node11" class="node">
<title>n36</title>
<ellipse fill="#f2f2f2" stroke="black" cx="594.5" cy="-209.15" rx="18.27" ry="18.27"/>
<text text-anchor="middle" x="594.5" y="-205.45" font-family="Times,serif" font-size="14.00">1</text>
</g>
<!-- n36e0 -->
<g id="node33" class="node">
<title>n36e0</title>
<polygon fill="white" stroke="black" points="571,-132.27 571,-154.27 618,-154.27 618,-132.27 571,-132.27"/>
<text text-anchor="middle" x="582.5" y="-138.27" font-family="Times,serif" font-style="italic" font-size="20.00">¬A</text>
<polyline fill="none" stroke="black" points="594,-132.27 594,-154.27 "/>
<text text-anchor="middle" x="606" y="-138.27" font-family="Times,serif" font-style="italic" font-size="20.00">¬B</text>
</g>
<!-- n36&#45;&gt;n36e0 -->
<g id="edge33" class="edge">
<title>n36&#45;&gt;n36e0</title>
<path fill="none" stroke="black" d="M594.5,-190.7C594.5,-180.94 594.5,-168.89 594.5,-159.51"/>
<polygon fill="black" stroke="black" points="596.25,-159.34 594.5,-154.34 592.75,-159.34 596.25,-159.34"/>
</g>
<!-- n36e1 -->
<g id="node34" class="node">
<title>n36e1</title>
<polygon fill="white" stroke="black" points="636,-132.27 636,-154.27 683,-154.27 683,-132.27 636,-132.27"/>
<text text-anchor="middle" x="647.5" y="-138.27" font-family="Times,serif" font-style="italic" font-size="20.00">A</text>
<polyline fill="none" stroke="black" points="659,-132.27 659,-154.27 "/>
<text text-anchor="middle" x="671" y="-138.27" font-family="Times,serif" font-style="italic" font-size="20.00">B</text>
</g>
<!-- n36&#45;&gt;n36e1 -->
<g id="edge34" class="edge">
<title>n36&#45;&gt;n36e1</title>
<path fill="none" stroke="black" d="M607.34,-195.53C618.38,-184.69 634.26,-169.08 645.59,-157.94"/>
<polygon fill="black" stroke="black" points="646.91,-159.1 649.25,-154.35 644.45,-156.6 646.91,-159.1"/>
</g>
<!-- n40e0&#45;&gt;n20 -->
<g id="edge4" class="edge">
<title>n40e0:c&#45;&gt;n20</title>
<path fill="none" stroke="black" d="M285.73,-139.38C287.33,-136.89 289.69,-133.77 292.5,-131.77 314.43,-116.17 388.33,-94.68 426,-84.37"/>
<ellipse fill="black" stroke="black" cx="284.49" cy="-141.53" rx="2" ry="2"/>
<polygon fill="black" stroke="black" points="426.49,-86.06 430.85,-83.05 425.57,-82.68 426.49,-86.06"/>
</g>
<!-- n29e0&#45;&gt;n20 -->
<g id="edge7" class="edge">
<title>n29e0:c&#45;&gt;n20</title>
<path fill="none" stroke="black" d="M481.52,-139.43C480.35,-137.19 478.85,-134.31 477.5,-131.77 471.57,-120.63 464.84,-108.24 459.37,-98.2"/>
<ellipse fill="black" stroke="black" cx="482.58" cy="-141.49" rx="2" ry="2"/>
<polygon fill="black" stroke="black" points="460.88,-97.32 456.94,-93.77 457.81,-98.99 460.88,-97.32"/>
</g>
<!-- n41e0&#45;&gt;n40 -->
<g id="edge11" class="edge">
<title>n41e0:c&#45;&gt;n40</title>
<path fill="none" stroke="black" d="M237.5,-270.86C237.5,-263.29 237.5,-246.79 237.5,-232.91"/>
<ellipse fill="black" stroke="black" cx="237.5" cy="-273.04" rx="2" ry="2"/>
<polygon fill="black" stroke="black" points="239.25,-232.54 237.5,-227.54 235.75,-232.54 239.25,-232.54"/>
</g>
<!-- n41e0&#45;&gt;n35 -->
<g id="edge10" class="edge">
<title>n41e0:c&#45;&gt;n35</title>
<path fill="none" stroke="black" d="M210.69,-271.93C208.51,-269.56 205.4,-266.27 202.5,-263.54 187.96,-249.85 170.6,-235.26 157.79,-224.8"/>
<ellipse fill="black" stroke="black" cx="212.16" cy="-273.56" rx="2" ry="2"/>
<polygon fill="black" stroke="black" points="158.61,-223.21 153.63,-221.41 156.4,-225.93 158.61,-223.21"/>
</g>
<!-- n41e1&#45;&gt;n29 -->
<g id="edge14" class="edge">
<title>n41e1:c&#45;&gt;n29</title>
<path fill="none" stroke="black" d="M444.8,-271.03C447.28,-263.36 452.86,-246.11 457.45,-231.93"/>
<ellipse fill="black" stroke="black" cx="444.12" cy="-273.14" rx="2" ry="2"/>
<polygon fill="black" stroke="black" points="459.22,-232.16 459.09,-226.86 455.89,-231.08 459.22,-232.16"/>
</g>
<!-- n41e1&#45;&gt;n33 -->
<g id="edge13" class="edge">
<title>n41e1:c&#45;&gt;n33</title>
<path fill="none" stroke="black" d="M418.26,-271.03C415.9,-263.36 410.58,-246.11 406.21,-231.93"/>
<ellipse fill="black" stroke="black" cx="418.91" cy="-273.13" rx="2" ry="2"/>
<polygon fill="black" stroke="black" points="407.8,-231.13 404.65,-226.86 404.45,-232.16 407.8,-231.13"/>
</g>
<!-- n41e2&#45;&gt;n36 -->
<g id="edge16" class="edge">
<title>n41e2:c&#45;&gt;n36</title>
<path fill="none" stroke="black" d="M549.86,-271.77C555.51,-263.99 570.1,-243.83 581.08,-228.68"/>
<ellipse fill="black" stroke="black" cx="548.67" cy="-273.42" rx="2" ry="2"/>
<polygon fill="black" stroke="black" points="582.55,-229.63 584.07,-224.55 579.72,-227.58 582.55,-229.63"/>
</g>
<!-- n35e0&#45;&gt;n34 -->
<g id="edge26" class="edge">
<title>n35e0:c&#45;&gt;n34</title>
<path fill="none" stroke="black" d="M157.5,-139.09C157.5,-131.52 157.5,-115.02 157.5,-101.14"/>
<ellipse fill="black" stroke="black" cx="157.5" cy="-141.27" rx="2" ry="2"/>
<polygon fill="black" stroke="black" points="159.25,-100.77 157.5,-95.77 155.75,-100.77 159.25,-100.77"/>
</g>
<!-- n35e1&#45;&gt;n26 -->
<g id="edge28" class="edge">
<title>n35e1:c&#45;&gt;n26</title>
<path fill="none" stroke="black" d="M88.5,-139.09C88.5,-131.52 88.5,-115.02 88.5,-101.14"/>
<ellipse fill="black" stroke="black" cx="88.5" cy="-141.27" rx="2" ry="2"/>
<polygon fill="black" stroke="black" points="90.25,-100.77 88.5,-95.77 86.75,-100.77 90.25,-100.77"/>
</g>
<!-- n33e0&#45;&gt;n32 -->
<g id="edge30" class="edge">
<title>n33e0:c&#45;&gt;n32</title>
<path fill="none" stroke="black" d="M352.44,-139.09C352.32,-131.52 352.06,-115.02 351.85,-101.14"/>
<ellipse fill="black" stroke="black" cx="352.47" cy="-141.27" rx="2" ry="2"/>
<polygon fill="black" stroke="black" points="353.59,-100.75 351.77,-95.77 350.1,-100.8 353.59,-100.75"/>
</g>
<!-- n33e1&#45;&gt;n24 -->
<g id="edge32" class="edge">
<title>n33e1:c&#45;&gt;n24</title>
<path fill="none" stroke="black" d="M415.78,-139.45C417.4,-136.99 419.77,-133.87 422.5,-131.77 453.65,-107.76 497.25,-92.29 523.58,-84.48"/>
<ellipse fill="black" stroke="black" cx="414.52" cy="-141.55" rx="2" ry="2"/>
<polygon fill="black" stroke="black" points="524.3,-86.09 528.61,-83.02 523.32,-82.73 524.3,-86.09"/>
</g>
</g>
</svg>
