<?xml version="1.0" encoding="UTF-8" standalone="no"?>
<!DOCTYPE svg PUBLIC "-//W3C//DTD SVG 1.1//EN"
 "http://www.w3.org/Graphics/SVG/1.1/DTD/svg11.dtd">
<!-- Generated by graphviz version 2.43.0 (0)
 -->
<!-- Title: sdd Pages: 1 -->
<svg width="2488pt" height="367pt"
 viewBox="0.00 0.00 2488.00 367.31" xmlns="http://www.w3.org/2000/svg" xmlns:xlink="http://www.w3.org/1999/xlink">
<g id="graph0" class="graph" transform="scale(1 1) rotate(0) translate(4 363.31)">
<title>sdd</title>
<polygon fill="white" stroke="transparent" points="-4,4 -4,-363.31 2484,-363.31 2484,4 -4,4"/>
<!-- n20 -->
<g id="node1" class="node">
<title>n20</title>
<ellipse fill="#f2f2f2" stroke="black" cx="1632" cy="-77.38" rx="18.27" ry="18.27"/>
<text text-anchor="middle" x="1632" y="-73.68" font-family="Times,serif" font-size="14.00">9</text>
</g>
<!-- n20e0 -->
<g id="node12" class="node">
<title>n20e0</title>
<polygon fill="white" stroke="black" points="1407,-0.5 1407,-22.5 1623,-22.5 1623,-0.5 1407,-0.5"/>
<text text-anchor="middle" x="1457" y="-6.5" font-family="Times,serif" font-style="italic" font-size="20.00">x1 &lt;= x4</text>
<polyline fill="none" stroke="black" points="1507,-0.5 1507,-22.5 "/>
<text text-anchor="middle" x="1565" y="-6.5" font-family="Times,serif" font-style="italic" font-size="20.00">¬x4 &lt;= x1</text>
</g>
<!-- n20&#45;&gt;n20e0 -->
<g id="edge1" class="edge">
<title>n20&#45;&gt;n20e0</title>
<path fill="none" stroke="black" d="M1616.22,-67.77C1596.1,-56.79 1561.17,-37.71 1538.07,-25.1"/>
<polygon fill="black" stroke="black" points="1538.84,-23.52 1533.61,-22.66 1537.16,-26.59 1538.84,-23.52"/>
</g>
<!-- n20e1 -->
<g id="node13" class="node">
<title>n20e1</title>
<polygon fill="white" stroke="black" points="1641,-0.5 1641,-22.5 1857,-22.5 1857,-0.5 1641,-0.5"/>
<text text-anchor="middle" x="1699" y="-6.5" font-family="Times,serif" font-style="italic" font-size="20.00">¬x1 &lt;= x4</text>
<polyline fill="none" stroke="black" points="1757,-0.5 1757,-22.5 "/>
<text text-anchor="middle" x="1807" y="-6.5" font-family="Times,serif" font-style="italic" font-size="20.00">x4 &lt;= x1</text>
</g>
<!-- n20&#45;&gt;n20e1 -->
<g id="edge2" class="edge">
<title>n20&#45;&gt;n20e1</title>
<path fill="none" stroke="black" d="M1647.78,-67.77C1667.9,-56.79 1702.83,-37.71 1725.93,-25.1"/>
<polygon fill="black" stroke="black" points="1726.84,-26.59 1730.39,-22.66 1725.16,-23.52 1726.84,-26.59"/>
</g>
<!-- n40 -->
<g id="node2" class="node">
<title>n40</title>
<ellipse fill="#f2f2f2" stroke="black" cx="851" cy="-209.15" rx="18.27" ry="18.27"/>
<text text-anchor="middle" x="851" y="-205.45" font-family="Times,serif" font-size="14.00">7</text>
</g>
<!-- n40e0 -->
<g id="node14" class="node">
<title>n40e0</title>
<polygon fill="white" stroke="black" points="860,-132.27 860,-154.27 1076,-154.27 1076,-132.27 860,-132.27"/>
<text text-anchor="middle" x="935.5" y="-138.27" font-family="Times,serif" font-style="italic" font-size="20.00">x4 &lt;= x3</text>
<polyline fill="none" stroke="black" points="1011,-132.27 1011,-154.27 "/>
<text text-anchor="middle" x="1043.5" y="-138.27" font-family="Times,serif" font-style="italic" font-size="20.00"> </text>
</g>
<!-- n40&#45;&gt;n40e0 -->
<g id="edge3" class="edge">
<title>n40&#45;&gt;n40e0</title>
<path fill="none" stroke="black" d="M866.78,-199.54C886.9,-188.55 921.83,-169.48 944.93,-156.86"/>
<polygon fill="black" stroke="black" points="945.84,-158.36 949.39,-154.43 944.16,-155.29 945.84,-158.36"/>
</g>
<!-- n40e1 -->
<g id="node15" class="node">
<title>n40e1</title>
<polygon fill="white" stroke="black" points="626,-132.27 626,-154.27 842,-154.27 842,-132.27 626,-132.27"/>
<text text-anchor="middle" x="702.5" y="-138.27" font-family="Times,serif" font-style="italic" font-size="20.00">¬x4 &lt;= x3</text>
<polyline fill="none" stroke="black" points="779,-132.27 779,-154.27 "/>
<text text-anchor="middle" x="810.5" y="-138.27" font-family="Times,serif" font-style="italic" font-size="20.00">⊥</text>
</g>
<!-- n40&#45;&gt;n40e1 -->
<g id="edge5" class="edge">
<title>n40&#45;&gt;n40e1</title>
<path fill="none" stroke="black" d="M835.22,-199.54C815.1,-188.55 780.17,-169.48 757.07,-156.86"/>
<polygon fill="black" stroke="black" points="757.84,-155.29 752.61,-154.43 756.16,-158.36 757.84,-155.29"/>
</g>
<!-- n29 -->
<g id="node3" class="node">
<title>n29</title>
<ellipse fill="#f2f2f2" stroke="black" cx="1670" cy="-209.15" rx="18.27" ry="18.27"/>
<text text-anchor="middle" x="1670" y="-205.45" font-family="Times,serif" font-size="14.00">7</text>
</g>
<!-- n29e0 -->
<g id="node16" class="node">
<title>n29e0</title>
<polygon fill="white" stroke="black" points="1562,-132.27 1562,-154.27 1778,-154.27 1778,-132.27 1562,-132.27"/>
<text text-anchor="middle" x="1641.5" y="-138.27" font-family="Times,serif" font-style="italic" font-size="20.00">¬x4 &lt;= x3</text>
<polyline fill="none" stroke="black" points="1721,-132.27 1721,-154.27 "/>
<text text-anchor="middle" x="1749.5" y="-138.27" font-family="Times,serif" font-style="italic" font-size="20.00"> </text>
</g>
<!-- n29&#45;&gt;n29e0 -->
<g id="edge6" class="edge">
<title>n29&#45;&gt;n29e0</title>
<path fill="none" stroke="black" d="M1670,-190.7C1670,-180.94 1670,-168.89 1670,-159.51"/>
<polygon fill="black" stroke="black" points="1671.75,-159.34 1670,-154.34 1668.25,-159.34 1671.75,-159.34"/>
</g>
<!-- n29e1 -->
<g id="node17" class="node">
<title>n29e1</title>
<polygon fill="white" stroke="black" points="1796,-132.27 1796,-154.27 2012,-154.27 2012,-132.27 1796,-132.27"/>
<text text-anchor="middle" x="1868.5" y="-138.27" font-family="Times,serif" font-style="italic" font-size="20.00">x4 &lt;= x3</text>
<polyline fill="none" stroke="black" points="1941,-132.27 1941,-154.27 "/>
<text text-anchor="middle" x="1976.5" y="-138.27" font-family="Times,serif" font-style="italic" font-size="20.00">⊥</text>
</g>
<!-- n29&#45;&gt;n29e1 -->
<g id="edge8" class="edge">
<title>n29&#45;&gt;n29e1</title>
<path fill="none" stroke="black" d="M1687.59,-203.35C1724.45,-193.29 1810.67,-169.75 1862.47,-155.61"/>
<polygon fill="black" stroke="black" points="1863.01,-157.28 1867.37,-154.27 1862.08,-153.9 1863.01,-157.28"/>
</g>
<!-- n41 -->
<g id="node4" class="node">
<title>n41</title>
<ellipse fill="#f2f2f2" stroke="black" cx="1553" cy="-340.92" rx="18.27" ry="18.27"/>
<text text-anchor="middle" x="1553" y="-337.22" font-family="Times,serif" font-size="14.00">5</text>
</g>
<!-- n41e0 -->
<g id="node18" class="node">
<title>n41e0</title>
<polygon fill="white" stroke="black" points="689,-264.04 689,-286.04 905,-286.04 905,-264.04 689,-264.04"/>
<text text-anchor="middle" x="743" y="-270.04" font-family="Times,serif" font-style="italic" font-size="20.00"> </text>
<polyline fill="none" stroke="black" points="797,-264.04 797,-286.04 "/>
<text text-anchor="middle" x="851" y="-270.04" font-family="Times,serif" font-style="italic" font-size="20.00"> </text>
</g>
<!-- n41&#45;&gt;n41e0 -->
<g id="edge9" class="edge">
<title>n41&#45;&gt;n41e0</title>
<path fill="none" stroke="black" d="M1534.69,-338.38C1450.35,-331.25 1095.61,-301.27 910.51,-285.63"/>
<polygon fill="black" stroke="black" points="910.48,-283.87 905.35,-285.2 910.19,-287.36 910.48,-283.87"/>
</g>
<!-- n41e1 -->
<g id="node19" class="node">
<title>n41e1</title>
<polygon fill="white" stroke="black" points="1445,-264.04 1445,-286.04 1661,-286.04 1661,-264.04 1445,-264.04"/>
<text text-anchor="middle" x="1499" y="-270.04" font-family="Times,serif" font-style="italic" font-size="20.00"> </text>
<polyline fill="none" stroke="black" points="1553,-264.04 1553,-286.04 "/>
<text text-anchor="middle" x="1607" y="-270.04" font-family="Times,serif" font-style="italic" font-size="20.00"> </text>
</g>
<!-- n41&#45;&gt;n41e1 -->
<g id="edge12" class="edge">
<title>n41&#45;&gt;n41e1</title>
<path fill="none" stroke="black" d="M1553,-322.47C1553,-312.71 1553,-300.66 1553,-291.28"/>
<polygon fill="black" stroke="black" points="1554.75,-291.11 1553,-286.11 1551.25,-291.11 1554.75,-291.11"/>
</g>
<!-- n41e2 -->
<g id="node20" class="node">
<title>n41e2</title>
<polygon fill="white" stroke="black" points="1883,-264.04 1883,-286.04 2099,-286.04 2099,-264.04 1883,-264.04"/>
<text text-anchor="middle" x="1934" y="-270.04" font-family="Times,serif" font-style="italic" font-size="20.00"> </text>
<polyline fill="none" stroke="black" points="1985,-264.04 1985,-286.04 "/>
<text text-anchor="middle" x="2042" y="-270.04" font-family="Times,serif" font-style="italic" font-size="20.00">⊥</text>
</g>
<!-- n41&#45;&gt;n41e2 -->
<g id="edge15" class="edge">
<title>n41&#45;&gt;n41e2</title>
<path fill="none" stroke="black" d="M1571.26,-337.26C1629.46,-328.77 1812.8,-302.03 1916.9,-286.85"/>
<polygon fill="black" stroke="black" points="1917.41,-288.54 1922.11,-286.09 1916.91,-285.08 1917.41,-288.54"/>
</g>
<!-- n34 -->
<g id="node5" class="node">
<title>n34</title>
<ellipse fill="#f2f2f2" stroke="black" cx="580" cy="-77.38" rx="18.27" ry="18.27"/>
<text text-anchor="middle" x="580" y="-73.68" font-family="Times,serif" font-size="14.00">3</text>
</g>
<!-- n34e0 -->
<g id="node21" class="node">
<title>n34e0</title>
<polygon fill="white" stroke="black" points="470,-0.5 470,-22.5 686,-22.5 686,-0.5 470,-0.5"/>
<text text-anchor="middle" x="520" y="-6.5" font-family="Times,serif" font-style="italic" font-size="20.00">x2 &lt;= x1</text>
<polyline fill="none" stroke="black" points="570,-0.5 570,-22.5 "/>
<text text-anchor="middle" x="628" y="-6.5" font-family="Times,serif" font-style="italic" font-size="20.00">¬x3 &lt;= x4</text>
</g>
<!-- n34&#45;&gt;n34e0 -->
<g id="edge17" class="edge">
<title>n34&#45;&gt;n34e0</title>
<path fill="none" stroke="black" d="M579.45,-58.93C579.15,-49.17 578.77,-37.12 578.48,-27.74"/>
<polygon fill="black" stroke="black" points="580.22,-27.51 578.32,-22.57 576.72,-27.62 580.22,-27.51"/>
</g>
<!-- n34e1 -->
<g id="node22" class="node">
<title>n34e1</title>
<polygon fill="white" stroke="black" points="704,-0.5 704,-22.5 920,-22.5 920,-0.5 704,-0.5"/>
<text text-anchor="middle" x="780.5" y="-6.5" font-family="Times,serif" font-style="italic" font-size="20.00">¬x2 &lt;= x1</text>
<polyline fill="none" stroke="black" points="857,-0.5 857,-22.5 "/>
<text text-anchor="middle" x="888.5" y="-6.5" font-family="Times,serif" font-style="italic" font-size="20.00">⊥</text>
</g>
<!-- n34&#45;&gt;n34e1 -->
<g id="edge18" class="edge">
<title>n34&#45;&gt;n34e1</title>
<path fill="none" stroke="black" d="M597.82,-71.48C634.52,-61.37 719.36,-38.01 770.56,-23.91"/>
<polygon fill="black" stroke="black" points="771.06,-25.59 775.41,-22.58 770.13,-22.22 771.06,-25.59"/>
</g>
<!-- n26 -->
<g id="node6" class="node">
<title>n26</title>
<ellipse fill="#f2f2f2" stroke="black" cx="342" cy="-77.38" rx="18.27" ry="18.27"/>
<text text-anchor="middle" x="342" y="-73.68" font-family="Times,serif" font-size="14.00">3</text>
</g>
<!-- n26e0 -->
<g id="node23" class="node">
<title>n26e0</title>
<polygon fill="white" stroke="black" points="0,-0.5 0,-22.5 216,-22.5 216,-0.5 0,-0.5"/>
<text text-anchor="middle" x="54" y="-6.5" font-family="Times,serif" font-style="italic" font-size="20.00">¬x2 &lt;= x1</text>
<polyline fill="none" stroke="black" points="108,-0.5 108,-22.5 "/>
<text text-anchor="middle" x="162" y="-6.5" font-family="Times,serif" font-style="italic" font-size="20.00">¬x3 &lt;= x4</text>
</g>
<!-- n26&#45;&gt;n26e0 -->
<g id="edge19" class="edge">
<title>n26&#45;&gt;n26e0</title>
<path fill="none" stroke="black" d="M324.41,-71.58C287.55,-61.52 201.33,-37.98 149.53,-23.84"/>
<polygon fill="black" stroke="black" points="149.92,-22.13 144.63,-22.5 148.99,-25.51 149.92,-22.13"/>
</g>
<!-- n26e1 -->
<g id="node24" class="node">
<title>n26e1</title>
<polygon fill="white" stroke="black" points="234,-0.5 234,-22.5 450,-22.5 450,-0.5 234,-0.5"/>
<text text-anchor="middle" x="306.5" y="-6.5" font-family="Times,serif" font-style="italic" font-size="20.00">x2 &lt;= x1</text>
<polyline fill="none" stroke="black" points="379,-0.5 379,-22.5 "/>
<text text-anchor="middle" x="414.5" y="-6.5" font-family="Times,serif" font-style="italic" font-size="20.00">⊥</text>
</g>
<!-- n26&#45;&gt;n26e1 -->
<g id="edge20" class="edge">
<title>n26&#45;&gt;n26e1</title>
<path fill="none" stroke="black" d="M342,-58.93C342,-49.17 342,-37.12 342,-27.74"/>
<polygon fill="black" stroke="black" points="343.75,-27.57 342,-22.57 340.25,-27.57 343.75,-27.57"/>
</g>
<!-- n32 -->
<g id="node7" class="node">
<title>n32</title>
<ellipse fill="#f2f2f2" stroke="black" cx="1281" cy="-77.38" rx="18.27" ry="18.27"/>
<text text-anchor="middle" x="1281" y="-73.68" font-family="Times,serif" font-size="14.00">3</text>
</g>
<!-- n32e0 -->
<g id="node25" class="node">
<title>n32e0</title>
<polygon fill="white" stroke="black" points="939,-0.5 939,-22.5 1155,-22.5 1155,-0.5 939,-0.5"/>
<text text-anchor="middle" x="993" y="-6.5" font-family="Times,serif" font-style="italic" font-size="20.00">x2 &lt;= x1</text>
<polyline fill="none" stroke="black" points="1047,-0.5 1047,-22.5 "/>
<text text-anchor="middle" x="1101" y="-6.5" font-family="Times,serif" font-style="italic" font-size="20.00">x3 &lt;= x4</text>
</g>
<!-- n32&#45;&gt;n32e0 -->
<g id="edge21" class="edge">
<title>n32&#45;&gt;n32e0</title>
<path fill="none" stroke="black" d="M1263.41,-71.58C1226.55,-61.52 1140.33,-37.98 1088.53,-23.84"/>
<polygon fill="black" stroke="black" points="1088.92,-22.13 1083.63,-22.5 1087.99,-25.51 1088.92,-22.13"/>
</g>
<!-- n32e1 -->
<g id="node26" class="node">
<title>n32e1</title>
<polygon fill="white" stroke="black" points="1173,-0.5 1173,-22.5 1389,-22.5 1389,-0.5 1173,-0.5"/>
<text text-anchor="middle" x="1249.5" y="-6.5" font-family="Times,serif" font-style="italic" font-size="20.00">¬x2 &lt;= x1</text>
<polyline fill="none" stroke="black" points="1326,-0.5 1326,-22.5 "/>
<text text-anchor="middle" x="1357.5" y="-6.5" font-family="Times,serif" font-style="italic" font-size="20.00">⊥</text>
</g>
<!-- n32&#45;&gt;n32e1 -->
<g id="edge22" class="edge">
<title>n32&#45;&gt;n32e1</title>
<path fill="none" stroke="black" d="M1281,-58.93C1281,-49.17 1281,-37.12 1281,-27.74"/>
<polygon fill="black" stroke="black" points="1282.75,-27.57 1281,-22.57 1279.25,-27.57 1282.75,-27.57"/>
</g>
<!-- n24 -->
<g id="node8" class="node">
<title>n24</title>
<ellipse fill="#f2f2f2" stroke="black" cx="1983" cy="-77.38" rx="18.27" ry="18.27"/>
<text text-anchor="middle" x="1983" y="-73.68" font-family="Times,serif" font-size="14.00">3</text>
</g>
<!-- n24e0 -->
<g id="node27" class="node">
<title>n24e0</title>
<polygon fill="white" stroke="black" points="1875,-0.5 1875,-22.5 2091,-22.5 2091,-0.5 1875,-0.5"/>
<text text-anchor="middle" x="1933" y="-6.5" font-family="Times,serif" font-style="italic" font-size="20.00">¬x2 &lt;= x1</text>
<polyline fill="none" stroke="black" points="1991,-0.5 1991,-22.5 "/>
<text text-anchor="middle" x="2041" y="-6.5" font-family="Times,serif" font-style="italic" font-size="20.00">x3 &lt;= x4</text>
</g>
<!-- n24&#45;&gt;n24e0 -->
<g id="edge23" class="edge">
<title>n24&#45;&gt;n24e0</title>
<path fill="none" stroke="black" d="M1983,-58.93C1983,-49.17 1983,-37.12 1983,-27.74"/>
<polygon fill="black" stroke="black" points="1984.75,-27.57 1983,-22.57 1981.25,-27.57 1984.75,-27.57"/>
</g>
<!-- n24e1 -->
<g id="node28" class="node">
<title>n24e1</title>
<polygon fill="white" stroke="black" points="2109,-0.5 2109,-22.5 2325,-22.5 2325,-0.5 2109,-0.5"/>
<text text-anchor="middle" x="2181.5" y="-6.5" font-family="Times,serif" font-style="italic" font-size="20.00">x2 &lt;= x1</text>
<polyline fill="none" stroke="black" points="2254,-0.5 2254,-22.5 "/>
<text text-anchor="middle" x="2289.5" y="-6.5" font-family="Times,serif" font-style="italic" font-size="20.00">⊥</text>
</g>
<!-- n24&#45;&gt;n24e1 -->
<g id="edge24" class="edge">
<title>n24&#45;&gt;n24e1</title>
<path fill="none" stroke="black" d="M2000.59,-71.58C2037.45,-61.52 2123.67,-37.98 2175.47,-23.84"/>
<polygon fill="black" stroke="black" points="2176.01,-25.51 2180.37,-22.5 2175.08,-22.13 2176.01,-25.51"/>
</g>
<!-- n35 -->
<g id="node9" class="node">
<title>n35</title>
<ellipse fill="#f2f2f2" stroke="black" cx="500" cy="-209.15" rx="18.27" ry="18.27"/>
<text text-anchor="middle" x="500" y="-205.45" font-family="Times,serif" font-size="14.00">1</text>
</g>
<!-- n35e0 -->
<g id="node29" class="node">
<title>n35e0</title>
<polygon fill="white" stroke="black" points="392,-132.27 392,-154.27 608,-154.27 608,-132.27 392,-132.27"/>
<text text-anchor="middle" x="471.5" y="-138.27" font-family="Times,serif" font-style="italic" font-size="20.00">¬x1 &lt;= x2</text>
<polyline fill="none" stroke="black" points="551,-132.27 551,-154.27 "/>
<text text-anchor="middle" x="579.5" y="-138.27" font-family="Times,serif" font-style="italic" font-size="20.00"> </text>
</g>
<!-- n35&#45;&gt;n35e0 -->
<g id="edge25" class="edge">
<title>n35&#45;&gt;n35e0</title>
<path fill="none" stroke="black" d="M500,-190.7C500,-180.94 500,-168.89 500,-159.51"/>
<polygon fill="black" stroke="black" points="501.75,-159.34 500,-154.34 498.25,-159.34 501.75,-159.34"/>
</g>
<!-- n35e1 -->
<g id="node30" class="node">
<title>n35e1</title>
<polygon fill="white" stroke="black" points="158,-132.27 158,-154.27 374,-154.27 374,-132.27 158,-132.27"/>
<text text-anchor="middle" x="233.5" y="-138.27" font-family="Times,serif" font-style="italic" font-size="20.00">x1 &lt;= x2</text>
<polyline fill="none" stroke="black" points="309,-132.27 309,-154.27 "/>
<text text-anchor="middle" x="341.5" y="-138.27" font-family="Times,serif" font-style="italic" font-size="20.00"> </text>
</g>
<!-- n35&#45;&gt;n35e1 -->
<g id="edge27" class="edge">
<title>n35&#45;&gt;n35e1</title>
<path fill="none" stroke="black" d="M482.41,-203.35C445.55,-193.29 359.33,-169.75 307.53,-155.61"/>
<polygon fill="black" stroke="black" points="307.92,-153.9 302.63,-154.27 306.99,-157.28 307.92,-153.9"/>
</g>
<!-- n33 -->
<g id="node10" class="node">
<title>n33</title>
<ellipse fill="#f2f2f2" stroke="black" cx="1436" cy="-209.15" rx="18.27" ry="18.27"/>
<text text-anchor="middle" x="1436" y="-205.45" font-family="Times,serif" font-size="14.00">1</text>
</g>
<!-- n33e0 -->
<g id="node31" class="node">
<title>n33e0</title>
<polygon fill="white" stroke="black" points="1094,-132.27 1094,-154.27 1310,-154.27 1310,-132.27 1094,-132.27"/>
<text text-anchor="middle" x="1173.5" y="-138.27" font-family="Times,serif" font-style="italic" font-size="20.00">¬x1 &lt;= x2</text>
<polyline fill="none" stroke="black" points="1253,-132.27 1253,-154.27 "/>
<text text-anchor="middle" x="1281.5" y="-138.27" font-family="Times,serif" font-style="italic" font-size="20.00"> </text>
</g>
<!-- n33&#45;&gt;n33e0 -->
<g id="edge29" class="edge">
<title>n33&#45;&gt;n33e0</title>
<path fill="none" stroke="black" d="M1418.41,-203.35C1381.55,-193.29 1295.33,-169.75 1243.53,-155.61"/>
<polygon fill="black" stroke="black" points="1243.92,-153.9 1238.63,-154.27 1242.99,-157.28 1243.92,-153.9"/>
</g>
<!-- n33e1 -->
<g id="node32" class="node">
<title>n33e1</title>
<polygon fill="white" stroke="black" points="1328,-132.27 1328,-154.27 1544,-154.27 1544,-132.27 1328,-132.27"/>
<text text-anchor="middle" x="1403.5" y="-138.27" font-family="Times,serif" font-style="italic" font-size="20.00">x1 &lt;= x2</text>
<polyline fill="none" stroke="black" points="1479,-132.27 1479,-154.27 "/>
<text text-anchor="middle" x="1511.5" y="-138.27" font-family="Times,serif" font-style="italic" font-size="20.00"> </text>
</g>
<!-- n33&#45;&gt;n33e1 -->
<g id="edge31" class="edge">
<title>n33&#45;&gt;n33e1</title>
<path fill="none" stroke="black" d="M1436,-190.7C1436,-180.94 1436,-168.89 1436,-159.51"/>
<polygon fill="black" stroke="black" points="1437.75,-159.34 1436,-154.34 1434.25,-159.34 1437.75,-159.34"/>
</g>
<!-- n36 -->
<g id="node11" class="node">
<title>n36</title>
<ellipse fill="#f2f2f2" stroke="black" cx="2138" cy="-209.15" rx="18.27" ry="18.27"/>
<text text-anchor="middle" x="2138" y="-205.45" font-family="Times,serif" font-size="14.00">1</text>
</g>
<!-- n36e0 -->
<g id="node33" class="node">
<title>n36e0</title>
<polygon fill="white" stroke="black" points="2030,-132.27 2030,-154.27 2246,-154.27 2246,-132.27 2030,-132.27"/>
<text text-anchor="middle" x="2084" y="-138.27" font-family="Times,serif" font-style="italic" font-size="20.00">¬x1 &lt;= x2</text>
<polyline fill="none" stroke="black" points="2138,-132.27 2138,-154.27 "/>
<text text-anchor="middle" x="2192" y="-138.27" font-family="Times,serif" font-style="italic" font-size="20.00">¬x2 &lt;= x1</text>
</g>
<!-- n36&#45;&gt;n36e0 -->
<g id="edge33" class="edge">
<title>n36&#45;&gt;n36e0</title>
<path fill="none" stroke="black" d="M2138,-190.7C2138,-180.94 2138,-168.89 2138,-159.51"/>
<polygon fill="black" stroke="black" points="2139.75,-159.34 2138,-154.34 2136.25,-159.34 2139.75,-159.34"/>
</g>
<!-- n36e1 -->
<g id="node34" class="node">
<title>n36e1</title>
<polygon fill="white" stroke="black" points="2264,-132.27 2264,-154.27 2480,-154.27 2480,-132.27 2264,-132.27"/>
<text text-anchor="middle" x="2318" y="-138.27" font-family="Times,serif" font-style="italic" font-size="20.00">x1 &lt;= x2</text>
<polyline fill="none" stroke="black" points="2372,-132.27 2372,-154.27 "/>
<text text-anchor="middle" x="2426" y="-138.27" font-family="Times,serif" font-style="italic" font-size="20.00">x2 &lt;= x1</text>
</g>
<!-- n36&#45;&gt;n36e1 -->
<g id="edge34" class="edge">
<title>n36&#45;&gt;n36e1</title>
<path fill="none" stroke="black" d="M2155.59,-203.35C2192.45,-193.29 2278.67,-169.75 2330.47,-155.61"/>
<polygon fill="black" stroke="black" points="2331.01,-157.28 2335.37,-154.27 2330.08,-153.9 2331.01,-157.28"/>
</g>
<!-- n40e0&#45;&gt;n20 -->
<g id="edge4" class="edge">
<title>n40e0:c&#45;&gt;n20</title>
<path fill="none" stroke="black" d="M1047.65,-141.62C1053.51,-139.05 1065.4,-134.14 1076,-131.77 1278.38,-86.44 1530.66,-79.59 1608.22,-78.56"/>
<ellipse fill="black" stroke="black" cx="1045.82" cy="-142.44" rx="2" ry="2"/>
<polygon fill="black" stroke="black" points="1608.52,-80.31 1613.5,-78.5 1608.48,-76.81 1608.52,-80.31"/>
</g>
<!-- n29e0&#45;&gt;n20 -->
<g id="edge7" class="edge">
<title>n29e0:c&#45;&gt;n20</title>
<path fill="none" stroke="black" d="M1746.15,-141.15C1731.86,-133.29 1681.13,-105.4 1652.34,-89.57"/>
<ellipse fill="black" stroke="black" cx="1748.25" cy="-142.31" rx="2" ry="2"/>
<polygon fill="black" stroke="black" points="1653.14,-88.01 1647.91,-87.14 1651.45,-91.08 1653.14,-88.01"/>
</g>
<!-- n41e0&#45;&gt;n40 -->
<g id="edge11" class="edge">
<title>n41e0:c&#45;&gt;n40</title>
<path fill="none" stroke="black" d="M851,-270.86C851,-263.29 851,-246.79 851,-232.91"/>
<ellipse fill="black" stroke="black" cx="851" cy="-273.04" rx="2" ry="2"/>
<polygon fill="black" stroke="black" points="852.75,-232.54 851,-227.54 849.25,-232.54 852.75,-232.54"/>
</g>
<!-- n41e0&#45;&gt;n35 -->
<g id="edge10" class="edge">
<title>n41e0:c&#45;&gt;n35</title>
<path fill="none" stroke="black" d="M739.11,-274C714.34,-267.39 577.87,-230.95 522.92,-216.28"/>
<ellipse fill="black" stroke="black" cx="741.07" cy="-274.52" rx="2" ry="2"/>
<polygon fill="black" stroke="black" points="523.15,-214.52 517.87,-214.93 522.25,-217.91 523.15,-214.52"/>
</g>
<!-- n41e1&#45;&gt;n29 -->
<g id="edge14" class="edge">
<title>n41e1:c&#45;&gt;n29</title>
<path fill="none" stroke="black" d="M1610.09,-271.85C1617.92,-263.79 1638.97,-242.11 1653.9,-226.73"/>
<ellipse fill="black" stroke="black" cx="1608.39" cy="-273.6" rx="2" ry="2"/>
<polygon fill="black" stroke="black" points="1655.33,-227.78 1657.55,-222.97 1652.81,-225.34 1655.33,-227.78"/>
</g>
<!-- n41e1&#45;&gt;n33 -->
<g id="edge13" class="edge">
<title>n41e1:c&#45;&gt;n33</title>
<path fill="none" stroke="black" d="M1495.91,-271.85C1488.08,-263.79 1467.03,-242.11 1452.1,-226.73"/>
<ellipse fill="black" stroke="black" cx="1497.61" cy="-273.6" rx="2" ry="2"/>
<polygon fill="black" stroke="black" points="1453.19,-225.34 1448.45,-222.97 1450.67,-227.78 1453.19,-225.34"/>
</g>
<!-- n41e2&#45;&gt;n36 -->
<g id="edge16" class="edge">
<title>n41e2:c&#45;&gt;n36</title>
<path fill="none" stroke="black" d="M1938.01,-273.76C1960.17,-266.72 2068.29,-232.33 2115.68,-217.25"/>
<ellipse fill="black" stroke="black" cx="1935.91" cy="-274.43" rx="2" ry="2"/>
<polygon fill="black" stroke="black" points="2116.37,-218.87 2120.61,-215.69 2115.31,-215.53 2116.37,-218.87"/>
</g>
<!-- n35e0&#45;&gt;n34 -->
<g id="edge26" class="edge">
<title>n35e0:c&#45;&gt;n34</title>
<path fill="none" stroke="black" d="M580,-139.09C580,-131.52 580,-115.02 580,-101.14"/>
<ellipse fill="black" stroke="black" cx="580" cy="-141.27" rx="2" ry="2"/>
<polygon fill="black" stroke="black" points="581.75,-100.77 580,-95.77 578.25,-100.77 581.75,-100.77"/>
</g>
<!-- n35e1&#45;&gt;n26 -->
<g id="edge28" class="edge">
<title>n35e1:c&#45;&gt;n26</title>
<path fill="none" stroke="black" d="M342,-139.09C342,-131.52 342,-115.02 342,-101.14"/>
<ellipse fill="black" stroke="black" cx="342" cy="-141.27" rx="2" ry="2"/>
<polygon fill="black" stroke="black" points="343.75,-100.77 342,-95.77 340.25,-100.77 343.75,-100.77"/>
</g>
<!-- n33e0&#45;&gt;n32 -->
<g id="edge30" class="edge">
<title>n33e0:c&#45;&gt;n32</title>
<path fill="none" stroke="black" d="M1281.94,-139.09C1281.82,-131.52 1281.56,-115.02 1281.35,-101.14"/>
<ellipse fill="black" stroke="black" cx="1281.97" cy="-141.27" rx="2" ry="2"/>
<polygon fill="black" stroke="black" points="1283.09,-100.75 1281.27,-95.77 1279.6,-100.8 1283.09,-100.75"/>
</g>
<!-- n33e1&#45;&gt;n24 -->
<g id="edge32" class="edge">
<title>n33e1:c&#45;&gt;n24</title>
<path fill="none" stroke="black" d="M1515.66,-141.65C1521.52,-139.12 1533.43,-134.28 1544,-131.77 1699.49,-94.87 1892.35,-82.68 1959.02,-79.42"/>
<ellipse fill="black" stroke="black" cx="1513.83" cy="-142.46" rx="2" ry="2"/>
<polygon fill="black" stroke="black" points="1959.43,-81.15 1964.34,-79.16 1959.26,-77.65 1959.43,-81.15"/>
</g>
</g>
</svg>
