<?xml version="1.0" encoding="UTF-8" standalone="no"?>
<!DOCTYPE svg PUBLIC "-//W3C//DTD SVG 1.1//EN"
 "http://www.w3.org/Graphics/SVG/1.1/DTD/svg11.dtd">
<!-- Generated by graphviz version 2.43.0 (0)
 -->
<!-- Title: vtree Pages: 1 -->
<svg width="294pt" height="178pt"
 viewBox="0.00 0.00 294.00 178.00" xmlns="http://www.w3.org/2000/svg" xmlns:xlink="http://www.w3.org/1999/xlink">
<g id="graph0" class="graph" transform="scale(1 1) rotate(0) translate(4 174)">
<title>vtree</title>
<polygon fill="white" stroke="transparent" points="-4,4 -4,-174 290,-174 290,4 -4,4"/>
<!-- n5 -->
<g id="node1" class="node">
<title>n5</title>
<text text-anchor="middle" x="117" y="-160.4" font-family="Times" font-size="12.00">5</text>
</g>
<!-- n1 -->
<g id="node2" class="node">
<title>n1</title>
<text text-anchor="middle" x="91" y="-111.4" font-family="Times" font-size="12.00">1</text>
</g>
<!-- n5&#45;&gt;n1 -->
<g id="edge1" class="edge">
<title>n5&#45;&gt;n1</title>
<path fill="none" stroke="black" d="M113.81,-156.74C108.77,-147.62 99.01,-129.98 94.05,-121.02"/>
</g>
<!-- n7 -->
<g id="node7" class="node">
<title>n7</title>
<text text-anchor="middle" x="143" y="-111.4" font-family="Times" font-size="12.00">7</text>
</g>
<!-- n5&#45;&gt;n7 -->
<g id="edge6" class="edge">
<title>n5&#45;&gt;n7</title>
<path fill="none" stroke="black" d="M120.19,-156.74C125.23,-147.62 134.99,-129.98 139.95,-121.02"/>
</g>
<!-- n0 -->
<g id="node3" class="node">
<title>n0</title>
<text text-anchor="middle" x="39" y="-59.3" font-family="Times,serif" font-style="italic" font-size="14.00">x1 &lt;= x2</text>
</g>
<!-- n1&#45;&gt;n0 -->
<g id="edge2" class="edge">
<title>n1&#45;&gt;n0</title>
<path fill="none" stroke="black" d="M85.03,-107.82C75.86,-99.09 58.23,-82.31 47.65,-72.24"/>
<text text-anchor="middle" x="44.65" y="-75.24" font-family="Times" font-size="10.00">0</text>
</g>
<!-- n3 -->
<g id="node4" class="node">
<title>n3</title>
<text text-anchor="middle" x="91" y="-59.9" font-family="Times" font-size="12.00">3</text>
</g>
<!-- n1&#45;&gt;n3 -->
<g id="edge3" class="edge">
<title>n1&#45;&gt;n3</title>
<path fill="none" stroke="black" d="M91,-107.82C91,-98.27 91,-79.12 91,-69.61"/>
</g>
<!-- n2 -->
<g id="node5" class="node">
<title>n2</title>
<text text-anchor="middle" x="27" y="-5.3" font-family="Times,serif" font-style="italic" font-size="14.00">x2 &lt;= x1</text>
</g>
<!-- n3&#45;&gt;n2 -->
<g id="edge4" class="edge">
<title>n3&#45;&gt;n2</title>
<path fill="none" stroke="black" d="M84.15,-56.44C72.8,-47.21 50.04,-28.72 36.93,-18.07"/>
<text text-anchor="middle" x="33.93" y="-21.07" font-family="Times" font-size="10.00">2</text>
</g>
<!-- n4 -->
<g id="node6" class="node">
<title>n4</title>
<text text-anchor="middle" x="99" y="-5.3" font-family="Times,serif" font-style="italic" font-size="14.00">x3 &lt;= x4</text>
</g>
<!-- n3&#45;&gt;n4 -->
<g id="edge5" class="edge">
<title>n3&#45;&gt;n4</title>
<path fill="none" stroke="black" d="M91.86,-56.44C93.27,-47.21 96.12,-28.72 97.76,-18.07"/>
<text text-anchor="middle" x="94.76" y="-21.07" font-family="Times" font-size="10.00">4</text>
</g>
<!-- n6 -->
<g id="node8" class="node">
<title>n6</title>
<text text-anchor="middle" x="143" y="-59.3" font-family="Times,serif" font-style="italic" font-size="14.00">x4 &lt;= x3</text>
</g>
<!-- n7&#45;&gt;n6 -->
<g id="edge7" class="edge">
<title>n7&#45;&gt;n6</title>
<path fill="none" stroke="black" d="M143,-107.82C143,-99.09 143,-82.31 143,-72.24"/>
<text text-anchor="middle" x="140" y="-75.24" font-family="Times" font-size="10.00">6</text>
</g>
<!-- n9 -->
<g id="node9" class="node">
<title>n9</title>
<text text-anchor="middle" x="195" y="-59.9" font-family="Times" font-size="12.00">9</text>
</g>
<!-- n7&#45;&gt;n9 -->
<g id="edge8" class="edge">
<title>n7&#45;&gt;n9</title>
<path fill="none" stroke="black" d="M148.97,-107.82C159,-98.27 179.12,-79.12 189.1,-69.61"/>
</g>
<!-- n8 -->
<g id="node10" class="node">
<title>n8</title>
<text text-anchor="middle" x="187" y="-5.3" font-family="Times,serif" font-style="italic" font-size="14.00">x1 &lt;= x4</text>
</g>
<!-- n9&#45;&gt;n8 -->
<g id="edge9" class="edge">
<title>n9&#45;&gt;n8</title>
<path fill="none" stroke="black" d="M194.14,-56.44C192.73,-47.21 189.88,-28.72 188.24,-18.07"/>
<text text-anchor="middle" x="185.24" y="-21.07" font-family="Times" font-size="10.00">8</text>
</g>
<!-- n10 -->
<g id="node11" class="node">
<title>n10</title>
<text text-anchor="middle" x="259" y="-5.3" font-family="Times,serif" font-style="italic" font-size="14.00">x4 &lt;= x1</text>
</g>
<!-- n9&#45;&gt;n10 -->
<g id="edge10" class="edge">
<title>n9&#45;&gt;n10</title>
<path fill="none" stroke="black" d="M201.85,-56.44C213.2,-47.21 235.96,-28.72 249.07,-18.07"/>
<text text-anchor="middle" x="243.57" y="-21.07" font-family="Times" font-size="10.00">10</text>
</g>
</g>
</svg>
