<?xml version="1.0" encoding="UTF-8" standalone="no"?>
<!DOCTYPE svg PUBLIC "-//W3C//DTD SVG 1.1//EN"
 "http://www.w3.org/Graphics/SVG/1.1/DTD/svg11.dtd">
<!-- Generated by graphviz version 2.43.0 (0)
 -->
<!-- Title: vtree Pages: 1 -->
<svg width="129pt" height="291pt"
 viewBox="0.00 0.00 129.00 291.00" xmlns="http://www.w3.org/2000/svg" xmlns:xlink="http://www.w3.org/1999/xlink">
<g id="graph0" class="graph" transform="scale(1 1) rotate(0) translate(4 287)">
<title>vtree</title>
<polygon fill="white" stroke="transparent" points="-4,4 -4,-287 125,-287 125,4 -4,4"/>
<!-- n1 -->
<g id="node1" class="node">
<title>n1</title>
<text text-anchor="middle" x="26" y="-273.4" font-family="Times" font-size="12.00">1</text>
</g>
<!-- n0 -->
<g id="node2" class="node">
<title>n0</title>
<text text-anchor="middle" x="9" y="-221.3" font-family="Times,serif" font-style="italic" font-size="14.00">A</text>
</g>
<!-- n1&#45;&gt;n0 -->
<g id="edge1" class="edge">
<title>n1&#45;&gt;n0</title>
<path fill="none" stroke="black" d="M24.05,-269.82C21.05,-261.09 15.29,-244.31 11.83,-234.24"/>
<text text-anchor="middle" x="8.83" y="-237.24" font-family="Times" font-size="10.00">0</text>
</g>
<!-- n3 -->
<g id="node3" class="node">
<title>n3</title>
<text text-anchor="middle" x="43" y="-221.9" font-family="Times" font-size="12.00">3</text>
</g>
<!-- n1&#45;&gt;n3 -->
<g id="edge2" class="edge">
<title>n1&#45;&gt;n3</title>
<path fill="none" stroke="black" d="M27.95,-269.82C31.23,-260.27 37.81,-241.12 41.07,-231.61"/>
</g>
<!-- n2 -->
<g id="node4" class="node">
<title>n2</title>
<text text-anchor="middle" x="26" y="-167.3" font-family="Times,serif" font-style="italic" font-size="14.00">B</text>
</g>
<!-- n3&#45;&gt;n2 -->
<g id="edge3" class="edge">
<title>n3&#45;&gt;n2</title>
<path fill="none" stroke="black" d="M41.18,-218.44C38.17,-209.21 32.12,-190.72 28.64,-180.07"/>
<text text-anchor="middle" x="25.64" y="-183.07" font-family="Times" font-size="10.00">2</text>
</g>
<!-- n5 -->
<g id="node5" class="node">
<title>n5</title>
<text text-anchor="middle" x="60" y="-167.9" font-family="Times" font-size="12.00">5</text>
</g>
<!-- n3&#45;&gt;n5 -->
<g id="edge4" class="edge">
<title>n3&#45;&gt;n5</title>
<path fill="none" stroke="black" d="M44.82,-218.44C48.07,-208.48 54.86,-187.72 58.14,-177.68"/>
</g>
<!-- n4 -->
<g id="node6" class="node">
<title>n4</title>
<text text-anchor="middle" x="43" y="-113.3" font-family="Times,serif" font-style="italic" font-size="14.00">C</text>
</g>
<!-- n5&#45;&gt;n4 -->
<g id="edge5" class="edge">
<title>n5&#45;&gt;n4</title>
<path fill="none" stroke="black" d="M58.18,-164.44C55.17,-155.21 49.12,-136.72 45.64,-126.07"/>
<text text-anchor="middle" x="42.64" y="-129.07" font-family="Times" font-size="10.00">4</text>
</g>
<!-- n7 -->
<g id="node7" class="node">
<title>n7</title>
<text text-anchor="middle" x="77" y="-113.9" font-family="Times" font-size="12.00">7</text>
</g>
<!-- n5&#45;&gt;n7 -->
<g id="edge6" class="edge">
<title>n5&#45;&gt;n7</title>
<path fill="none" stroke="black" d="M61.82,-164.44C65.07,-154.48 71.86,-133.72 75.14,-123.68"/>
</g>
<!-- n6 -->
<g id="node8" class="node">
<title>n6</title>
<text text-anchor="middle" x="60" y="-59.3" font-family="Times,serif" font-style="italic" font-size="14.00">D</text>
</g>
<!-- n7&#45;&gt;n6 -->
<g id="edge7" class="edge">
<title>n7&#45;&gt;n6</title>
<path fill="none" stroke="black" d="M75.18,-110.44C72.17,-101.21 66.12,-82.72 62.64,-72.07"/>
<text text-anchor="middle" x="59.64" y="-75.07" font-family="Times" font-size="10.00">6</text>
</g>
<!-- n9 -->
<g id="node9" class="node">
<title>n9</title>
<text text-anchor="middle" x="94" y="-59.9" font-family="Times" font-size="12.00">9</text>
</g>
<!-- n7&#45;&gt;n9 -->
<g id="edge8" class="edge">
<title>n7&#45;&gt;n9</title>
<path fill="none" stroke="black" d="M78.82,-110.44C82.07,-100.48 88.86,-79.72 92.14,-69.68"/>
</g>
<!-- n8 -->
<g id="node10" class="node">
<title>n8</title>
<text text-anchor="middle" x="76" y="-5.3" font-family="Times,serif" font-style="italic" font-size="14.00">E</text>
</g>
<!-- n9&#45;&gt;n8 -->
<g id="edge9" class="edge">
<title>n9&#45;&gt;n8</title>
<path fill="none" stroke="black" d="M92.07,-56.44C88.88,-47.21 82.48,-28.72 78.79,-18.07"/>
<text text-anchor="middle" x="75.79" y="-21.07" font-family="Times" font-size="10.00">8</text>
</g>
<!-- n10 -->
<g id="node11" class="node">
<title>n10</title>
<text text-anchor="middle" x="112" y="-5.3" font-family="Times,serif" font-style="italic" font-size="14.00">F</text>
</g>
<!-- n9&#45;&gt;n10 -->
<g id="edge10" class="edge">
<title>n9&#45;&gt;n10</title>
<path fill="none" stroke="black" d="M95.93,-56.44C99.12,-47.21 105.52,-28.72 109.21,-18.07"/>
<text text-anchor="middle" x="103.71" y="-21.07" font-family="Times" font-size="10.00">10</text>
</g>
</g>
</svg>
