<?xml version="1.0" encoding="UTF-8" standalone="no"?>
<!DOCTYPE svg PUBLIC "-//W3C//DTD SVG 1.1//EN"
 "http://www.w3.org/Graphics/SVG/1.1/DTD/svg11.dtd">
<!-- Generated by graphviz version 2.43.0 (0)
 -->
<!-- Title: G Pages: 1 -->
<svg width="2296pt" height="476pt"
 viewBox="0.00 0.00 2296.00 476.00" xmlns="http://www.w3.org/2000/svg" xmlns:xlink="http://www.w3.org/1999/xlink">
<g id="graph0" class="graph" transform="scale(1 1) rotate(0) translate(4 472)">
<title>G</title>
<polygon fill="white" stroke="transparent" points="-4,4 -4,-472 2292,-472 2292,4 -4,4"/>
<!-- 13 -->
<g id="node1" class="node">
<title>13</title>
<polygon fill="none" stroke="black" points="164,-36 0,-36 0,0 164,0 164,-36"/>
<text text-anchor="middle" x="82" y="-14.3" font-family="Times,serif" font-size="14.00">[12] ~(x_xsdd &lt; 0.0)</text>
</g>
<!-- 25 -->
<g id="node2" class="node">
<title>25</title>
<polygon fill="none" stroke="black" points="2259.5,-180 2058.5,-180 2058.5,-144 2259.5,-144 2259.5,-180"/>
<text text-anchor="middle" x="2159" y="-158.3" font-family="Times,serif" font-size="14.00">[5] ((y_xsdd * &#45;1.0) &lt; &#45;1/2)</text>
</g>
<!-- 2 -->
<g id="node3" class="node">
<title>2</title>
<polygon fill="none" stroke="black" points="1551.5,-180 1338.5,-180 1338.5,-144 1551.5,-144 1551.5,-180"/>
<text text-anchor="middle" x="1445" y="-158.3" font-family="Times,serif" font-size="14.00">[4] ~((y_xsdd * &#45;1.0) &lt; &#45;1.0)</text>
</g>
<!-- 8 -->
<g id="node4" class="node">
<title>8</title>
<polygon fill="none" stroke="black" points="1006,-36 708,-36 708,0 1006,0 1006,-36"/>
<text text-anchor="middle" x="857" y="-14.3" font-family="Times,serif" font-size="14.00">[10] ~((x_xsdd + (y_xsdd * &#45;1.0)) &lt; 0.0)</text>
</g>
<!-- 18 -->
<g id="node5" class="node">
<title>18</title>
<ellipse fill="none" stroke="black" cx="978" cy="-162" rx="46.29" ry="18"/>
<text text-anchor="middle" x="978" y="-158.3" font-family="Times,serif" font-size="14.00">[20] OR</text>
</g>
<!-- 17 -->
<g id="node17" class="node">
<title>17</title>
<ellipse fill="none" stroke="black" cx="1046" cy="-90" rx="32.49" ry="18"/>
<text text-anchor="middle" x="1046" y="-86.3" font-family="Times,serif" font-size="14.00">AND</text>
</g>
<!-- 18&#45;&gt;17 -->
<g id="edge20" class="edge">
<title>18&#45;&gt;17</title>
<path fill="none" stroke="black" d="M993.77,-144.76C1002.78,-135.5 1014.2,-123.73 1024.07,-113.58"/>
<polygon fill="black" stroke="black" points="1026.79,-115.8 1031.25,-106.19 1021.77,-110.92 1026.79,-115.8"/>
</g>
<!-- 16 -->
<g id="node25" class="node">
<title>16</title>
<ellipse fill="none" stroke="black" cx="625" cy="-90" rx="32.49" ry="18"/>
<text text-anchor="middle" x="625" y="-86.3" font-family="Times,serif" font-size="14.00">AND</text>
</g>
<!-- 18&#45;&gt;16 -->
<g id="edge42" class="edge">
<title>18&#45;&gt;16</title>
<path fill="none" stroke="black" d="M937.85,-153.04C869.96,-139.58 733.24,-112.46 665.27,-98.99"/>
<polygon fill="black" stroke="black" points="665.85,-95.53 655.36,-97.02 664.49,-102.4 665.85,-95.53"/>
</g>
<!-- 22 -->
<g id="node6" class="node">
<title>22</title>
<ellipse fill="none" stroke="black" cx="542" cy="-90" rx="32.49" ry="18"/>
<text text-anchor="middle" x="542" y="-86.3" font-family="Times,serif" font-size="14.00">AND</text>
</g>
<!-- 22&#45;&gt;13 -->
<g id="edge12" class="edge">
<title>22&#45;&gt;13</title>
<path fill="none" stroke="black" d="M510.34,-84.91C448.06,-76.76 305.02,-57.57 174.49,-36.21"/>
<polygon fill="black" stroke="black" points="174.75,-32.71 164.31,-34.54 173.61,-39.61 174.75,-32.71"/>
</g>
<!-- 7 -->
<g id="node19" class="node">
<title>7</title>
<polygon fill="none" stroke="black" points="690.5,-36 477.5,-36 477.5,0 690.5,0 690.5,-36"/>
<text text-anchor="middle" x="584" y="-14.3" font-family="Times,serif" font-size="14.00">[8] ~((x_xsdd * &#45;1.0) &lt; &#45;1.0)</text>
</g>
<!-- 22&#45;&gt;7 -->
<g id="edge10" class="edge">
<title>22&#45;&gt;7</title>
<path fill="none" stroke="black" d="M551.74,-72.76C556.74,-64.44 562.94,-54.1 568.56,-44.73"/>
<polygon fill="black" stroke="black" points="571.58,-46.5 573.73,-36.12 565.58,-42.9 571.58,-46.5"/>
</g>
<!-- 19 -->
<g id="node7" class="node">
<title>19</title>
<ellipse fill="none" stroke="black" cx="1189" cy="-234" rx="32.49" ry="18"/>
<text text-anchor="middle" x="1189" y="-230.3" font-family="Times,serif" font-size="14.00">AND</text>
</g>
<!-- 19&#45;&gt;13 -->
<g id="edge39" class="edge">
<title>19&#45;&gt;13</title>
<path fill="none" stroke="black" d="M1158.42,-227.78C1061.79,-211.2 754.41,-157.92 501,-108 385.72,-85.29 253.14,-56.71 168.52,-38.16"/>
<polygon fill="black" stroke="black" points="169.22,-34.73 158.7,-36 167.72,-41.57 169.22,-34.73"/>
</g>
<!-- 12 -->
<g id="node24" class="node">
<title>12</title>
<ellipse fill="none" stroke="black" cx="1198" cy="-162" rx="46.29" ry="18"/>
<text text-anchor="middle" x="1198" y="-158.3" font-family="Times,serif" font-size="14.00">[18] OR</text>
</g>
<!-- 19&#45;&gt;12 -->
<g id="edge2" class="edge">
<title>19&#45;&gt;12</title>
<path fill="none" stroke="black" d="M1191.22,-215.7C1192.22,-207.98 1193.41,-198.71 1194.51,-190.11"/>
<polygon fill="black" stroke="black" points="1198,-190.47 1195.8,-180.1 1191.05,-189.58 1198,-190.47"/>
</g>
<!-- 15 -->
<g id="node8" class="node">
<title>15</title>
<ellipse fill="none" stroke="black" cx="1055" cy="-18" rx="30.59" ry="18"/>
<text text-anchor="middle" x="1055" y="-14.3" font-family="Times,serif" font-size="14.00">true</text>
</g>
<!-- 21 -->
<g id="node9" class="node">
<title>21</title>
<ellipse fill="none" stroke="black" cx="1272" cy="-306" rx="46.29" ry="18"/>
<text text-anchor="middle" x="1272" y="-302.3" font-family="Times,serif" font-size="14.00">[21] OR</text>
</g>
<!-- 21&#45;&gt;19 -->
<g id="edge7" class="edge">
<title>21&#45;&gt;19</title>
<path fill="none" stroke="black" d="M1253.58,-289.46C1241.98,-279.68 1226.86,-266.93 1214.17,-256.22"/>
<polygon fill="black" stroke="black" points="1216.14,-253.31 1206.24,-249.54 1211.62,-258.66 1216.14,-253.31"/>
</g>
<!-- 20 -->
<g id="node32" class="node">
<title>20</title>
<ellipse fill="none" stroke="black" cx="1272" cy="-234" rx="32.49" ry="18"/>
<text text-anchor="middle" x="1272" y="-230.3" font-family="Times,serif" font-size="14.00">AND</text>
</g>
<!-- 21&#45;&gt;20 -->
<g id="edge6" class="edge">
<title>21&#45;&gt;20</title>
<path fill="none" stroke="black" d="M1272,-287.7C1272,-279.98 1272,-270.71 1272,-262.11"/>
<polygon fill="black" stroke="black" points="1275.5,-262.1 1272,-252.1 1268.5,-262.1 1275.5,-262.1"/>
</g>
<!-- 30 -->
<g id="node10" class="node">
<title>30</title>
<ellipse fill="none" stroke="black" cx="1362" cy="-234" rx="32.49" ry="18"/>
<text text-anchor="middle" x="1362" y="-230.3" font-family="Times,serif" font-size="14.00">AND</text>
</g>
<!-- 30&#45;&gt;2 -->
<g id="edge11" class="edge">
<title>30&#45;&gt;2</title>
<path fill="none" stroke="black" d="M1379.2,-218.5C1390.03,-209.36 1404.26,-197.36 1416.72,-186.85"/>
<polygon fill="black" stroke="black" points="1419.21,-189.33 1424.6,-180.2 1414.7,-183.98 1419.21,-189.33"/>
</g>
<!-- 24 -->
<g id="node29" class="node">
<title>24</title>
<ellipse fill="none" stroke="black" cx="1088" cy="-162" rx="46.29" ry="18"/>
<text text-anchor="middle" x="1088" y="-158.3" font-family="Times,serif" font-size="14.00">[13] OR</text>
</g>
<!-- 30&#45;&gt;24 -->
<g id="edge25" class="edge">
<title>30&#45;&gt;24</title>
<path fill="none" stroke="black" d="M1335.74,-223.21C1328.44,-220.67 1320.46,-218.08 1313,-216 1238.59,-195.3 1217.75,-199.42 1143,-180 1139.4,-179.07 1135.69,-178.04 1131.97,-176.98"/>
<polygon fill="black" stroke="black" points="1132.77,-173.57 1122.19,-174.1 1130.79,-180.28 1132.77,-173.57"/>
</g>
<!-- 1 -->
<g id="node11" class="node">
<title>1</title>
<polygon fill="none" stroke="black" points="1821.5,-180 1608.5,-180 1608.5,-144 1821.5,-144 1821.5,-180"/>
<text text-anchor="middle" x="1715" y="-158.3" font-family="Times,serif" font-size="14.00">[6] ~((y_xsdd * &#45;1.0) &lt; &#45;1/2)</text>
</g>
<!-- 0 -->
<g id="node12" class="node">
<title>0</title>
<polygon fill="none" stroke="black" points="2040.5,-180 1839.5,-180 1839.5,-144 2040.5,-144 2040.5,-180"/>
<text text-anchor="middle" x="1940" y="-158.3" font-family="Times,serif" font-size="14.00">[3] ((y_xsdd * &#45;1.0) &lt; &#45;1.0)</text>
</g>
<!-- 11 -->
<g id="node13" class="node">
<title>11</title>
<ellipse fill="none" stroke="black" cx="1212" cy="-90" rx="32.49" ry="18"/>
<text text-anchor="middle" x="1212" y="-86.3" font-family="Times,serif" font-size="14.00">AND</text>
</g>
<!-- 3 -->
<g id="node20" class="node">
<title>3</title>
<ellipse fill="none" stroke="black" cx="1355" cy="-18" rx="32.49" ry="18"/>
<text text-anchor="middle" x="1355" y="-14.3" font-family="Times,serif" font-size="14.00">false</text>
</g>
<!-- 11&#45;&gt;3 -->
<g id="edge16" class="edge">
<title>11&#45;&gt;3</title>
<path fill="none" stroke="black" d="M1235.61,-77.44C1259.21,-65.89 1295.69,-48.03 1322.11,-35.1"/>
<polygon fill="black" stroke="black" points="1323.91,-38.12 1331.35,-30.58 1320.83,-31.83 1323.91,-38.12"/>
</g>
<!-- 9 -->
<g id="node21" class="node">
<title>9</title>
<polygon fill="none" stroke="black" points="1304.5,-36 1103.5,-36 1103.5,0 1304.5,0 1304.5,-36"/>
<text text-anchor="middle" x="1204" y="-14.3" font-family="Times,serif" font-size="14.00">[7] ((x_xsdd * &#45;1.0) &lt; &#45;1.0)</text>
</g>
<!-- 11&#45;&gt;9 -->
<g id="edge22" class="edge">
<title>11&#45;&gt;9</title>
<path fill="none" stroke="black" d="M1210.02,-71.7C1209.14,-63.98 1208.08,-54.71 1207.1,-46.11"/>
<polygon fill="black" stroke="black" points="1210.57,-45.64 1205.95,-36.1 1203.61,-46.44 1210.57,-45.64"/>
</g>
<!-- 27 -->
<g id="node14" class="node">
<title>27</title>
<ellipse fill="none" stroke="black" cx="1580" cy="-234" rx="32.49" ry="18"/>
<text text-anchor="middle" x="1580" y="-230.3" font-family="Times,serif" font-size="14.00">AND</text>
</g>
<!-- 27&#45;&gt;2 -->
<g id="edge13" class="edge">
<title>27&#45;&gt;2</title>
<path fill="none" stroke="black" d="M1557.1,-221.13C1537.91,-211.17 1510.01,-196.71 1486.84,-184.7"/>
<polygon fill="black" stroke="black" points="1488.39,-181.55 1477.9,-180.06 1485.17,-187.77 1488.39,-181.55"/>
</g>
<!-- 27&#45;&gt;3 -->
<g id="edge14" class="edge">
<title>27&#45;&gt;3</title>
<path fill="none" stroke="black" d="M1580.24,-215.66C1579.67,-196.45 1576.19,-165.38 1561,-144 1518.92,-84.79 1439.14,-48.39 1392.17,-31.1"/>
<polygon fill="black" stroke="black" points="1393.27,-27.78 1382.67,-27.7 1390.91,-34.37 1393.27,-27.78"/>
</g>
<!-- 10 -->
<g id="node15" class="node">
<title>10</title>
<ellipse fill="none" stroke="black" cx="857" cy="-90" rx="32.49" ry="18"/>
<text text-anchor="middle" x="857" y="-86.3" font-family="Times,serif" font-size="14.00">AND</text>
</g>
<!-- 10&#45;&gt;8 -->
<g id="edge24" class="edge">
<title>10&#45;&gt;8</title>
<path fill="none" stroke="black" d="M857,-71.7C857,-63.98 857,-54.71 857,-46.11"/>
<polygon fill="black" stroke="black" points="860.5,-46.1 857,-36.1 853.5,-46.1 860.5,-46.1"/>
</g>
<!-- 10&#45;&gt;7 -->
<g id="edge8" class="edge">
<title>10&#45;&gt;7</title>
<path fill="none" stroke="black" d="M828.04,-81.58C788.43,-71.42 715.91,-52.82 660.18,-38.53"/>
<polygon fill="black" stroke="black" points="660.89,-35.1 650.33,-36.01 659.15,-41.88 660.89,-35.1"/>
</g>
<!-- 26 -->
<g id="node16" class="node">
<title>26</title>
<ellipse fill="none" stroke="black" cx="1940" cy="-234" rx="32.49" ry="18"/>
<text text-anchor="middle" x="1940" y="-230.3" font-family="Times,serif" font-size="14.00">AND</text>
</g>
<!-- 26&#45;&gt;25 -->
<g id="edge44" class="edge">
<title>26&#45;&gt;25</title>
<path fill="none" stroke="black" d="M1967.74,-224.13C1999.77,-213.9 2053.49,-196.72 2095.86,-183.18"/>
<polygon fill="black" stroke="black" points="2097.08,-186.47 2105.54,-180.09 2094.95,-179.8 2097.08,-186.47"/>
</g>
<!-- 26&#45;&gt;0 -->
<g id="edge37" class="edge">
<title>26&#45;&gt;0</title>
<path fill="none" stroke="black" d="M1940,-215.7C1940,-207.98 1940,-198.71 1940,-190.11"/>
<polygon fill="black" stroke="black" points="1943.5,-190.1 1940,-180.1 1936.5,-190.1 1943.5,-190.1"/>
</g>
<!-- 17&#45;&gt;15 -->
<g id="edge38" class="edge">
<title>17&#45;&gt;15</title>
<path fill="none" stroke="black" d="M1048.22,-71.7C1049.22,-63.98 1050.41,-54.71 1051.51,-46.11"/>
<polygon fill="black" stroke="black" points="1055,-46.47 1052.8,-36.1 1048.05,-45.58 1055,-46.47"/>
</g>
<!-- 17&#45;&gt;9 -->
<g id="edge3" class="edge">
<title>17&#45;&gt;9</title>
<path fill="none" stroke="black" d="M1070.69,-78.06C1093.46,-67.97 1127.89,-52.72 1156.06,-40.24"/>
<polygon fill="black" stroke="black" points="1157.62,-43.37 1165.35,-36.12 1154.79,-36.97 1157.62,-43.37"/>
</g>
<!-- 32 -->
<g id="node18" class="node">
<title>32</title>
<ellipse fill="none" stroke="black" cx="1434" cy="-450" rx="46.29" ry="18"/>
<text text-anchor="middle" x="1434" y="-446.3" font-family="Times,serif" font-size="14.00">[22] OR</text>
</g>
<!-- 32&#45;&gt;30 -->
<g id="edge19" class="edge">
<title>32&#45;&gt;30</title>
<path fill="none" stroke="black" d="M1418.1,-432.68C1409.38,-422.82 1399.13,-409.57 1393,-396 1373.1,-351.95 1365.96,-295.5 1363.41,-262.48"/>
<polygon fill="black" stroke="black" points="1366.88,-261.97 1362.71,-252.24 1359.9,-262.45 1366.88,-261.97"/>
</g>
<!-- 29 -->
<g id="node28" class="node">
<title>29</title>
<ellipse fill="none" stroke="black" cx="1434" cy="-378" rx="32.49" ry="18"/>
<text text-anchor="middle" x="1434" y="-374.3" font-family="Times,serif" font-size="14.00">AND</text>
</g>
<!-- 32&#45;&gt;29 -->
<g id="edge27" class="edge">
<title>32&#45;&gt;29</title>
<path fill="none" stroke="black" d="M1434,-431.7C1434,-423.98 1434,-414.71 1434,-406.11"/>
<polygon fill="black" stroke="black" points="1437.5,-406.1 1434,-396.1 1430.5,-406.1 1437.5,-406.1"/>
</g>
<!-- 31 -->
<g id="node31" class="node">
<title>31</title>
<ellipse fill="none" stroke="black" cx="1760" cy="-378" rx="32.49" ry="18"/>
<text text-anchor="middle" x="1760" y="-374.3" font-family="Times,serif" font-size="14.00">AND</text>
</g>
<!-- 32&#45;&gt;31 -->
<g id="edge9" class="edge">
<title>32&#45;&gt;31</title>
<path fill="none" stroke="black" d="M1473.32,-440.56C1535.89,-427.12 1657.42,-401.03 1720.25,-387.54"/>
<polygon fill="black" stroke="black" points="1721.13,-390.93 1730.18,-385.4 1719.66,-384.08 1721.13,-390.93"/>
</g>
<!-- 28 -->
<g id="node22" class="node">
<title>28</title>
<ellipse fill="none" stroke="black" cx="1760" cy="-306" rx="46.29" ry="18"/>
<text text-anchor="middle" x="1760" y="-302.3" font-family="Times,serif" font-size="14.00">[16] OR</text>
</g>
<!-- 28&#45;&gt;27 -->
<g id="edge36" class="edge">
<title>28&#45;&gt;27</title>
<path fill="none" stroke="black" d="M1728.23,-292.65C1696.68,-280.38 1648.39,-261.59 1615.56,-248.83"/>
<polygon fill="black" stroke="black" points="1616.5,-245.44 1605.91,-245.08 1613.96,-251.96 1616.5,-245.44"/>
</g>
<!-- 28&#45;&gt;26 -->
<g id="edge30" class="edge">
<title>28&#45;&gt;26</title>
<path fill="none" stroke="black" d="M1791.77,-292.65C1823.32,-280.38 1871.61,-261.59 1904.44,-248.83"/>
<polygon fill="black" stroke="black" points="1906.04,-251.96 1914.09,-245.08 1903.5,-245.44 1906.04,-251.96"/>
</g>
<!-- 14 -->
<g id="node23" class="node">
<title>14</title>
<polygon fill="none" stroke="black" points="459.5,-36 182.5,-36 182.5,0 459.5,0 459.5,-36"/>
<text text-anchor="middle" x="321" y="-14.3" font-family="Times,serif" font-size="14.00">[9] ((x_xsdd + (y_xsdd * &#45;1.0)) &lt; 0.0)</text>
</g>
<!-- 12&#45;&gt;11 -->
<g id="edge41" class="edge">
<title>12&#45;&gt;11</title>
<path fill="none" stroke="black" d="M1201.46,-143.7C1203,-135.98 1204.86,-126.71 1206.58,-118.11"/>
<polygon fill="black" stroke="black" points="1210.05,-118.6 1208.58,-108.1 1203.19,-117.22 1210.05,-118.6"/>
</g>
<!-- 12&#45;&gt;10 -->
<g id="edge31" class="edge">
<title>12&#45;&gt;10</title>
<path fill="none" stroke="black" d="M1163.85,-149.77C1156.98,-147.7 1149.79,-145.67 1143,-144 1056.86,-122.78 954.26,-105.73 898.36,-97.11"/>
<polygon fill="black" stroke="black" points="898.56,-93.6 888.15,-95.55 897.5,-100.52 898.56,-93.6"/>
</g>
<!-- 16&#45;&gt;7 -->
<g id="edge1" class="edge">
<title>16&#45;&gt;7</title>
<path fill="none" stroke="black" d="M615.49,-72.76C610.66,-64.53 604.69,-54.32 599.24,-45.02"/>
<polygon fill="black" stroke="black" points="602.1,-42.98 594.03,-36.12 596.06,-46.52 602.1,-42.98"/>
</g>
<!-- 16&#45;&gt;14 -->
<g id="edge26" class="edge">
<title>16&#45;&gt;14</title>
<path fill="none" stroke="black" d="M600.4,-78.16C594.75,-75.92 588.73,-73.72 583,-72 536.21,-57.93 483.6,-46.47 437.86,-37.85"/>
<polygon fill="black" stroke="black" points="438.38,-34.39 427.91,-36 437.1,-41.27 438.38,-34.39"/>
</g>
<!-- 4 -->
<g id="node26" class="node">
<title>4</title>
<ellipse fill="none" stroke="black" cx="1715" cy="-234" rx="32.49" ry="18"/>
<text text-anchor="middle" x="1715" y="-230.3" font-family="Times,serif" font-size="14.00">AND</text>
</g>
<!-- 4&#45;&gt;1 -->
<g id="edge32" class="edge">
<title>4&#45;&gt;1</title>
<path fill="none" stroke="black" d="M1715,-215.7C1715,-207.98 1715,-198.71 1715,-190.11"/>
<polygon fill="black" stroke="black" points="1718.5,-190.1 1715,-180.1 1711.5,-190.1 1718.5,-190.1"/>
</g>
<!-- 4&#45;&gt;0 -->
<g id="edge33" class="edge">
<title>4&#45;&gt;0</title>
<path fill="none" stroke="black" d="M1742.59,-224.42C1775.43,-214.2 1831.34,-196.81 1875.3,-183.13"/>
<polygon fill="black" stroke="black" points="1876.54,-186.41 1885.05,-180.1 1874.46,-179.72 1876.54,-186.41"/>
</g>
<!-- 6 -->
<g id="node27" class="node">
<title>6</title>
<ellipse fill="none" stroke="black" cx="1445" cy="-306" rx="46.29" ry="18"/>
<text text-anchor="middle" x="1445" y="-302.3" font-family="Times,serif" font-size="14.00">[15] OR</text>
</g>
<!-- 6&#45;&gt;4 -->
<g id="edge28" class="edge">
<title>6&#45;&gt;4</title>
<path fill="none" stroke="black" d="M1482.26,-295.34C1533.25,-282.12 1624.35,-258.5 1676.16,-245.07"/>
<polygon fill="black" stroke="black" points="1677.17,-248.42 1685.97,-242.53 1675.41,-241.65 1677.17,-248.42"/>
</g>
<!-- 5 -->
<g id="node33" class="node">
<title>5</title>
<ellipse fill="none" stroke="black" cx="1445" cy="-234" rx="32.49" ry="18"/>
<text text-anchor="middle" x="1445" y="-230.3" font-family="Times,serif" font-size="14.00">AND</text>
</g>
<!-- 6&#45;&gt;5 -->
<g id="edge17" class="edge">
<title>6&#45;&gt;5</title>
<path fill="none" stroke="black" d="M1445,-287.7C1445,-279.98 1445,-270.71 1445,-262.11"/>
<polygon fill="black" stroke="black" points="1448.5,-262.1 1445,-252.1 1441.5,-262.1 1448.5,-262.1"/>
</g>
<!-- 29&#45;&gt;21 -->
<g id="edge34" class="edge">
<title>29&#45;&gt;21</title>
<path fill="none" stroke="black" d="M1409.04,-366.22C1382.93,-354.93 1341.59,-337.07 1311.13,-323.91"/>
<polygon fill="black" stroke="black" points="1312.23,-320.57 1301.66,-319.82 1309.45,-327 1312.23,-320.57"/>
</g>
<!-- 29&#45;&gt;6 -->
<g id="edge5" class="edge">
<title>29&#45;&gt;6</title>
<path fill="none" stroke="black" d="M1436.66,-360.05C1437.87,-352.35 1439.34,-343.03 1440.7,-334.36"/>
<polygon fill="black" stroke="black" points="1444.19,-334.7 1442.29,-324.28 1437.28,-333.61 1444.19,-334.7"/>
</g>
<!-- 24&#45;&gt;22 -->
<g id="edge15" class="edge">
<title>24&#45;&gt;22</title>
<path fill="none" stroke="black" d="M1054.85,-149.47C1047.72,-147.35 1040.16,-145.38 1033,-144 836.4,-106.21 778.82,-154.09 584,-108 581.2,-107.34 578.35,-106.52 575.51,-105.6"/>
<polygon fill="black" stroke="black" points="576.61,-102.28 566.02,-102.18 574.24,-108.86 576.61,-102.28"/>
</g>
<!-- 23 -->
<g id="node30" class="node">
<title>23</title>
<ellipse fill="none" stroke="black" cx="1129" cy="-90" rx="32.49" ry="18"/>
<text text-anchor="middle" x="1129" y="-86.3" font-family="Times,serif" font-size="14.00">AND</text>
</g>
<!-- 24&#45;&gt;23 -->
<g id="edge23" class="edge">
<title>24&#45;&gt;23</title>
<path fill="none" stroke="black" d="M1097.92,-144.05C1102.83,-135.68 1108.85,-125.4 1114.28,-116.13"/>
<polygon fill="black" stroke="black" points="1117.41,-117.7 1119.45,-107.31 1111.37,-114.17 1117.41,-117.7"/>
</g>
<!-- 23&#45;&gt;3 -->
<g id="edge29" class="edge">
<title>23&#45;&gt;3</title>
<path fill="none" stroke="black" d="M1154.11,-78.18C1159.62,-75.99 1165.47,-73.81 1171,-72 1233.3,-51.66 1251.79,-56.61 1314,-36 1316.28,-35.24 1318.62,-34.42 1320.96,-33.55"/>
<polygon fill="black" stroke="black" points="1322.45,-36.73 1330.5,-29.84 1319.92,-30.21 1322.45,-36.73"/>
</g>
<!-- 23&#45;&gt;9 -->
<g id="edge4" class="edge">
<title>23&#45;&gt;9</title>
<path fill="none" stroke="black" d="M1144.91,-74.15C1154.62,-65.09 1167.26,-53.29 1178.36,-42.93"/>
<polygon fill="black" stroke="black" points="1180.82,-45.42 1185.74,-36.04 1176.04,-40.3 1180.82,-45.42"/>
</g>
<!-- 31&#45;&gt;3 -->
<g id="edge35" class="edge">
<title>31&#45;&gt;3</title>
<path fill="none" stroke="black" d="M1792.23,-375.34C1906.87,-368.55 2288,-338.23 2288,-235 2288,-235 2288,-235 2288,-161 2288,-69.64 1579.75,-29.68 1397.4,-20.91"/>
<polygon fill="black" stroke="black" points="1397.54,-17.41 1387.39,-20.44 1397.21,-24.41 1397.54,-17.41"/>
</g>
<!-- 31&#45;&gt;28 -->
<g id="edge45" class="edge">
<title>31&#45;&gt;28</title>
<path fill="none" stroke="black" d="M1760,-359.7C1760,-351.98 1760,-342.71 1760,-334.11"/>
<polygon fill="black" stroke="black" points="1763.5,-334.1 1760,-324.1 1756.5,-334.1 1763.5,-334.1"/>
</g>
<!-- 20&#45;&gt;18 -->
<g id="edge43" class="edge">
<title>20&#45;&gt;18</title>
<path fill="none" stroke="black" d="M1247.42,-222.08C1241.78,-219.84 1235.74,-217.67 1230,-216 1144.53,-191.17 1119.45,-201.18 1033,-180 1029.39,-179.12 1025.67,-178.13 1021.94,-177.09"/>
<polygon fill="black" stroke="black" points="1022.73,-173.67 1012.15,-174.25 1020.78,-180.4 1022.73,-173.67"/>
</g>
<!-- 20&#45;&gt;3 -->
<g id="edge21" class="edge">
<title>20&#45;&gt;3</title>
<path fill="none" stroke="black" d="M1270.89,-215.84C1269.67,-185.07 1270.57,-119.29 1296,-72 1303.19,-58.63 1315.13,-46.95 1326.39,-37.98"/>
<polygon fill="black" stroke="black" points="1328.52,-40.76 1334.4,-31.94 1324.31,-35.17 1328.52,-40.76"/>
</g>
<!-- 5&#45;&gt;2 -->
<g id="edge40" class="edge">
<title>5&#45;&gt;2</title>
<path fill="none" stroke="black" d="M1445,-215.7C1445,-207.98 1445,-198.71 1445,-190.11"/>
<polygon fill="black" stroke="black" points="1448.5,-190.1 1445,-180.1 1441.5,-190.1 1448.5,-190.1"/>
</g>
<!-- 5&#45;&gt;3 -->
<g id="edge18" class="edge">
<title>5&#45;&gt;3</title>
<path fill="none" stroke="black" d="M1419.93,-222.26C1386.9,-208 1332.63,-184.11 1330,-180 1303.35,-138.37 1324.73,-78.55 1340.99,-44.78"/>
<polygon fill="black" stroke="black" points="1344.25,-46.09 1345.6,-35.58 1337.99,-42.95 1344.25,-46.09"/>
</g>
</g>
</svg>
