<?xml version="1.0" encoding="UTF-8" standalone="no"?>
<!DOCTYPE svg PUBLIC "-//W3C//DTD SVG 1.1//EN"
 "http://www.w3.org/Graphics/SVG/1.1/DTD/svg11.dtd">
<!-- Generated by graphviz version 2.43.0 (0)
 -->
<!-- Title: G Pages: 1 -->
<svg width="978pt" height="188pt"
 viewBox="0.00 0.00 978.05 188.00" xmlns="http://www.w3.org/2000/svg" xmlns:xlink="http://www.w3.org/1999/xlink">
<g id="graph0" class="graph" transform="scale(1 1) rotate(0) translate(4 184)">
<title>G</title>
<polygon fill="white" stroke="transparent" points="-4,4 -4,-184 974.05,-184 974.05,4 -4,4"/>
<!-- 2 -->
<g id="node1" class="node">
<title>2</title>
<polygon fill="none" stroke="black" points="891,-36 602,-36 602,0 891,0 891,-36"/>
<text text-anchor="middle" x="746.5" y="-14.3" font-family="Times,serif" font-size="14.00">[4] ~((x_xsdd + (y_xsdd * &#45;1.0)) &lt; 0.0)</text>
</g>
<!-- 4 -->
<g id="node2" class="node">
<title>4</title>
<ellipse fill="none" stroke="black" cx="445.5" cy="-90" rx="32.49" ry="18"/>
<text text-anchor="middle" x="445.5" y="-86.3" font-family="Times,serif" font-size="14.00">AND</text>
</g>
<!-- 1 -->
<g id="node3" class="node">
<title>1</title>
<polygon fill="none" stroke="black" points="289,-36 0,-36 0,0 289,0 289,-36"/>
<text text-anchor="middle" x="144.5" y="-14.3" font-family="Times,serif" font-size="14.00">[6] ~((y_xsdd + (x_xsdd * &#45;1.0)) &lt; 1.0)</text>
</g>
<!-- 4&#45;&gt;1 -->
<g id="edge6" class="edge">
<title>4&#45;&gt;1</title>
<path fill="none" stroke="black" d="M416.09,-82.16C372.84,-72.1 290.43,-52.94 227.68,-38.34"/>
<polygon fill="black" stroke="black" points="228.32,-34.9 217.79,-36.04 226.74,-41.72 228.32,-34.9"/>
</g>
<!-- 0 -->
<g id="node6" class="node">
<title>0</title>
<polygon fill="none" stroke="black" points="584,-36 307,-36 307,0 584,0 584,-36"/>
<text text-anchor="middle" x="445.5" y="-14.3" font-family="Times,serif" font-size="14.00">[3] ((x_xsdd + (y_xsdd * &#45;1.0)) &lt; 0.0)</text>
</g>
<!-- 4&#45;&gt;0 -->
<g id="edge1" class="edge">
<title>4&#45;&gt;0</title>
<path fill="none" stroke="black" d="M445.5,-71.7C445.5,-63.98 445.5,-54.71 445.5,-46.11"/>
<polygon fill="black" stroke="black" points="449,-46.1 445.5,-36.1 442,-46.1 449,-46.1"/>
</g>
<!-- 5 -->
<g id="node4" class="node">
<title>5</title>
<ellipse fill="none" stroke="black" cx="746.5" cy="-90" rx="32.49" ry="18"/>
<text text-anchor="middle" x="746.5" y="-86.3" font-family="Times,serif" font-size="14.00">AND</text>
</g>
<!-- 5&#45;&gt;2 -->
<g id="edge3" class="edge">
<title>5&#45;&gt;2</title>
<path fill="none" stroke="black" d="M746.5,-71.7C746.5,-63.98 746.5,-54.71 746.5,-46.11"/>
<polygon fill="black" stroke="black" points="750,-46.1 746.5,-36.1 743,-46.1 750,-46.1"/>
</g>
<!-- 3 -->
<g id="node7" class="node">
<title>3</title>
<ellipse fill="none" stroke="black" cx="939.5" cy="-18" rx="30.59" ry="18"/>
<text text-anchor="middle" x="939.5" y="-14.3" font-family="Times,serif" font-size="14.00">true</text>
</g>
<!-- 5&#45;&gt;3 -->
<g id="edge5" class="edge">
<title>5&#45;&gt;3</title>
<path fill="none" stroke="black" d="M774,-80.27C804.99,-70.26 856.76,-53.03 900.5,-36 902.36,-35.28 904.26,-34.52 906.17,-33.74"/>
<polygon fill="black" stroke="black" points="907.84,-36.83 915.7,-29.73 905.12,-30.38 907.84,-36.83"/>
</g>
<!-- 6 -->
<g id="node5" class="node">
<title>6</title>
<ellipse fill="none" stroke="black" cx="595.5" cy="-162" rx="40.09" ry="18"/>
<text text-anchor="middle" x="595.5" y="-158.3" font-family="Times,serif" font-size="14.00">[7] OR</text>
</g>
<!-- 6&#45;&gt;4 -->
<g id="edge4" class="edge">
<title>6&#45;&gt;4</title>
<path fill="none" stroke="black" d="M568.68,-148.49C543.51,-136.74 505.77,-119.12 478.7,-106.49"/>
<polygon fill="black" stroke="black" points="480.15,-103.31 469.61,-102.25 477.19,-109.65 480.15,-103.31"/>
</g>
<!-- 6&#45;&gt;5 -->
<g id="edge2" class="edge">
<title>6&#45;&gt;5</title>
<path fill="none" stroke="black" d="M622.5,-148.49C647.84,-136.74 685.83,-119.12 713.08,-106.49"/>
<polygon fill="black" stroke="black" points="714.63,-109.63 722.23,-102.25 711.69,-103.28 714.63,-109.63"/>
</g>
</g>
</svg>
